<svg width="696" height="470" viewBox="0 0 696 470" fill="none" xmlns="http://www.w3.org/2000/svg">
<g clip-path="url(#clip0_164_93)">
<path d="M530.46 42.9007C530.46 42.9007 520.27 15.7407 500.75 10.6507C481.23 5.56073 476.14 31.8707 472.75 36.1107C469.36 40.3507 459.17 29.3207 450.68 35.2607C442.19 41.2007 439.68 50.5407 437.1 50.5407C434.52 50.5407 429.46 42.9007 425.22 47.1407C420.98 51.3807 411.64 59.0207 411.64 59.0207C411.64 59.0207 403.15 53.9307 400.64 56.4807L393 64.1207H569.5C569.5 64.1207 566.1 38.6607 556.77 36.1207C547.44 33.5807 530.46 52.2607 530.46 42.9007Z" fill="#D9D9D9"/>
<path d="M226.58 18.5784C226.58 18.5784 220.83 3.24835 209.81 0.368354C198.79 -2.51165 195.91 12.3684 194 14.7384C192.09 17.1084 186.33 10.9084 181.54 14.2684C176.75 17.6284 175.31 22.8884 173.87 22.8884C172.43 22.8884 169.56 18.5784 167.17 20.9684C164.78 23.3584 159.5 27.6784 159.5 27.6784C159.5 27.6784 154.71 24.8084 153.31 26.2384L149 30.5584H248.66C248.66 30.5584 246.74 16.1784 241.47 14.7384C236.2 13.2984 226.58 23.8484 226.58 18.5784Z" fill="#D9D9D9"/>
<path d="M163.007 109.83C163.007 109.83 152.852 82.7402 133.391 77.6509C113.929 72.5616 108.843 98.8563 105.47 103.044C102.097 107.232 91.9249 96.2763 83.4658 102.214C75.0066 108.151 72.4636 117.446 69.9205 117.446C67.3775 117.446 62.309 109.83 58.0883 114.053C53.8675 118.277 44.543 125.911 44.543 125.911C44.543 125.911 36.0839 120.839 33.6115 123.366L26 131H202C202 131 198.609 105.589 189.302 103.044C179.996 100.5 163.007 119.143 163.007 109.83Z" fill="#D9D9D9"/>
<path opacity="0.3" d="M549.78 114.11C549.78 114.11 544 98.7801 533 95.9001C522 93.0201 519.11 107.9 517.19 110.28C515.27 112.66 509.52 106.44 504.73 109.8C499.94 113.16 498.5 118.42 497.07 118.42C495.64 118.42 492.76 114.11 490.36 116.5C487.96 118.89 482.69 123.21 482.69 123.21C482.69 123.21 477.9 120.34 476.46 121.78L472.15 126.09H571.81C571.81 126.09 569.89 111.71 564.62 110.28C559.35 108.85 549.78 119.38 549.78 114.11Z" stroke="black" stroke-linecap="round" stroke-linejoin="round"/>
<path d="M696 410.3H0.699997V470H696V410.3Z" fill="#8ED7C3"/>
<path d="M13.6311 410.19H688.048" stroke="#263238" stroke-linecap="round" stroke-linejoin="round"/>
<path d="M135.362 422.57H269.895" stroke="#263238" stroke-linecap="round" stroke-linejoin="round"/>
<path d="M267.349 435.75H318.962" stroke="#263238" stroke-linecap="round" stroke-linejoin="round"/>
<path d="M11.8383 438.38H63.4514" stroke="#263238" stroke-linecap="round" stroke-linejoin="round"/>
<path d="M380.729 429.6H356.195" stroke="#263238" stroke-linecap="round" stroke-linejoin="round"/>
<path d="M148.897 439.26H211.509" stroke="#263238" stroke-linecap="round" stroke-linejoin="round"/>
<path d="M71.9049 420.82H109.983" stroke="#263238" stroke-linecap="round" stroke-linejoin="round"/>
<path d="M101.52 441.02H139.598" stroke="#263238" stroke-linecap="round" stroke-linejoin="round"/>
<path d="M538.095 432.23H438.26" stroke="#263238" stroke-linecap="round" stroke-linejoin="round"/>
<path d="M515.252 423.45H544.867" stroke="#263238" stroke-linecap="round" stroke-linejoin="round"/>
<path d="M666.701 427.84H601.552" stroke="#263238" stroke-linecap="round" stroke-linejoin="round"/>
<path d="M602.398 441.02H485.637" stroke="#263238" stroke-linecap="round" stroke-linejoin="round"/>
<path d="M305.427 420.82H337.579" stroke="#263238" stroke-linecap="round" stroke-linejoin="round"/>
<path d="M426.415 450.68H324.889" stroke="#263238" stroke-linecap="round" stroke-linejoin="round"/>
<path d="M682.781 446.29H648.084" stroke="#263238" stroke-linecap="round" stroke-linejoin="round"/>
<path d="M350.85 32.7C350.85 32.7 300.54 29.29 297.55 31C294.56 32.71 290.3 42.93 289 43.79C287.7 44.65 259.58 46.79 259.58 46.79C259.58 46.79 255.31 56.6 254.03 58.3C252.75 60 237.83 59.16 233.14 55.3C236.267 58.6105 239.695 61.6234 243.38 64.3C249.77 68.99 253.61 71.98 255.31 73.3C257.01 74.62 261.71 69.46 264.69 69.03C267.67 68.6 286.86 74.15 290.69 74.57C294.52 74.99 297.09 60.08 301.35 60.93C305.61 61.78 351.66 64.34 351.66 64.34L350.85 32.7Z" fill="#8ED7C3" stroke="#263238" stroke-linecap="round" stroke-linejoin="round"/>
<path d="M351.78 76.3V29.4" stroke="#263238" stroke-width="4" stroke-linecap="round" stroke-linejoin="round"/>
<path d="M508.72 286.92L351.58 69.71L179.63 314.89L414.93 349.44L508.72 286.92Z" fill="white" stroke="#263238" stroke-linecap="round" stroke-linejoin="round"/>
<path d="M351.58 105.52V317.34" stroke="#263238" stroke-linecap="round" stroke-linejoin="round"/>
<path d="M351.58 76.3V97.74" stroke="#263238" stroke-linecap="round" stroke-linejoin="round"/>
<path d="M553.52 62.74C553.52 62.74 553.76 66.74 552.69 68.56C551.62 70.38 548.06 78.3 548.06 78.3L539.51 77.3L539.15 70.53C539.15 70.53 536.42 66.42 536 66C535.58 65.58 532.2 65.41 532.2 64.57C532.2 63.73 533.27 63.86 533.27 63.86L553.52 62.74Z" fill="white" stroke="#263238" stroke-linecap="round" stroke-linejoin="round"/>
<path d="M539.27 62.86C539.27 62.86 541.27 64.52 541.27 65.12V65.71C541.27 65.71 545.68 67 546 68.92C546.32 70.84 546.12 72.01 545.53 72.36" stroke="#263238" stroke-linecap="round" stroke-linejoin="round"/>
<path d="M538.56 75.21L550.08 78.06L548.89 82.45L537.02 79.96L538.56 75.21Z" fill="white" stroke="#263238" stroke-linecap="round" stroke-linejoin="round"/>
<path d="M537 79L550.91 83.13C550.91 83.13 539.17 130.07 537.65 131.81C536.13 133.55 513.09 132.46 513.09 132.46L514.39 98.77L526.56 111.77L537 79Z" fill="#8ED7C3" stroke="#263238" stroke-linecap="round" stroke-linejoin="round"/>
<path d="M560.21 52.5601L528.07 55.5801L528.24 64.1101L560.88 63.7801L560.21 52.5601Z" fill="#9E9E9E" stroke="#263238" stroke-linecap="round" stroke-linejoin="round"/>
<path d="M590.01 48.88L589.68 66.29H560.04V50.39L590.01 48.88Z" fill="#9E9E9E" stroke="#263238" stroke-linecap="round" stroke-linejoin="round"/>
<path d="M528.07 56.91L523.38 57.25L523.41 61.83L528.07 61.6V56.91Z" fill="#9E9E9E" stroke="#263238" stroke-linecap="round" stroke-linejoin="round"/>
<path d="M537.73 52.0601L540.73 51.5801C541.081 53.0632 541.318 54.5709 541.44 56.0901C541.32 56.8101 539.78 57.4001 539.18 57.1601C538.58 56.9201 537.52 54.5501 537.28 53.7201C537.232 53.4273 537.248 53.1277 537.325 52.8414C537.403 52.5551 537.541 52.2887 537.73 52.0601Z" fill="white" stroke="#263238" stroke-linecap="round" stroke-linejoin="round"/>
<path d="M540.7 51.58C540.7 51.58 545.09 50.4 545.57 50.99C546.05 51.58 547.23 56.33 546.87 56.69C546.51 57.05 544.87 57.99 544.38 57.69C543.89 57.39 540.7 51.58 540.7 51.58Z" fill="white" stroke="#263238" stroke-linecap="round" stroke-linejoin="round"/>
<path d="M545.57 51.0001C545.57 51.0001 549.57 50.0501 549.96 50.4101C550.35 50.7701 551.03 55.5101 549.96 55.8701C549.227 56.0835 548.461 56.1614 547.7 56.1001L545.57 51.0001Z" fill="white" stroke="#263238" stroke-linecap="round" stroke-linejoin="round"/>
<path d="M550 50.4C550 50.4 553.2 50.28 553.68 50.63C554.16 50.98 553.44 54.63 553.2 55.14C552.96 55.65 551.78 55.38 551.54 54.67C551.3 53.96 550 50.4 550 50.4Z" fill="white" stroke="#263238" stroke-linecap="round" stroke-linejoin="round"/>
<path d="M516.33 46.27C516.33 46.27 522.6 52.54 523 55.16C523.4 57.78 523 60.62 523.41 61.84C523.82 63.06 528.66 67.09 528.87 68.3C529.08 69.51 525.02 71.54 525.02 71.54C525.02 71.54 523.61 79.22 523.81 80.03C524.01 80.84 526.81 84.68 525.81 86.9C524.81 89.12 519.55 89.53 516.92 88.9L514.29 88.1L512.87 92.1L490.66 81L491.66 77.16C491.66 77.16 483.77 68.47 483.37 58.76C482.97 49.05 491.66 42.76 496.71 40.37C501.76 37.98 513.09 39.76 515.71 40.57C518.33 41.38 517.71 38.14 518.95 40.16C520.19 42.18 520.37 44.85 516.33 46.27Z" fill="white" stroke="#263238" stroke-linecap="round" stroke-linejoin="round"/>
<path d="M508.24 83.87C505.82 81.24 502.79 75.38 502.99 71.34C503.191 68.5767 503.124 65.8005 502.79 63.05C502.58 62.44 498.74 57.99 496.52 61.05C494.3 64.11 494.9 69.74 496.92 71.36L498.92 72.97C498.92 72.97 495.92 78.23 491.64 77.22C491.64 77.22 483.75 68.53 483.35 58.82C482.95 49.11 491.64 42.82 496.69 40.43C501.74 38.04 513.07 39.82 515.69 40.63C518.31 41.44 517.69 38.2 518.93 40.22C520.17 42.24 520.34 44.87 516.3 46.29C516.3 46.29 503.16 46.9 504.58 48.11C506 49.32 513.47 53.77 512.86 55.99C512.25 58.21 507.81 61.05 507.41 61.65C507.01 62.25 508.01 69.13 508.01 69.13L513.07 74.59C513.07 74.59 523.58 70.59 524.99 71.59C524.99 71.59 523.58 79.27 523.78 80.08C523.98 80.89 526.78 84.73 525.78 86.95C524.78 89.17 519.52 89.58 516.89 88.95L514.26 88.15C512.019 87.0861 509.981 85.6375 508.24 83.87Z" fill="#263238" stroke="#263238" stroke-linecap="round" stroke-linejoin="round"/>
<path d="M520.58 62.24C520.145 61.852 519.601 61.6059 519.022 61.5344C518.444 61.463 517.857 61.5696 517.34 61.84" stroke="#263238" stroke-linecap="round" stroke-linejoin="round"/>
<path d="M521.79 59.6101C521.79 59.6101 519.36 56.7801 516.94 58.8001" stroke="#263238" stroke-linecap="round" stroke-linejoin="round"/>
<path d="M519.44 76.85C519.04 77.95 519.27 79.04 519.95 79.29C520.63 79.54 521.51 78.85 521.95 77.75C522.39 76.65 522.13 75.56 521.45 75.31C520.77 75.06 519.85 75.75 519.44 76.85Z" fill="white"/>
<path d="M490.05 79.63C490.05 79.63 511.05 91.76 512.89 92.16C514.73 92.56 517.75 96.81 517.75 96.81L486.82 84.68L490.05 79.63Z" fill="white" stroke="#263238" stroke-linecap="round" stroke-linejoin="round"/>
<path d="M523.38 163.56L523.71 167.24L526.9 181.14C526.9 181.14 562.72 194.36 570.9 199.72C579.08 205.08 578.26 206.08 577.59 207.26C576.92 208.44 546.29 268.2 546.29 268.2L548.46 270.04L543.11 281.04C544.843 282.881 546.686 284.614 548.63 286.23C551.175 287.793 553.852 289.132 556.63 290.23C557.97 290.57 557.46 292.23 556.29 292.91C555.12 293.59 544.74 294.59 542.73 294.59C540.72 294.59 529.17 287.05 528 286.38C526.83 285.71 522 284.21 521.8 282.7C521.6 281.19 522.64 277.7 524.15 276.51C525.66 275.32 528.5 267.13 529.34 266.46C530.18 265.79 531.18 265.96 531.34 264.95C531.5 263.94 544.23 227.62 544.23 227.62L548 218L514.35 209.13C514.35 209.13 501.63 264.88 498.28 270.4C494.93 275.92 480.36 304.55 480.36 304.55C480.36 304.55 482.21 308.24 481.87 308.91C481.53 309.58 478.19 314.1 478.19 314.1C478.19 314.1 481.54 320.63 482.04 321.3C482.54 321.97 487.39 326.49 489.74 327.66C492.09 328.83 490.07 329.83 487.9 330.5C485.73 331.17 475.68 331.01 474.67 330.5C473.66 329.99 459.77 317.28 459.27 316.44C458.96 315.774 458.827 315.039 458.885 314.307C458.943 313.574 459.189 312.869 459.6 312.26C460.781 310.326 461.843 308.323 462.78 306.26C462.765 305.257 462.822 304.255 462.95 303.26C463.12 302.75 465.95 297.73 465.95 297.73L480.51 261.9L478.33 206.99L475.5 189L479.68 165.73L523.38 163.56Z" fill="#263238" stroke="#263238" stroke-linecap="round" stroke-linejoin="round"/>
<path d="M517.35 100.44C517.35 100.44 527.73 121.87 527.73 128.23C527.73 134.59 522.88 159.88 522.88 160.55C522.88 161.22 524.38 162.22 523.38 163.55C522.365 164.704 521.022 165.52 519.53 165.89L502.12 165.56L517.35 100.44Z" fill="white" stroke="#263238" stroke-linecap="round" stroke-linejoin="round"/>
<path d="M486.82 84.6801C486.82 84.6801 482.17 93.1701 481.76 94.9901C481.35 96.8101 477.65 114.1 477.04 123.99C476.43 133.88 475.49 135.82 475.49 135.82L452.74 182.63C452.74 182.63 466 199.54 483 203.75C491.5 205.86 498.77 200.11 498.77 200.11C498.77 200.11 519.98 142.65 520.39 141.43C520.8 140.21 523.2 118 523 113C522.8 108 516.94 95.4101 516.94 95.4101L486.82 84.6801Z" fill="#8ED7C3" stroke="#263238" stroke-linecap="round" stroke-linejoin="round"/>
<path d="M497.52 167.04L478.99 158.54L477.83 162.02L485.17 165.11" stroke="#263238" stroke-linecap="round" stroke-linejoin="round"/>
<path d="M520.36 141.43C520.36 141.43 490.25 185.76 486.82 189.8C483.39 193.84 481.15 197.08 481.15 197.08C484.819 196.878 488.498 197.215 492.07 198.08L497.13 199.5L498.74 200.1L520.36 141.43Z" fill="#8ED7C3" stroke="#263238" stroke-linecap="round" stroke-linejoin="round"/>
<path d="M508.65 120.87C508.65 120.87 496.92 127.34 492.65 128.95" stroke="#263238" stroke-linecap="round" stroke-linejoin="round"/>
<path d="M499.56 132.79C498.411 133.638 497.189 134.385 495.91 135.02" stroke="#263238" stroke-linecap="round" stroke-linejoin="round"/>
<path d="M510.47 122.08C508.381 124.654 506.119 127.083 503.7 129.35" stroke="#263238" stroke-linecap="round" stroke-linejoin="round"/>
<path d="M598.44 103L611.62 100.22C611.62 100.22 626.27 101.22 627.44 101.54C628.61 101.86 629.78 103.15 628.9 103.54C628.02 103.93 620.55 103.1 620.55 103.1L617.62 103.25C617.62 103.25 618.5 109.25 617.77 110.13C617.04 111.01 610.89 112.77 610.3 112.77C609.71 112.77 606.79 112.18 606.64 111.3C606.49 110.42 607.81 109.69 607.81 109.69C606.056 109.839 604.293 109.839 602.54 109.69C601.37 109.4 597.27 107.79 597.27 107.79L598.44 103Z" fill="white" stroke="#263238" stroke-linecap="round" stroke-linejoin="round"/>
<path d="M608.54 106.76L609.72 109.25L607.81 109.69" stroke="#263238" stroke-linecap="round" stroke-linejoin="round"/>
<path d="M591.11 100.67L599.4 101.07L597.38 110.78L589.09 111.38L591.11 100.67Z" fill="white" stroke="#263238" stroke-linecap="round" stroke-linejoin="round"/>
<path d="M512.89 92.16C512.89 92.16 488.06 78.26 484.62 78.26C481.18 78.26 463.41 86.26 463.41 86.26C463.41 86.26 454.36 81.93 451.31 82.37C446.59 83.04 434.74 89.7 434.74 89.7L448.16 96.06C448.16 96.06 462.26 100.06 466.85 98.3C471.44 96.54 483.7 82.7 485.42 83.3C487.14 83.9 514.83 94.3 514.83 94.3" fill="#263238"/>
<path d="M512.89 92.16C512.89 92.16 488.06 78.26 484.62 78.26C481.18 78.26 463.41 86.26 463.41 86.26C463.41 86.26 454.36 81.93 451.31 82.37C446.59 83.04 434.74 89.7 434.74 89.7L448.16 96.06C448.16 96.06 462.26 100.06 466.85 98.3C471.44 96.54 483.7 82.7 485.42 83.3C487.14 83.9 514.83 94.3 514.83 94.3" stroke="#263238" stroke-linecap="round" stroke-linejoin="round"/>
<path d="M490.86 98.43C490.86 98.43 501.37 92.77 503.59 92.77C505.81 92.77 561.59 98.22 561.59 98.22L593.31 99.45L591.52 113L532.91 118.24L492.91 122.69" fill="#8ED7C3"/>
<path d="M490.86 98.43C490.86 98.43 501.37 92.77 503.59 92.77C505.81 92.77 561.59 98.22 561.59 98.22L593.31 99.45L591.52 113L532.91 118.24L492.91 122.69" stroke="#263238" stroke-linecap="round" stroke-linejoin="round"/>
<path d="M529.55 108.72C527.19 109.58 525.01 110.32 523.25 110.81" stroke="#263238" stroke-linecap="round" stroke-linejoin="round"/>
<path d="M551.8 99.53C551.8 99.53 542.33 103.78 533.55 107.2" stroke="#263238" stroke-linecap="round" stroke-linejoin="round"/>
<path d="M554.88 100.12C551.542 102.119 548.066 103.88 544.48 105.39" stroke="#263238" stroke-linecap="round" stroke-linejoin="round"/>
<path d="M176.63 410L118.69 286.68L301.58 301C301.58 301 419.16 304.32 426.69 303.67C444.44 302.13 650.55 236.51 650.55 236.51L556 410H176.63Z" fill="white" stroke="#263238" stroke-linecap="round" stroke-linejoin="round"/>
<path d="M468.79 361.91L497.82 395.99" stroke="#263238" stroke-linecap="round" stroke-linejoin="round"/>
<path d="M426.17 311.89L462.05 354.01" stroke="#263238" stroke-linecap="round" stroke-linejoin="round"/>
<path d="M238.45 391.07L231.49 400.66" stroke="#263238" stroke-linecap="round" stroke-linejoin="round"/>
<path d="M299.24 307.22L243.29 384.39" stroke="#263238" stroke-linecap="round" stroke-linejoin="round"/>
<path d="M234 260.69L248.78 296.82C228.78 295.61 209.49 293.52 192.01 292.44L174.85 254.44L178.97 231.08L195.18 229.3L211.39 228.11C211.39 228.11 223.39 228.56 223.88 228.56C224.37 228.56 234 238.38 234 238.38L261.56 255.57C261.56 255.57 262.03 269.01 260.99 270.2C259.95 271.39 234 260.69 234 260.69Z" fill="#8ED7C3" stroke="#263238" stroke-linecap="round" stroke-linejoin="round"/>
<path d="M225.69 290.3C232.08 283.92 232.34 267.94 232.34 267.94" stroke="#263238" stroke-linecap="round" stroke-linejoin="round"/>
<path d="M235.54 281.25C235.54 281.25 232.61 287.91 229.68 290.04" stroke="#263238" stroke-linecap="round" stroke-linejoin="round"/>
<path d="M253.48 247L249.91 251.75C249.91 251.75 250.66 260.83 250.66 262.31C250.66 263.79 256.31 269.75 257.8 270.05C259.972 270.378 262.185 270.328 264.34 269.9C265.53 269.45 266.87 262.76 267.17 261.42C267.47 260.08 253.48 247 253.48 247Z" fill="white" stroke="#263238" stroke-linecap="round" stroke-linejoin="round"/>
<path d="M241.68 200.31L238.56 201.2C238.144 202.667 237.81 204.156 237.56 205.66C237.566 205.84 237.61 206.017 237.691 206.179C237.771 206.34 237.886 206.483 238.026 206.596C238.167 206.709 238.33 206.79 238.505 206.834C238.68 206.878 238.863 206.883 239.04 206.85C239.75 206.7 241.68 200.31 241.68 200.31Z" stroke="#263238" stroke-linecap="round" stroke-linejoin="round"/>
<path d="M233.95 260.69L225.62 237.64" stroke="#263238" stroke-linecap="round" stroke-linejoin="round"/>
<path d="M233.95 260.69L230.23 239.87" stroke="#263238" stroke-linecap="round" stroke-linejoin="round"/>
<path d="M193.2 230.05C193.2 230.05 167 231.43 165.81 232.62C164.62 233.81 159.16 277.99 160.2 279.92C161.24 281.85 168.72 282.85 168.72 282.85L176.61 270.07L178.3 245.07" fill="#8ED7C3"/>
<path d="M193.2 230.05C193.2 230.05 167 231.43 165.81 232.62C164.62 233.81 159.16 277.99 160.2 279.92C161.24 281.85 168.72 282.85 168.72 282.85L176.61 270.07L178.3 245.07" stroke="#263238" stroke-linecap="round" stroke-linejoin="round"/>
<path d="M196.94 240.57L204.51 248.38C204.51 248.38 199.01 252.28 196.94 252.96C194.87 253.64 183.86 240.8 181.34 239.88C178.82 238.96 160.22 245.62 156.55 247C153.572 247.929 150.486 248.467 147.37 248.6L143 256.18L154.71 262.6C154.71 262.6 178.8 247.46 180.64 247.23C182.48 247 195.55 258.01 196.7 257.55C197.85 257.09 207 249.29 207 249.29L209.79 236L201.53 232.33L196.94 240.57Z" fill="#263238" stroke="#263238" stroke-linecap="round" stroke-linejoin="round"/>
<path d="M189.81 223.7L185.53 225.35L185.04 229.63L195.9 247.9L201.66 237.04L204.96 236.38L216.81 244.11L210.23 227.98L207.26 225.51L189.81 223.7Z" fill="white" stroke="#263238" stroke-linecap="round" stroke-linejoin="round"/>
<path d="M187.84 218.27L191.13 227.82L204.79 241.64L208.09 227.65L206.93 222.88L187.84 218.27Z" fill="white" stroke="#263238" stroke-linecap="round" stroke-linejoin="round"/>
<path d="M200.64 185.71C200.64 185.71 205.64 193.97 206.41 196.85C207.18 199.73 207.24 202.85 207.65 203.66C208.06 204.47 210.13 207.38 210.13 210.66C210.13 213.94 210.33 222.21 209.92 223.66C209.51 225.11 206.41 225.52 203.92 225.73C201.43 225.94 195.05 224.49 190.92 222.22C186.928 220.179 183.681 216.932 181.64 212.94C179.16 208.4 179.58 202.41 179.99 201.38C180.4 200.35 179.99 189.83 187.21 187.15C191.493 185.543 196.114 185.048 200.64 185.71Z" fill="white" stroke="#263238" stroke-linecap="round" stroke-linejoin="round"/>
<path d="M181.66 208.41L186.2 207.99C186.2 207.99 184.14 206.14 184.96 204.69C185.78 203.24 190.32 202.63 188.88 200.98C187.44 199.33 183.93 196.85 185.17 194.17C186.41 191.49 195.69 189.63 196.51 189.63C197.33 189.63 197.34 191.9 197.34 191.9C199.042 190.89 200.297 189.271 200.85 187.37C201.85 184.06 203.32 181.18 200.64 180.15C197.96 179.12 182.07 183.65 180.42 185.51C178.77 187.37 173 191.7 173.61 195.2C174.22 198.7 178.36 207.38 179.18 208.41C180 209.44 181.66 208.41 181.66 208.41Z" fill="#263238" stroke="#263238" stroke-linecap="round" stroke-linejoin="round"/>
<path d="M184.34 210.68C184.34 210.68 178.98 204.68 176.71 207.38C174.44 210.08 178.15 215.38 180.01 216.25C181.87 217.12 184.34 215.83 184.34 215.83" fill="white"/>
<path d="M184.34 210.68C184.34 210.68 178.98 204.68 176.71 207.38C174.44 210.08 178.15 215.38 180.01 216.25C181.87 217.12 184.34 215.83 184.34 215.83" stroke="#263238" stroke-linecap="round" stroke-linejoin="round"/>
<path d="M198.54 202.13C198.54 202.13 194.42 201.47 192.77 203.94Z" fill="white"/>
<path d="M198.54 202.13C198.54 202.13 194.42 201.47 192.77 203.94" stroke="#263238" stroke-linecap="round" stroke-linejoin="round"/>
<path d="M202.82 200.16C203.191 199.564 203.741 199.101 204.391 198.835C205.041 198.569 205.758 198.515 206.44 198.68" stroke="#263238" stroke-linecap="round" stroke-linejoin="round"/>
<path d="M206.6 208.22C206.694 208.894 206.544 209.58 206.177 210.154C205.811 210.728 205.251 211.152 204.6 211.35" stroke="#263238" stroke-linecap="round" stroke-linejoin="round"/>
<path d="M197.88 214.48C199.07 215.091 200.378 215.436 201.714 215.493C203.05 215.55 204.383 215.317 205.62 214.81" stroke="#263238" stroke-linecap="round" stroke-linejoin="round"/>
<path d="M198.81 205.18C199.14 206.18 198.94 207.13 198.38 207.31C197.82 207.49 197.1 206.83 196.78 205.84C196.46 204.85 196.65 203.84 197.21 203.71C197.77 203.58 198.49 204.18 198.81 205.18Z" fill="#263238"/>
<path d="M206.3 203.12C206.63 204.12 206.43 205.07 205.87 205.25C205.31 205.43 204.59 204.77 204.27 203.78C203.95 202.79 204.14 201.83 204.7 201.65C205.26 201.47 206 202.13 206.3 203.12Z" fill="#263238"/>
<path d="M181.34 373.68C181.34 373.68 169.29 380.86 167.24 384.2C165.19 387.54 152.1 423.7 151.08 428.57C150.06 433.44 155.65 438.57 164.42 426.26C170.83 417.26 183.14 386.76 184.68 381.89C186.22 377.02 181.86 371.37 181.34 373.68Z" fill="#9E9E9E" stroke="#263238" stroke-linecap="round" stroke-linejoin="round"/>
<path d="M249.16 188.69L180.83 375.99" stroke="#263238" stroke-width="3" stroke-linecap="round" stroke-linejoin="round"/>
<path d="M245 221.13C245 221.13 252.94 257.95 253.24 259.88C253.54 261.81 257.4 267.32 259.63 268.51C260.011 268.7 260.419 268.828 260.84 268.89C261.71 269.016 262.597 268.956 263.442 268.715C264.287 268.473 265.072 268.055 265.743 267.488C266.415 266.921 266.959 266.218 267.34 265.425C267.72 264.633 267.928 263.769 267.95 262.89C268.1 259.16 268.16 254.65 267.66 253.32C266.77 250.94 249.91 217.24 249.91 217.24C249.91 217.24 249.91 202.24 249.17 201.78C248.43 201.32 242.62 199.25 241.73 200.29C241.137 201.228 240.792 202.302 240.73 203.41L237.73 212.63C237.962 213.688 238.363 214.701 238.92 215.63C239.133 215.883 239.412 216.073 239.727 216.177C240.041 216.281 240.378 216.296 240.7 216.22L242.19 216.07C242.19 216.07 242.72 220.39 245 221.13Z" fill="white" stroke="#263238" stroke-linecap="round" stroke-linejoin="round"/>
<path d="M177.51 271.4L210.9 274.08C210.9 274.08 225.9 278.98 226.36 279.28C226.82 279.58 226.81 281.21 226.36 281.96C225.863 282.622 225.196 283.137 224.43 283.45C222.753 285.011 221.257 286.755 219.97 288.65C219.52 289.54 219.37 289.39 217.44 288.95C215.51 288.51 206.88 279.73 206.88 279.73L168.45 285.51L177.51 271.4Z" fill="white" stroke="#263238" stroke-linecap="round" stroke-linejoin="round"/>
<path d="M179.89 270.66C179.89 270.66 176.17 267.66 175.13 267.83C174.09 268 157.39 280 157.54 281C157.69 282 169 286.84 169 286.84L179.89 270.66Z" fill="white" stroke="#263238" stroke-linecap="round" stroke-linejoin="round"/>
<path d="M166.33 266.35L175.13 267.83" stroke="#263238" stroke-linecap="round" stroke-linejoin="round"/>
<path d="M175.91 266.08L169.52 263.15" stroke="#263238" stroke-linecap="round" stroke-linejoin="round"/>
<path d="M387.86 255.11C387.86 255.11 404 267.58 405.49 269.3C406.98 271.02 408.29 274.89 407 277.47C405.71 280.05 402.48 281.99 399.9 281.77C397.32 281.55 377.53 268.23 377.53 268.23L387.86 255.11Z" fill="white" stroke="#263238" stroke-linecap="round" stroke-linejoin="round"/>
<path d="M377.79 284.6L383.17 303.07C370.29 302.45 354.97 302.94 338.76 302.07L336.9 282.96L333.62 269.22L331.3 266.32L328.5 269.12L311.5 256C311.5 256 315.37 247.4 315.59 246.75C317.204 243.52 319.562 240.72 322.47 238.58C326.94 235.17 333.29 236.18 333.47 236.21L337.4 236.51L361.63 238.84C361.63 238.84 371.7 240.6 372.82 240.84C375.123 241.849 377.351 243.019 379.49 244.34C381.64 245.85 391.1 255.53 391.1 255.53L380.55 269.66L377.79 284.6Z" fill="#8ED7C3" stroke="#263238" stroke-linecap="round" stroke-linejoin="round"/>
<path d="M362.74 187.5C362.74 187.5 368.09 187.5 368.42 190.58C368.75 193.66 365.17 196.42 365.17 196.42L359.65 191.88L362.74 187.5Z" fill="#263238" stroke="#263238" stroke-linecap="round" stroke-linejoin="round"/>
<path d="M361.61 190.33C361.61 190.33 366.28 195.69 367.21 198.25C368.14 200.81 369.54 203.61 370.7 204.31C371.86 205.01 376.76 206.41 376.07 208.31C375.38 210.21 374.43 212.51 374.43 212.51C374.43 212.51 374.67 223.46 373.97 224.63C373.27 225.8 363.97 226.73 363.97 226.73L361.63 238.85L364.43 239.31L369.56 249.8L347.18 250.73L337.4 236.52H344.85L345.55 226.03C345.55 226.03 339.49 217.17 339.26 213.21C339.03 209.25 361.61 190.33 361.61 190.33Z" fill="white" stroke="#263238" stroke-linecap="round" stroke-linejoin="round"/>
<path d="M360 184.84C357.69 184.84 336.91 189.46 333.83 193.84C333.03 194.98 332.39 197.49 331.83 200.61L331.61 200.81C331.61 200.81 328.61 212.35 326.61 216.01C325.63 217.84 324.542 219.61 323.35 221.31L327.56 224.43L329.56 220.63L329 225.5C329 225.5 336.06 229.3 338.77 230.11C340.496 230.574 342.254 230.908 344.03 231.11C344.409 231.185 344.794 231.229 345.18 231.24C348.26 231.24 353.65 228.68 353.65 228.68L351.85 220.21C351.08 220.47 346.21 219.21 344.92 218.42C343.63 217.63 342.62 213.54 344.41 210.98C346.2 208.42 350.82 212.52 350.82 212.52C350.82 212.52 354.42 209.18 353.9 208.41C353.443 207.762 353.219 206.977 353.266 206.185C353.314 205.392 353.629 204.64 354.16 204.05C355.7 202.51 361.6 197.13 362.62 192.25C363.64 187.37 362.34 184.84 360 184.84Z" fill="#263238" stroke="#263238" stroke-linecap="round" stroke-linejoin="round"/>
<path d="M367.19 205.36C367.73 206.44 367.81 207.5 367.37 207.72C366.93 207.94 366.13 207.24 365.59 206.16C365.05 205.08 364.97 204.02 365.41 203.8C365.85 203.58 366.65 204.28 367.19 205.36Z" fill="#263238"/>
<path d="M362.41 202.43C362.588 201.741 363.026 201.147 363.632 200.775C364.238 200.402 364.965 200.278 365.66 200.43" stroke="#263238" stroke-linecap="round" stroke-linejoin="round"/>
<path d="M367.93 214.6C368.647 215.012 369.459 215.228 370.285 215.228C371.111 215.228 371.923 215.012 372.64 214.6" stroke="#263238" stroke-linecap="round" stroke-linejoin="round"/>
<path d="M339.9 373.68C339.9 373.68 327.84 380.86 325.79 384.2C323.74 387.54 310.66 423.7 309.63 428.57C308.6 433.44 314.2 438.57 322.97 426.26C329.38 417.26 341.7 386.76 343.23 381.89C344.76 377.02 340.41 371.37 339.9 373.68Z" fill="#9E9E9E" stroke="#263238" stroke-linecap="round" stroke-linejoin="round"/>
<path d="M407.71 188.69L339.39 375.99" stroke="#263238" stroke-width="3" stroke-linecap="round" stroke-linejoin="round"/>
<path d="M376.67 292.39C376.67 292.39 373.34 286.55 371.39 285.71C369.44 284.87 357.32 288.44 357.32 288.44L320.76 281.56L328 268.68L314.14 258C309.49 268.78 303.14 291.55 304.26 292.49C305.93 293.88 356.93 295.74 356.93 295.74C356.93 295.74 367.77 300.19 368.93 300.19C369.876 300.257 370.81 300.442 371.71 300.74C373.07 301.16 371.81 302.02 371.87 302.54C371.87 302.47 373.61 302.21 373.66 302.13C375 299.62 376.67 292.39 376.67 292.39Z" fill="white" stroke="#263238" stroke-linecap="round" stroke-linejoin="round"/>
<path d="M392.43 217.28L389.31 218.17C388.894 219.637 388.56 221.126 388.31 222.63C388.315 222.811 388.36 222.989 388.441 223.152C388.522 223.314 388.638 223.457 388.779 223.57C388.921 223.683 389.086 223.764 389.262 223.808C389.438 223.851 389.622 223.855 389.8 223.82C390.5 223.67 392.43 217.28 392.43 217.28Z" stroke="#263238" stroke-linecap="round" stroke-linejoin="round"/>
<path d="M395.71 238.1C395.71 238.1 395.11 271.56 395.41 273.5C395.71 275.44 399.57 280.93 401.8 282.12C402.184 282.31 402.596 282.438 403.02 282.5C403.89 282.626 404.777 282.566 405.622 282.325C406.467 282.083 407.252 281.665 407.923 281.098C408.595 280.531 409.139 279.828 409.52 279.036C409.9 278.243 410.108 277.379 410.13 276.5C410.28 272.77 410.33 268.26 409.84 266.93C408.94 264.55 400.61 234.21 400.61 234.21C400.61 234.21 400.61 219.21 399.87 218.74C399.13 218.27 393.33 216.22 392.43 217.26C391.837 218.198 391.492 219.272 391.43 220.38L388.43 229.6C388.662 230.658 389.064 231.671 389.62 232.6C389.833 232.853 390.112 233.043 390.427 233.147C390.741 233.251 391.078 233.266 391.4 233.19L392.89 233.04C392.89 233.04 393.48 237.36 395.71 238.1Z" fill="white" stroke="#263238" stroke-linecap="round" stroke-linejoin="round"/>
</g>
<defs>
<clipPath id="clip0_164_93">
<rect width="696" height="470" fill="white"/>
</clipPath>
</defs>
</svg>
