<svg width="457" height="443" viewBox="0 0 457 443" fill="none" xmlns="http://www.w3.org/2000/svg">
<g clip-path="url(#clip0_164_2)">
<path d="M298.14 143.62L298.8 147.57L303.2 147.96L304.52 144.22C305.963 144.09 307.384 143.781 308.75 143.3L311.53 146.12L315.35 143.91L314.3 140.11C315.406 139.169 316.39 138.094 317.23 136.91L321.11 137.63L322.98 133.63L319.93 131.12C320.292 129.715 320.477 128.271 320.48 126.82L324.1 125.18L323.33 120.83L319.33 120.52C318.822 119.182 318.15 117.912 317.33 116.74L319.39 113.26L316.27 110.14L312.77 112.22C310.752 110.858 308.475 109.928 306.08 109.49L305.08 105.49H300.66L299.66 109.49C298.28 109.745 296.937 110.168 295.66 110.75L292.51 108.02L288.89 110.55L290.38 114.45C289.407 115.441 288.558 116.546 287.85 117.74L283.69 117.31L282.18 121.46L285.62 123.79C285.459 124.758 285.378 125.738 285.38 126.72C285.38 127.14 285.38 127.55 285.38 127.96L281.77 129.96L282.91 134.22L287 134.17C287.608 135.444 288.363 136.642 289.25 137.74L287.48 141.42L290.86 144.25L294.2 142M312.54 121.38C313.724 123.486 314.181 125.923 313.842 128.314C313.503 130.706 312.386 132.919 310.664 134.613C308.941 136.307 306.709 137.386 304.312 137.685C301.915 137.984 299.487 137.486 297.401 136.267C295.315 135.048 293.689 133.177 292.773 130.942C291.857 128.707 291.702 126.232 292.332 123.9C292.962 121.568 294.342 119.509 296.26 118.039C298.177 116.57 300.524 115.772 302.94 115.77C303.469 115.769 303.997 115.809 304.52 115.89M308.25 117.13C309.096 117.598 309.876 118.176 310.57 118.85Z" fill="white"/>
<path d="M308.56 368.86L309.22 372.81L313.62 373.2L314.94 369.46C316.383 369.33 317.804 369.021 319.17 368.54L321.95 371.36L325.77 369.15L324.77 365.35C325.876 364.409 326.86 363.334 327.7 362.15L331.58 362.87L333.45 358.87L330.45 356.36C330.812 354.955 330.997 353.511 331 352.06L334.62 350.42L333.85 346.07L329.85 345.76C329.346 344.42 328.674 343.15 327.85 341.98L329.91 338.5L326.79 335.38L323.29 337.46C321.272 336.098 318.995 335.168 316.6 334.73L315.6 330.73H311.18L310.18 334.73C308.8 334.985 307.457 335.408 306.18 335.99L303 333.29L299.38 335.82L300.87 339.72C299.897 340.711 299.048 341.815 298.34 343.01L294.18 342.58L292.67 346.73L296.11 349.06C295.949 350.028 295.868 351.008 295.87 351.99C295.87 352.41 295.87 352.82 295.87 353.23L292.26 355.23L293.4 359.49L297.49 359.44C298.098 360.714 298.853 361.912 299.74 363.01L298 366.71L301.38 369.54L304.66 367.2M323 346.58C324.184 348.686 324.641 351.122 324.302 353.514C323.963 355.906 322.846 358.119 321.124 359.813C319.401 361.507 317.169 362.586 314.772 362.885C312.375 363.184 309.947 362.686 307.861 361.467C305.775 360.248 304.149 358.377 303.233 356.142C302.317 353.907 302.162 351.432 302.792 349.1C303.422 346.768 304.802 344.709 306.72 343.239C308.637 341.77 310.984 340.972 313.4 340.97C313.929 340.969 314.457 341.009 314.98 341.09M318.71 342.33C319.556 342.798 320.336 343.376 321.03 344.05Z" fill="white"/>
<path d="M330 96.24L330.58 97.76C330.29 98.05 330.01 98.36 329.74 98.67M328.27 100.67C328.19 100.79 328.12 100.91 328.05 101.03L323.89 100.61L322.38 104.75L325.82 107.08C325.656 108.048 325.572 109.028 325.57 110.01C325.57 110.43 325.57 110.84 325.57 111.25L321.95 113.25L323.1 117.51H327.19C327.792 118.79 328.547 119.993 329.44 121.09L327.67 124.76L331.05 127.6L334.33 125.25C335.571 125.965 336.894 126.526 338.27 126.92L338.93 130.87L343.32 131.25L344.65 127.51C346.092 127.384 347.513 127.078 348.88 126.6L351.65 129.41L355.47 127.21L354.47 123.41C355.574 122.467 356.557 121.392 357.4 120.21L361.28 120.92L363.15 116.92L360.1 114.4C360.457 112.998 360.642 111.557 360.65 110.11L364.27 108.46L363.5 104.12L359.5 103.81C358.99 102.47 358.319 101.197 357.5 100.02L359.56 96.55L356.44 93.43L352.94 95.51C350.927 94.1396 348.647 93.2093 346.25 92.78L345.25 88.78H340.84L339.84 92.78C338.461 93.0398 337.119 93.4628 335.84 94.04L332.68 91.31L329.07 93.84L329.53 95.04M353.88 112.28C353.731 113.005 353.506 113.712 353.21 114.39ZM352.38 115.94C350.959 118.173 348.78 119.819 346.244 120.575C343.708 121.332 340.983 121.148 338.571 120.058C336.159 118.969 334.221 117.046 333.112 114.643C332.003 112.239 331.798 109.517 332.534 106.974C333.27 104.432 334.898 102.24 337.12 100.801C339.341 99.3625 342.007 98.7728 344.628 99.1406C347.249 99.5083 349.65 100.809 351.39 102.803C353.13 104.798 354.092 107.353 354.1 110C354.1 110.267 354.1 110.537 354.1 110.81" fill="white"/>
<path d="M66.23 232.29L62.92 239.16L69.24 244.46L75.36 240.07C77.6811 241.412 80.1602 242.46 82.74 243.19L83.96 250.57L92.18 251.29L94.65 244.29C97.3482 244.049 100.006 243.472 102.56 242.57L107.74 247.84L114.88 243.72L112.88 236.62C114.949 234.853 116.793 232.838 118.37 230.62L125.62 231.95L129.11 224.48L123.42 219.78C124.083 217.165 124.419 214.478 124.42 211.78L131.18 208.7L129.75 200.58L122.29 200C121.336 197.501 120.084 195.128 118.56 192.93L122.4 186.43L116.57 180.6L110.02 184.49C106.258 181.931 101.999 180.193 97.52 179.39L95.63 171.91H87.38L85.48 179.43C82.9249 179.919 80.4372 180.711 78.07 181.79L72.17 176.69L65.42 181.42L68.2 188.71C66.3864 190.563 64.7987 192.624 63.47 194.85L55.7 194.05L52.88 201.8L59.31 206.16C59.0044 207.971 58.8506 209.804 58.85 211.64C58.85 212.42 58.88 213.19 58.94 213.95L52.17 217.73L54.31 225.73L61.96 225.64C62.8057 227.442 63.8096 229.165 64.96 230.79M84.7 192.27C85.5984 191.955 86.5172 191.701 87.45 191.51ZM92.53 191.11C97.5677 191.342 102.344 193.417 105.953 196.941C109.561 200.464 111.749 205.19 112.102 210.221C112.454 215.251 110.946 220.236 107.864 224.228C104.783 228.22 100.342 230.941 95.3859 231.873C90.4298 232.806 85.3038 231.885 80.9819 229.287C76.66 226.688 73.4433 222.592 71.9431 217.777C70.443 212.963 70.7638 207.764 72.8446 203.171C74.9254 198.577 78.6213 194.908 83.23 192.86" fill="white"/>
<path d="M171.88 210.09L163.7 204.81" stroke="#263238" stroke-width="3" stroke-linecap="round" stroke-linejoin="round"/>
<path d="M186.09 194.21L183.97 192.44" stroke="#263238" stroke-width="3" stroke-linecap="round" stroke-linejoin="round"/>
<path d="M162.21 240.77L145.28 236.53" stroke="#263238" stroke-width="3" stroke-linecap="round" stroke-linejoin="round"/>
<path d="M253.71 344.83C253.585 344.829 253.461 344.812 253.34 344.78C252.95 344.678 252.616 344.427 252.41 344.08C251.89 343.17 251.61 342.68 255.83 337.84C246.73 343.41 245.76 343.18 245.23 343.05C244.815 342.927 244.459 342.657 244.23 342.29C243.39 340.84 243.23 340.55 260.07 326.77C257.37 328.52 254.56 330.4 252.07 332.06C237.25 341.95 232.64 344.76 230.6 344.29C230.353 344.234 230.12 344.127 229.915 343.978C229.71 343.828 229.539 343.638 229.41 343.42C228.51 341.86 228.51 341.86 248.41 327.48L252.35 324.64C250.05 326.17 247.76 327.73 245.66 329.16C230 339.81 222.87 344.41 220.2 343.81C219.921 343.747 219.659 343.625 219.432 343.453C219.204 343.28 219.016 343.061 218.88 342.81C217.88 341.12 217.68 340.74 246.62 321.08L208.56 343.08C208.221 343.269 207.822 343.317 207.448 343.214C207.073 343.111 206.755 342.865 206.56 342.53C205.89 341.37 206.41 339.95 209.16 337.53C204.78 340.05 202.24 341.06 200.99 340.77C200.73 340.71 200.484 340.599 200.268 340.442C200.052 340.286 199.869 340.088 199.73 339.86C198.9 338.42 199.22 337.09 209.81 329.97C198.89 336.8 194.86 338.81 193.29 338.44C193.057 338.385 192.837 338.283 192.644 338.141C192.452 337.998 192.29 337.817 192.17 337.61C191.44 336.36 192.12 335.91 194.63 334.25L200.16 330.64L208.62 325.17C199.3 330.01 197.9 329.68 197.12 329.49C196.857 329.43 196.609 329.318 196.391 329.16C196.173 329.001 195.989 328.801 195.85 328.57C195.666 328.231 195.619 327.834 195.719 327.462C195.82 327.089 196.06 326.77 196.39 326.57C225.74 309.17 271.05 281.26 281.97 272.03C271.08 276.98 238.52 297.2 219.97 308.75C196.08 323.6 195.97 323.57 194.97 323.31C194.763 323.264 194.568 323.176 194.396 323.052C194.225 322.928 194.08 322.771 193.97 322.59C193.16 321.19 193.2 320.29 202.76 314.37C198.36 316.44 195.46 317.37 194.18 317.07C193.9 317.004 193.636 316.882 193.406 316.71C193.175 316.538 192.982 316.32 192.84 316.07C192.649 315.738 192.593 315.344 192.684 314.972C192.775 314.599 193.007 314.276 193.33 314.07C222.95 295.2 264.62 268.48 281.62 257.19C276.89 259.6 270.54 263.19 263.48 267.42C257.77 271.09 251 275.36 242.99 280.34C232.41 286.93 221.71 293.46 212.8 298.86C191.28 312.44 191.02 312.38 189.97 312.12C189.763 312.07 189.569 311.98 189.397 311.855C189.225 311.73 189.08 311.572 188.97 311.39C188.786 311.051 188.739 310.654 188.839 310.282C188.94 309.909 189.18 309.59 189.51 309.39C195.99 305.54 203.14 301.25 210.56 296.75L214.46 294.29C198.92 303.18 190.33 307.07 187.8 306.45C187.507 306.393 187.23 306.274 186.987 306.102C186.744 305.929 186.541 305.707 186.39 305.45C185.46 303.85 186.78 301.81 197.74 294.65C190.67 298.96 187.87 300.24 186.68 299.95C186.453 299.899 186.239 299.801 186.052 299.664C185.864 299.526 185.707 299.351 185.59 299.15C184.96 298.06 184.45 297.15 191.77 291.84C187.83 293.84 185.34 294.65 184.15 294.36C183.88 294.301 183.625 294.188 183.402 294.026C183.178 293.864 182.99 293.658 182.85 293.42C182.749 293.248 182.684 293.058 182.659 292.86C182.633 292.663 182.647 292.462 182.7 292.27C182.805 291.887 183.057 291.56 183.4 291.36C215.85 272.91 264.99 243.69 279.95 231.9C263.54 240.96 218.3 267.52 186.73 286.24C186.559 286.34 186.371 286.406 186.175 286.434C185.979 286.461 185.779 286.449 185.588 286.399C185.396 286.349 185.216 286.261 185.059 286.141C184.901 286.021 184.769 285.871 184.67 285.7C184.517 285.425 184.421 285.122 184.388 284.809C184.355 284.497 184.387 284.18 184.48 283.88C185.037 282.612 185.879 281.489 186.94 280.6C184.61 281.55 183.05 281.9 182.16 281.68C181.883 281.612 181.623 281.489 181.396 281.317C181.169 281.145 180.98 280.928 180.84 280.68C179.94 279.13 181.66 277.93 184.26 276.12C186.26 274.77 189.09 272.9 193.05 270.42C200.44 265.8 210.58 259.68 221.32 253.21C233.39 245.93 247.73 237.28 259.12 230.12C234.75 244.12 196.37 266.54 177.94 277.32C177.591 277.518 177.178 277.572 176.79 277.47C176.599 277.42 176.421 277.332 176.264 277.212C176.108 277.092 175.977 276.941 175.88 276.77C175.11 275.43 174.88 275.04 188.13 266.7C182.94 269.55 179.66 270.78 177.99 270.39C177.675 270.324 177.377 270.193 177.115 270.006C176.853 269.818 176.633 269.578 176.47 269.3C175.47 267.58 175.47 267.58 199.53 253.61C210.66 247.15 223.94 239.43 236.16 232.01C246.42 225.19 254.45 220.01 260.54 216.41C263.734 214.285 266.766 211.925 269.61 209.35C257.12 214.96 207.8 244.78 176.61 264.18C176.273 264.392 175.866 264.462 175.478 264.374C175.089 264.285 174.752 264.047 174.54 263.71C174.328 263.373 174.258 262.966 174.346 262.578C174.434 262.189 174.673 261.852 175.01 261.64L184.69 255.48C176.69 259.59 173.69 260.28 172.46 259.97C172.181 259.905 171.919 259.782 171.69 259.61C171.461 259.438 171.27 259.22 171.13 258.97C170.936 258.638 170.879 258.244 170.97 257.871C171.062 257.497 171.295 257.174 171.62 256.97L192.93 243.31C175.51 253.15 174.1 252.8 173.24 252.58C173.011 252.527 172.796 252.427 172.607 252.288C172.418 252.149 172.259 251.973 172.14 251.77C171.953 251.435 171.901 251.04 171.996 250.668C172.091 250.296 172.325 249.975 172.65 249.77C195.11 235.88 227.02 215.77 245.65 203.16C230.6 211.83 208.65 224.71 193.21 233.79L176 243.79C172.18 246.02 170.33 247.11 169.34 247.61L169.08 247.77C168.39 248.1 168.22 248.05 167.93 247.97C167.648 247.895 167.394 247.738 167.199 247.521C167.004 247.303 166.877 247.033 166.834 246.744C166.79 246.455 166.832 246.16 166.954 245.895C167.076 245.629 167.273 245.405 167.52 245.25C191.34 230.52 226.52 208.32 242.28 197.4C233.89 202.26 221.36 210.25 211.28 216.7C183.02 234.7 174.43 239.88 171.94 239.26C171.703 239.204 171.48 239.1 171.284 238.956C171.089 238.812 170.924 238.629 170.8 238.42C170.18 237.33 169.73 236.56 179.12 229.79C176.56 230.92 174.83 231.35 173.82 231.11C173.534 231.045 173.265 230.923 173.028 230.751C172.791 230.579 172.591 230.361 172.44 230.11C172.254 229.775 172.203 229.383 172.296 229.011C172.388 228.64 172.619 228.318 172.94 228.11C191.39 216.5 219.43 198.3 229.07 190.77C220.63 194.9 202.21 206.77 191.37 213.71C173.66 225 173 225.28 171.87 225C171.663 224.952 171.467 224.862 171.296 224.737C171.124 224.612 170.979 224.453 170.87 224.27C170.07 222.9 169.37 221.68 186.71 209.76C184.57 211.12 182.38 212.53 180.14 213.97C179.955 214.12 179.738 214.226 179.506 214.279C179.274 214.333 179.032 214.333 178.8 214.28C178.603 214.233 178.418 214.145 178.256 214.023C178.094 213.901 177.959 213.747 177.86 213.57C176.79 211.72 178.33 210.13 190.5 200.8C190.277 200.753 190.066 200.659 189.882 200.524C189.697 200.39 189.543 200.218 189.43 200.02C189.245 199.675 189.2 199.272 189.307 198.895C189.413 198.518 189.662 198.197 190 198C190.281 197.846 190.601 197.78 190.92 197.81C192.502 196.892 194.034 195.89 195.51 194.81C200.39 191.38 201.77 190.56 202.96 190.81C203.192 190.861 203.412 190.959 203.604 191.098C203.797 191.238 203.959 191.415 204.08 191.62C204.94 193.12 204.27 194.02 196.08 200.36C198.36 198.95 200.71 197.49 203.08 196.05C226.2 181.91 227.99 182.33 229.08 182.59C229.32 182.641 229.546 182.743 229.744 182.888C229.942 183.032 230.108 183.217 230.23 183.43C230.418 183.764 230.471 184.157 230.378 184.529C230.285 184.901 230.053 185.224 229.73 185.43C218.45 192.43 206.73 200.01 196.9 206.56C219.72 191.99 230.69 185.56 233.78 186.34C234.048 186.4 234.301 186.514 234.523 186.676C234.745 186.837 234.931 187.043 235.07 187.28C236.02 188.93 236.71 190.13 205.14 210.91L200.6 213.91C206.96 209.91 213.4 205.71 218.6 202.31C238.85 189.17 242.13 187.24 243.66 187.6C243.87 187.655 244.066 187.751 244.238 187.884C244.41 188.016 244.553 188.181 244.66 188.37C244.851 188.702 244.907 189.096 244.816 189.468C244.725 189.841 244.493 190.164 244.17 190.37C224.59 202.85 195.99 221.48 181.85 231.49C189.45 227.01 200.22 220.14 209.6 214.16C239.33 195.16 249.03 189.41 251.77 190.07C252.015 190.129 252.246 190.236 252.448 190.385C252.651 190.535 252.822 190.723 252.95 190.94C253.68 192.21 254.21 193.11 236.82 204.72C261.19 190.58 261.66 190.72 262.43 190.9C262.626 190.95 262.81 191.039 262.971 191.161C263.132 191.283 263.268 191.435 263.37 191.61C264.37 193.34 265.08 194.61 219.1 223.99C215.76 226.13 212.41 228.26 209.1 230.34C227.3 219.58 248.99 206.34 265.42 196.08C265.592 195.975 265.783 195.905 265.982 195.874C266.181 195.843 266.384 195.852 266.58 195.9C266.973 196 267.311 196.252 267.52 196.6C268.23 197.84 267.18 198.6 266.07 199.36C265.39 199.83 264.39 200.51 263.07 201.36C260.65 202.97 257.07 205.36 252.45 208.36C244.67 213.43 233.8 220.46 220.14 229.26C206.98 237.73 193.72 246.26 184.63 252.07C196.64 245.72 220 232 265 203.25C271.48 199.12 271.48 199.12 272.14 199.25C272.338 199.299 272.524 199.386 272.687 199.508C272.85 199.63 272.987 199.784 273.09 199.96C273.46 200.6 273.67 200.96 272.47 202.03C270.87 203.43 266.89 206.03 257.81 211.93C270.67 204.88 271.87 205.17 272.65 205.37C272.877 205.421 273.091 205.519 273.279 205.656C273.466 205.794 273.623 205.969 273.74 206.17C274.28 207.11 274.41 208.24 272.41 210.48C273.199 210.234 274.034 210.172 274.85 210.3C275.176 210.368 275.485 210.504 275.755 210.698C276.025 210.893 276.252 211.142 276.42 211.43C277.42 213.15 277.92 214.03 248.21 232.77C279.67 214.55 279.98 214.63 280.73 214.83C280.922 214.879 281.103 214.966 281.261 215.086C281.419 215.207 281.551 215.357 281.65 215.53C282.65 217.19 280.85 218.86 276.55 222C273.78 224 269.87 226.64 264.63 230C282.1 219.09 286.48 216.83 288.04 217.21C288.261 217.264 288.468 217.361 288.65 217.497C288.833 217.633 288.985 217.804 289.1 218C289.2 218.17 289.265 218.359 289.291 218.555C289.317 218.751 289.303 218.95 289.25 219.14C289.199 219.333 289.11 219.514 288.988 219.672C288.866 219.83 288.714 219.962 288.54 220.06C278.34 225.84 267.97 231.82 257.95 237.72L247.57 244.28C227.16 257.2 212.27 266.49 201.82 272.57C198.51 274.84 195.68 276.86 193.41 278.57C202.71 273.07 218.55 263.72 234.41 254.47C284.41 225.21 285.17 225.42 286.12 225.67C286.316 225.72 286.5 225.809 286.661 225.931C286.822 226.053 286.958 226.205 287.06 226.38C287.205 226.636 287.296 226.918 287.329 227.211C287.361 227.503 287.335 227.798 287.25 228.08C286.955 229.048 286.39 229.912 285.62 230.57C289.05 228.86 291.2 228.16 292.26 228.41C292.518 228.469 292.761 228.58 292.974 228.737C293.187 228.893 293.366 229.092 293.5 229.32C294.3 230.7 293.18 231.45 290.71 233.09C289.22 234.09 287.02 235.48 283.97 237.38L283.38 237.75C288.04 235.52 291.31 234.47 292.95 234.87C293.285 234.939 293.602 235.077 293.881 235.275C294.16 235.473 294.394 235.727 294.57 236.02C295.95 238.41 294.57 239.93 245.78 268.79C225.29 281 198.22 297 190.84 303C194.91 301.57 205.05 296.67 230.25 281.42C250.79 268.99 273.41 254.48 284.25 247.51C291.78 242.68 291.77 242.69 292.44 242.85C292.838 242.951 293.18 243.207 293.39 243.56C294 244.62 294.62 245.69 286.39 251.82C287.552 251.295 288.829 251.074 290.1 251.18C290.38 251.246 290.643 251.369 290.874 251.541C291.104 251.713 291.297 251.93 291.44 252.18C292.32 253.71 292.32 253.71 276.14 264.31C268.14 269.53 257.04 276.74 243.04 285.74C229.54 294.42 215.93 303.13 206.61 309.08C225.49 298.96 260.87 276.52 276.61 266.54C290.61 257.69 290.61 257.69 291.37 257.88C291.566 257.93 291.75 258.019 291.911 258.141C292.072 258.263 292.208 258.415 292.31 258.59C293.38 260.45 291.68 263.09 285.1 267.98C285.292 267.953 285.488 267.953 285.68 267.98C285.925 268.039 286.156 268.146 286.358 268.295C286.561 268.445 286.732 268.633 286.86 268.85C287.91 270.67 289.1 272.73 244.72 300.52C257.48 292.66 270.72 284.3 281.41 277.37C281.581 277.258 281.773 277.183 281.974 277.148C282.175 277.114 282.381 277.12 282.58 277.168C282.778 277.216 282.965 277.304 283.128 277.426C283.292 277.548 283.428 277.703 283.53 277.88C284.26 279.16 283.25 279.88 281.53 281.08C280.53 281.79 279.02 282.83 277.04 284.15C275.06 285.47 272.6 287.15 269.63 289.07C273.77 286.97 276.33 286.12 277.63 286.44C277.912 286.504 278.178 286.625 278.41 286.798C278.643 286.97 278.837 287.189 278.98 287.44C279.82 288.89 279.63 289.44 269.51 295.98C271.64 295.07 273.15 294.74 274.12 294.98C274.421 295.045 274.706 295.171 274.956 295.352C275.205 295.533 275.414 295.764 275.57 296.03C276.75 298.03 275.86 298.97 248.76 315.38C241 320.08 231.23 325.99 223.32 331.09L276.53 300.38C276.7 300.279 276.889 300.214 277.085 300.188C277.281 300.162 277.48 300.176 277.67 300.23C278.052 300.332 278.379 300.58 278.58 300.92C279.32 302.21 278.27 302.98 276.53 304.26C275.48 305.03 273.94 306.12 271.82 307.58C267.87 310.32 262.38 314.03 256.57 317.97C249.8 322.55 241.28 328.32 234.3 333.17C237.51 331.05 240.85 328.78 243.82 326.76C259.29 316.24 265.82 312.03 268.37 312.59C268.637 312.648 268.89 312.761 269.111 312.921C269.333 313.081 269.52 313.285 269.66 313.52C270.53 315.04 270.57 315.11 252.83 327.96C265.7 319.4 269.91 316.96 271.83 317.39C272.077 317.446 272.31 317.552 272.515 317.702C272.719 317.852 272.891 318.041 273.02 318.26C273.72 319.48 273.72 319.48 264.77 326.79C262.07 328.99 258.32 332.05 254.94 334.88C257.68 333.19 260.7 331.27 263.57 329.41C263.741 329.298 263.933 329.223 264.134 329.188C264.335 329.154 264.541 329.16 264.74 329.208C264.938 329.256 265.125 329.344 265.288 329.466C265.452 329.588 265.588 329.743 265.69 329.92C266.25 330.92 266.04 331.12 263.99 333.32C262.32 335.11 260.89 336.68 259.68 338.02C268.76 332.61 269.09 332.7 269.73 332.86C269.924 332.91 270.107 332.999 270.267 333.121C270.426 333.243 270.56 333.396 270.66 333.57C270.76 333.74 270.825 333.929 270.851 334.124C270.878 334.32 270.865 334.519 270.814 334.71C270.763 334.901 270.674 335.079 270.553 335.236C270.432 335.392 270.282 335.522 270.11 335.62C269.965 335.707 269.806 335.768 269.64 335.8C268.31 336.4 260.92 340.75 254.41 344.69C254.191 344.79 253.951 344.838 253.71 344.83ZM268.14 335C268.299 335.268 268.536 335.481 268.82 335.61C268.539 335.477 268.302 335.265 268.14 335ZM231.22 319.73C222.58 325.12 214.08 330.52 208.54 334.37C214.57 330.78 223.33 325 231.22 319.73ZM268.41 293.1C258.6 298.54 242.73 308.76 230.67 316.55C235.11 313.78 240.17 310.65 245.92 307.11C253.84 302.24 262.37 297 268.41 293.1ZM267.77 300.1C262.44 302.94 254.35 308.1 246.46 313.25L247.29 312.75C254.66 308.27 262.66 303.42 267.77 300.08V300.1ZM218.6 277.64C212 281.77 206 285.66 201 289C206.18 285.69 212.32 281.72 218.6 277.64ZM289.79 238.31C286.89 239.31 280.74 242.11 267.73 249.92C254.72 257.73 239 268 225 277.1C218.89 281.1 213.75 284.4 209.41 287.18C217.83 282 229.14 275.23 244.25 266.29C262.64 255.38 283.2 243.22 289.79 238.31ZM280.4 267.65L278.28 269C271.28 273.447 264.65 277.63 258.39 281.55C266.74 276.53 274.63 271.62 280.4 267.65ZM214.08 261C204.91 266.54 196 272 190.08 275.73C193.08 274.2 196.69 272.15 200.77 269.73C204.78 267 209.27 264.05 214.08 261ZM237.56 234.58C233.72 237.14 229.94 239.68 226.4 242.05C219.4 246.77 213.18 250.89 207.79 254.43L213.3 251.03C233.55 238.55 262.79 220.51 271.39 213.97C268.209 215.392 265.126 217.022 262.16 218.85C258.74 221.24 254.39 224.11 248.88 227.59C245.29 229.84 241.48 232.18 237.56 234.56V234.58Z" fill="#8ED7C5"/>
<g opacity="0.4">
<path d="M253.71 344.83C253.585 344.829 253.461 344.812 253.34 344.78C252.95 344.678 252.616 344.427 252.41 344.08C251.89 343.17 251.61 342.68 255.83 337.84C246.73 343.41 245.76 343.18 245.23 343.05C244.815 342.927 244.459 342.657 244.23 342.29C243.39 340.84 243.23 340.55 260.07 326.77C257.37 328.52 254.56 330.4 252.07 332.06C237.25 341.95 232.64 344.76 230.6 344.29C230.353 344.234 230.12 344.127 229.915 343.978C229.71 343.828 229.539 343.638 229.41 343.42C228.51 341.86 228.51 341.86 248.41 327.48L252.35 324.64C250.05 326.17 247.76 327.73 245.66 329.16C230 339.81 222.87 344.41 220.2 343.81C219.921 343.747 219.659 343.625 219.432 343.453C219.204 343.28 219.016 343.061 218.88 342.81C217.88 341.12 217.68 340.74 246.62 321.08L208.56 343.08C208.221 343.269 207.822 343.317 207.448 343.214C207.073 343.111 206.755 342.865 206.56 342.53C205.89 341.37 206.41 339.95 209.16 337.53C204.78 340.05 202.24 341.06 200.99 340.77C200.73 340.71 200.484 340.599 200.268 340.442C200.052 340.286 199.869 340.088 199.73 339.86C198.9 338.42 199.22 337.09 209.81 329.97C198.89 336.8 194.86 338.81 193.29 338.44C193.057 338.385 192.837 338.283 192.644 338.141C192.452 337.998 192.29 337.817 192.17 337.61C191.44 336.36 192.12 335.91 194.63 334.25L200.16 330.64L208.62 325.17C199.3 330.01 197.9 329.68 197.12 329.49C196.857 329.43 196.609 329.318 196.391 329.16C196.173 329.001 195.989 328.801 195.85 328.57C195.666 328.231 195.619 327.834 195.719 327.462C195.82 327.089 196.06 326.77 196.39 326.57C225.74 309.17 271.05 281.26 281.97 272.03C271.08 276.98 238.52 297.2 219.97 308.75C196.08 323.6 195.97 323.57 194.97 323.31C194.763 323.264 194.568 323.176 194.396 323.052C194.225 322.928 194.08 322.771 193.97 322.59C193.16 321.19 193.2 320.29 202.76 314.37C198.36 316.44 195.46 317.37 194.18 317.07C193.9 317.004 193.636 316.882 193.406 316.71C193.175 316.538 192.982 316.32 192.84 316.07C192.649 315.738 192.593 315.344 192.684 314.972C192.775 314.599 193.007 314.276 193.33 314.07C222.95 295.2 264.62 268.48 281.62 257.19C276.89 259.6 270.54 263.19 263.48 267.42C257.77 271.09 251 275.36 242.99 280.34C232.41 286.93 221.71 293.46 212.8 298.86C191.28 312.44 191.02 312.38 189.97 312.12C189.763 312.07 189.569 311.98 189.397 311.855C189.225 311.73 189.08 311.572 188.97 311.39C188.786 311.051 188.739 310.654 188.839 310.282C188.94 309.909 189.18 309.59 189.51 309.39C195.99 305.54 203.14 301.25 210.56 296.75L214.46 294.29C198.92 303.18 190.33 307.07 187.8 306.45C187.507 306.393 187.23 306.274 186.987 306.102C186.744 305.929 186.541 305.707 186.39 305.45C185.46 303.85 186.78 301.81 197.74 294.65C190.67 298.96 187.87 300.24 186.68 299.95C186.453 299.899 186.239 299.801 186.052 299.664C185.864 299.526 185.707 299.351 185.59 299.15C184.96 298.06 184.45 297.15 191.77 291.84C187.83 293.84 185.34 294.65 184.15 294.36C183.88 294.301 183.625 294.188 183.402 294.026C183.178 293.864 182.99 293.658 182.85 293.42C182.749 293.248 182.684 293.058 182.659 292.86C182.633 292.663 182.647 292.462 182.7 292.27C182.805 291.887 183.057 291.56 183.4 291.36C215.85 272.91 264.99 243.69 279.95 231.9C263.54 240.96 218.3 267.52 186.73 286.24C186.559 286.34 186.371 286.406 186.175 286.434C185.979 286.461 185.779 286.449 185.588 286.399C185.396 286.349 185.216 286.261 185.059 286.141C184.901 286.021 184.769 285.871 184.67 285.7C184.517 285.425 184.421 285.122 184.388 284.809C184.355 284.497 184.387 284.18 184.48 283.88C185.037 282.612 185.879 281.489 186.94 280.6C184.61 281.55 183.05 281.9 182.16 281.68C181.883 281.612 181.623 281.489 181.396 281.317C181.169 281.145 180.98 280.928 180.84 280.68C179.94 279.13 181.66 277.93 184.26 276.12C186.26 274.77 189.09 272.9 193.05 270.42C200.44 265.8 210.58 259.68 221.32 253.21C233.39 245.93 247.73 237.28 259.12 230.12C234.75 244.12 196.37 266.54 177.94 277.32C177.591 277.518 177.178 277.572 176.79 277.47C176.599 277.42 176.421 277.332 176.264 277.212C176.108 277.092 175.977 276.941 175.88 276.77C175.11 275.43 174.88 275.04 188.13 266.7C182.94 269.55 179.66 270.78 177.99 270.39C177.675 270.324 177.377 270.193 177.115 270.006C176.853 269.818 176.633 269.578 176.47 269.3C175.47 267.58 175.47 267.58 199.53 253.61C210.66 247.15 223.94 239.43 236.16 232.01C246.42 225.19 254.45 220.01 260.54 216.41C263.734 214.285 266.766 211.925 269.61 209.35C257.12 214.96 207.8 244.78 176.61 264.18C176.273 264.392 175.866 264.462 175.478 264.374C175.089 264.285 174.752 264.047 174.54 263.71C174.328 263.373 174.258 262.966 174.346 262.578C174.434 262.189 174.673 261.852 175.01 261.64L184.69 255.48C176.69 259.59 173.69 260.28 172.46 259.97C172.181 259.905 171.919 259.782 171.69 259.61C171.461 259.438 171.27 259.22 171.13 258.97C170.936 258.638 170.879 258.244 170.97 257.871C171.062 257.497 171.295 257.174 171.62 256.97L192.93 243.31C175.51 253.15 174.1 252.8 173.24 252.58C173.011 252.527 172.796 252.427 172.607 252.288C172.418 252.149 172.259 251.973 172.14 251.77C171.953 251.435 171.901 251.04 171.996 250.668C172.091 250.296 172.325 249.975 172.65 249.77C195.11 235.88 227.02 215.77 245.65 203.16C230.6 211.83 208.65 224.71 193.21 233.79L176 243.79C172.18 246.02 170.33 247.11 169.34 247.61L169.08 247.77C168.39 248.1 168.22 248.05 167.93 247.97C167.648 247.895 167.394 247.738 167.199 247.521C167.004 247.303 166.877 247.033 166.834 246.744C166.79 246.455 166.832 246.16 166.954 245.895C167.076 245.629 167.273 245.405 167.52 245.25C191.34 230.52 226.52 208.32 242.28 197.4C233.89 202.26 221.36 210.25 211.28 216.7C183.02 234.7 174.43 239.88 171.94 239.26C171.703 239.204 171.48 239.1 171.284 238.956C171.089 238.812 170.924 238.629 170.8 238.42C170.18 237.33 169.73 236.56 179.12 229.79C176.56 230.92 174.83 231.35 173.82 231.11C173.534 231.045 173.265 230.923 173.028 230.751C172.791 230.579 172.591 230.361 172.44 230.11C172.254 229.775 172.203 229.383 172.296 229.011C172.388 228.64 172.619 228.318 172.94 228.11C191.39 216.5 219.43 198.3 229.07 190.77C220.63 194.9 202.21 206.77 191.37 213.71C173.66 225 173 225.28 171.87 225C171.663 224.952 171.467 224.862 171.296 224.737C171.124 224.612 170.979 224.453 170.87 224.27C170.07 222.9 169.37 221.68 186.71 209.76C184.57 211.12 182.38 212.53 180.14 213.97C179.955 214.12 179.738 214.226 179.506 214.279C179.274 214.333 179.032 214.333 178.8 214.28C178.603 214.233 178.418 214.145 178.256 214.023C178.094 213.901 177.959 213.747 177.86 213.57C176.79 211.72 178.33 210.13 190.5 200.8C190.277 200.753 190.066 200.659 189.882 200.524C189.697 200.39 189.543 200.218 189.43 200.02C189.245 199.675 189.2 199.272 189.307 198.895C189.413 198.518 189.662 198.197 190 198C190.281 197.846 190.601 197.78 190.92 197.81C192.502 196.892 194.034 195.89 195.51 194.81C200.39 191.38 201.77 190.56 202.96 190.81C203.192 190.861 203.412 190.959 203.604 191.098C203.797 191.238 203.959 191.415 204.08 191.62C204.94 193.12 204.27 194.02 196.08 200.36C198.36 198.95 200.71 197.49 203.08 196.05C226.2 181.91 227.99 182.33 229.08 182.59C229.32 182.641 229.546 182.743 229.744 182.888C229.942 183.032 230.108 183.217 230.23 183.43C230.418 183.764 230.471 184.157 230.378 184.529C230.285 184.901 230.053 185.224 229.73 185.43C218.45 192.43 206.73 200.01 196.9 206.56C219.72 191.99 230.69 185.56 233.78 186.34C234.048 186.4 234.301 186.514 234.523 186.676C234.745 186.837 234.931 187.043 235.07 187.28C236.02 188.93 236.71 190.13 205.14 210.91L200.6 213.91C206.96 209.91 213.4 205.71 218.6 202.31C238.85 189.17 242.13 187.24 243.66 187.6C243.87 187.655 244.066 187.751 244.238 187.884C244.41 188.016 244.553 188.181 244.66 188.37C244.851 188.702 244.907 189.096 244.816 189.468C244.725 189.841 244.493 190.164 244.17 190.37C224.59 202.85 195.99 221.48 181.85 231.49C189.45 227.01 200.22 220.14 209.6 214.16C239.33 195.16 249.03 189.41 251.77 190.07C252.015 190.129 252.246 190.236 252.448 190.385C252.651 190.535 252.822 190.723 252.95 190.94C253.68 192.21 254.21 193.11 236.82 204.72C261.19 190.58 261.66 190.72 262.43 190.9C262.626 190.95 262.81 191.039 262.971 191.161C263.132 191.283 263.268 191.435 263.37 191.61C264.37 193.34 265.08 194.61 219.1 223.99C215.76 226.13 212.41 228.26 209.1 230.34C227.3 219.58 248.99 206.34 265.42 196.08C265.592 195.975 265.783 195.905 265.982 195.874C266.181 195.843 266.384 195.852 266.58 195.9C266.973 196 267.311 196.252 267.52 196.6C268.23 197.84 267.18 198.6 266.07 199.36C265.39 199.83 264.39 200.51 263.07 201.36C260.65 202.97 257.07 205.36 252.45 208.36C244.67 213.43 233.8 220.46 220.14 229.26C206.98 237.73 193.72 246.26 184.63 252.07C196.64 245.72 220 232 265 203.25C271.48 199.12 271.48 199.12 272.14 199.25C272.338 199.299 272.524 199.386 272.687 199.508C272.85 199.63 272.987 199.784 273.09 199.96C273.46 200.6 273.67 200.96 272.47 202.03C270.87 203.43 266.89 206.03 257.81 211.93C270.67 204.88 271.87 205.17 272.65 205.37C272.877 205.421 273.091 205.519 273.279 205.656C273.466 205.794 273.623 205.969 273.74 206.17C274.28 207.11 274.41 208.24 272.41 210.48C273.199 210.234 274.034 210.172 274.85 210.3C275.176 210.368 275.485 210.504 275.755 210.698C276.025 210.893 276.252 211.142 276.42 211.43C277.42 213.15 277.92 214.03 248.21 232.77C279.67 214.55 279.98 214.63 280.73 214.83C280.922 214.879 281.103 214.966 281.261 215.086C281.419 215.207 281.551 215.357 281.65 215.53C282.65 217.19 280.85 218.86 276.55 222C273.78 224 269.87 226.64 264.63 230C282.1 219.09 286.48 216.83 288.04 217.21C288.261 217.264 288.468 217.361 288.65 217.497C288.833 217.633 288.985 217.804 289.1 218C289.2 218.17 289.265 218.359 289.291 218.555C289.317 218.751 289.303 218.95 289.25 219.14C289.199 219.333 289.11 219.514 288.988 219.672C288.866 219.83 288.714 219.962 288.54 220.06C278.34 225.84 267.97 231.82 257.95 237.72L247.57 244.28C227.16 257.2 212.27 266.49 201.82 272.57C198.51 274.84 195.68 276.86 193.41 278.57C202.71 273.07 218.55 263.72 234.41 254.47C284.41 225.21 285.17 225.42 286.12 225.67C286.316 225.72 286.5 225.809 286.661 225.931C286.822 226.053 286.958 226.205 287.06 226.38C287.205 226.636 287.296 226.918 287.329 227.211C287.361 227.503 287.335 227.798 287.25 228.08C286.955 229.048 286.39 229.912 285.62 230.57C289.05 228.86 291.2 228.16 292.26 228.41C292.518 228.469 292.761 228.58 292.974 228.737C293.187 228.893 293.366 229.092 293.5 229.32C294.3 230.7 293.18 231.45 290.71 233.09C289.22 234.09 287.02 235.48 283.97 237.38L283.38 237.75C288.04 235.52 291.31 234.47 292.95 234.87C293.285 234.939 293.602 235.077 293.881 235.275C294.16 235.473 294.394 235.727 294.57 236.02C295.95 238.41 294.57 239.93 245.78 268.79C225.29 281 198.22 297 190.84 303C194.91 301.57 205.05 296.67 230.25 281.42C250.79 268.99 273.41 254.48 284.25 247.51C291.78 242.68 291.77 242.69 292.44 242.85C292.838 242.951 293.18 243.207 293.39 243.56C294 244.62 294.62 245.69 286.39 251.82C287.552 251.295 288.829 251.074 290.1 251.18C290.38 251.246 290.643 251.369 290.874 251.541C291.104 251.713 291.297 251.93 291.44 252.18C292.32 253.71 292.32 253.71 276.14 264.31C268.14 269.53 257.04 276.74 243.04 285.74C229.54 294.42 215.93 303.13 206.61 309.08C225.49 298.96 260.87 276.52 276.61 266.54C290.61 257.69 290.61 257.69 291.37 257.88C291.566 257.93 291.75 258.019 291.911 258.141C292.072 258.263 292.208 258.415 292.31 258.59C293.38 260.45 291.68 263.09 285.1 267.98C285.292 267.953 285.488 267.953 285.68 267.98C285.925 268.039 286.156 268.146 286.358 268.295C286.561 268.445 286.732 268.633 286.86 268.85C287.91 270.67 289.1 272.73 244.72 300.52C257.48 292.66 270.72 284.3 281.41 277.37C281.581 277.258 281.773 277.183 281.974 277.148C282.175 277.114 282.381 277.12 282.58 277.168C282.778 277.216 282.965 277.304 283.128 277.426C283.292 277.548 283.428 277.703 283.53 277.88C284.26 279.16 283.25 279.88 281.53 281.08C280.53 281.79 279.02 282.83 277.04 284.15C275.06 285.47 272.6 287.15 269.63 289.07C273.77 286.97 276.33 286.12 277.63 286.44C277.912 286.504 278.178 286.625 278.41 286.798C278.643 286.97 278.837 287.189 278.98 287.44C279.82 288.89 279.63 289.44 269.51 295.98C271.64 295.07 273.15 294.74 274.12 294.98C274.421 295.045 274.706 295.171 274.956 295.352C275.205 295.533 275.414 295.764 275.57 296.03C276.75 298.03 275.86 298.97 248.76 315.38C241 320.08 231.23 325.99 223.32 331.09L276.53 300.38C276.7 300.279 276.889 300.214 277.085 300.188C277.281 300.162 277.48 300.176 277.67 300.23C278.052 300.332 278.379 300.58 278.58 300.92C279.32 302.21 278.27 302.98 276.53 304.26C275.48 305.03 273.94 306.12 271.82 307.58C267.87 310.32 262.38 314.03 256.57 317.97C249.8 322.55 241.28 328.32 234.3 333.17C237.51 331.05 240.85 328.78 243.82 326.76C259.29 316.24 265.82 312.03 268.37 312.59C268.637 312.648 268.89 312.761 269.111 312.921C269.333 313.081 269.52 313.285 269.66 313.52C270.53 315.04 270.57 315.11 252.83 327.96C265.7 319.4 269.91 316.96 271.83 317.39C272.077 317.446 272.31 317.552 272.515 317.702C272.719 317.852 272.891 318.041 273.02 318.26C273.72 319.48 273.72 319.48 264.77 326.79C262.07 328.99 258.32 332.05 254.94 334.88C257.68 333.19 260.7 331.27 263.57 329.41C263.741 329.298 263.933 329.223 264.134 329.188C264.335 329.154 264.541 329.16 264.74 329.208C264.938 329.256 265.125 329.344 265.288 329.466C265.452 329.588 265.588 329.743 265.69 329.92C266.25 330.92 266.04 331.12 263.99 333.32C262.32 335.11 260.89 336.68 259.68 338.02C268.76 332.61 269.09 332.7 269.73 332.86C269.924 332.91 270.107 332.999 270.267 333.121C270.426 333.243 270.56 333.396 270.66 333.57C270.76 333.74 270.825 333.929 270.851 334.124C270.878 334.32 270.865 334.519 270.814 334.71C270.763 334.901 270.674 335.079 270.553 335.236C270.432 335.392 270.282 335.522 270.11 335.62C269.965 335.707 269.806 335.768 269.64 335.8C268.31 336.4 260.92 340.75 254.41 344.69C254.191 344.79 253.951 344.838 253.71 344.83ZM268.14 335C268.299 335.268 268.536 335.481 268.82 335.61C268.539 335.477 268.302 335.265 268.14 335ZM231.22 319.73C222.58 325.12 214.08 330.52 208.54 334.37C214.57 330.78 223.33 325 231.22 319.73ZM268.41 293.1C258.6 298.54 242.73 308.76 230.67 316.55C235.11 313.78 240.17 310.65 245.92 307.11C253.84 302.24 262.37 297 268.41 293.1ZM267.77 300.1C262.44 302.94 254.35 308.1 246.46 313.25L247.29 312.75C254.66 308.27 262.66 303.42 267.77 300.08V300.1ZM218.6 277.64C212 281.77 206 285.66 201 289C206.18 285.69 212.32 281.72 218.6 277.64ZM289.79 238.31C286.89 239.31 280.74 242.11 267.73 249.92C254.72 257.73 239 268 225 277.1C218.89 281.1 213.75 284.4 209.41 287.18C217.83 282 229.14 275.23 244.25 266.29C262.64 255.38 283.2 243.22 289.79 238.31ZM280.4 267.65L278.28 269C271.28 273.447 264.65 277.63 258.39 281.55C266.74 276.53 274.63 271.62 280.4 267.65ZM214.08 261C204.91 266.54 196 272 190.08 275.73C193.08 274.2 196.69 272.15 200.77 269.73C204.78 267 209.27 264.05 214.08 261ZM237.56 234.58C233.72 237.14 229.94 239.68 226.4 242.05C219.4 246.77 213.18 250.89 207.79 254.43L213.3 251.03C233.55 238.55 262.79 220.51 271.39 213.97C268.209 215.392 265.126 217.022 262.16 218.85C258.74 221.24 254.39 224.11 248.88 227.59C245.29 229.84 241.48 232.18 237.56 234.56V234.58Z" fill="white"/>
</g>
<path d="M232.47 184.55H231.8C195.54 185.22 168.21 212.96 168.21 247.09C168.194 257.282 170.68 267.323 175.45 276.33C177.45 281.08 182.29 292.71 187.08 307.75C191.52 321.63 193.84 335.6 193.84 337.75C193.84 337.95 193.84 338.16 193.84 338.39C193.82 339.018 193.926 339.643 194.152 340.228C194.378 340.814 194.72 341.349 195.156 341.8C195.592 342.251 196.115 342.611 196.693 342.856C197.271 343.102 197.892 343.229 198.52 343.23H263.46C264.088 343.229 264.709 343.102 265.287 342.856C265.865 342.611 266.388 342.251 266.824 341.8C267.26 341.349 267.602 340.814 267.828 340.228C268.054 339.643 268.16 339.018 268.14 338.39C268.14 338.16 268.14 337.95 268.14 337.75C268.14 335.64 270.46 321.67 274.89 307.75C279.69 292.75 284.48 281.08 286.52 276.33C291.507 266.894 293.997 256.34 293.754 245.67C293.511 235 290.542 224.57 285.13 215.372C279.718 206.173 272.043 198.512 262.834 193.118C253.626 187.723 243.19 184.773 232.52 184.55H232.47Z" stroke="#263238" stroke-width="2" stroke-linecap="round" stroke-linejoin="round"/>
<path d="M254.38 194.59C252.569 193.777 250.713 193.069 248.82 192.47" stroke="#263238" stroke-width="3" stroke-linecap="round" stroke-linejoin="round"/>
<path d="M275.22 210.47C275.22 210.47 270.12 202.37 258.91 196.86" stroke="#263238" stroke-width="3" stroke-linecap="round" stroke-linejoin="round"/>
<path d="M226.84 314.87V282.75C226.84 282.75 229.31 267.11 221.18 267.11C213.05 267.11 213.67 275.25 223.05 284C232.43 292.75 246.83 284.63 248.71 277.75C250.59 270.87 245.58 267.75 242.45 273.37C239.32 278.99 242.45 342.82 242.45 342.82" stroke="#263238" stroke-width="3" stroke-linecap="round" stroke-linejoin="round"/>
<path d="M209.45 168.3L212.91 179.19" stroke="#263238" stroke-width="3" stroke-linecap="round" stroke-linejoin="round"/>
<path d="M294.23 192.05L282.84 200.96" stroke="#263238" stroke-width="3" stroke-linecap="round" stroke-linejoin="round"/>
<path d="M252 160.35L247.71 179.19" stroke="#263238" stroke-width="3" stroke-linecap="round" stroke-linejoin="round"/>
<path d="M265.27 347.91H196.68C195.802 347.91 195.09 348.622 195.09 349.5V350.29C195.09 351.168 195.802 351.88 196.68 351.88H265.27C266.148 351.88 266.86 351.168 266.86 350.29V349.5C266.86 348.622 266.148 347.91 265.27 347.91Z" fill="#263238" stroke="#263238" stroke-linecap="round" stroke-linejoin="round"/>
<path d="M265.27 356.85H196.68C195.802 356.85 195.09 357.562 195.09 358.44V359.23C195.09 360.108 195.802 360.82 196.68 360.82H265.27C266.148 360.82 266.86 360.108 266.86 359.23V358.44C266.86 357.562 266.148 356.85 265.27 356.85Z" fill="#263238" stroke="#263238" stroke-linecap="round" stroke-linejoin="round"/>
<path d="M265.27 365.79H196.68C195.802 365.79 195.09 366.502 195.09 367.38V368.17C195.09 369.048 195.802 369.76 196.68 369.76H265.27C266.148 369.76 266.86 369.048 266.86 368.17V367.38C266.86 366.502 266.148 365.79 265.27 365.79Z" fill="#263238" stroke="#263238" stroke-linecap="round" stroke-linejoin="round"/>
<path d="M233.08 374.52H197.86L208 388.52C208.869 389.722 210.011 390.701 211.333 391.375C212.654 392.05 214.117 392.401 215.6 392.4H246.6C248.087 392.399 249.552 392.045 250.875 391.367C252.198 390.689 253.341 389.706 254.21 388.5L264.27 374.57L233.08 374.52Z" fill="#263238" stroke="#263238" stroke-linecap="round" stroke-linejoin="round"/>
<path d="M308.69 225C308.69 225 302.29 232 297.05 235.48C291.81 238.96 288.16 243.59 292.97 245.96C295.86 247.38 299.97 245.38 299.97 245.38C299.97 245.38 293.56 247.12 292.4 252.95C291.24 258.78 304 256.42 304 256.42C304 256.42 294.69 262.82 297.6 265.15C300.51 267.48 306.33 265.73 309.24 265.73C312.15 265.73 326.71 256.42 330.24 256.42C333.77 256.42 340.72 263.99 340.72 269.81C340.72 275.63 350 275.05 351.19 257C352.38 238.95 347.7 223.82 340.13 219.16C332.56 214.5 308.69 225 308.69 225Z" fill="white" stroke="#263238" stroke-miterlimit="10" stroke-linecap="round"/>
<path d="M305.2 244.77L328.43 236.09C328.43 236.09 338.63 233.88 345.95 245.94" stroke="#263238" stroke-miterlimit="10" stroke-linecap="round"/>
<path d="M309.27 251.76L330.27 248.27C330.27 248.27 339.59 247.69 345.41 258.75" stroke="#263238" stroke-miterlimit="10" stroke-linecap="round"/>
<path d="M334.89 265.73L319.17 269.23L328.48 306.48C328.48 306.48 336.64 322.78 338.96 329.77C341.28 336.76 365.16 360 365.16 360L393.1 333.22C393.1 333.22 380.3 318.09 379.72 314.59C379.14 311.09 376.8 270.35 376.8 264.53C376.8 258.71 365.16 244.73 365.16 244.73C365.16 244.73 360.38 237.88 358.05 226.24C355.72 214.6 345.05 209.81 339.21 210.39C333.37 210.97 317.42 212.72 311.02 217.39C304.62 222.06 298.79 227.87 304.62 229.62C314.29 232.52 330.11 219.62 337.74 228.54C341.24 232.61 345.37 250.54 345.95 252.91C345.95 252.91 343.04 263.97 334.89 265.71" fill="white"/>
<path d="M334.89 265.73L319.17 269.23L328.48 306.48C328.48 306.48 336.64 322.78 338.96 329.77C341.28 336.76 365.16 360 365.16 360L393.1 333.22C393.1 333.22 380.3 318.09 379.72 314.59C379.14 311.09 376.8 270.35 376.8 264.53C376.8 258.71 365.16 244.73 365.16 244.73C365.16 244.73 360.38 237.88 358.05 226.24C355.72 214.6 345.05 209.81 339.21 210.39C333.37 210.97 317.42 212.72 311.02 217.39C304.62 222.06 298.79 227.87 304.62 229.62C314.29 232.52 330.11 219.62 337.74 228.54C341.24 232.61 345.37 250.54 345.95 252.91C345.95 252.91 343.04 263.97 334.89 265.71" stroke="#263238" stroke-miterlimit="10" stroke-linecap="round"/>
<path d="M276.27 211.62C276.448 211.433 276.687 211.316 276.944 211.291C277.201 211.265 277.458 211.332 277.67 211.48L280.05 213.13C280.285 213.295 280.445 213.547 280.496 213.829C280.546 214.112 280.483 214.404 280.32 214.64C280.157 214.874 279.907 215.034 279.626 215.085C279.345 215.135 279.055 215.073 278.82 214.91L276.44 213.25C276.206 213.087 276.046 212.837 275.995 212.556C275.945 212.275 276.008 211.985 276.17 211.75C276.198 211.703 276.231 211.659 276.27 211.62Z" fill="#263238" stroke="#263238" stroke-miterlimit="10" stroke-linecap="round"/>
<path d="M279 213.54C279.404 213.108 279.95 212.837 280.538 212.776C281.126 212.716 281.717 212.87 282.2 213.21L289.66 217.05L362.9 265.23C363.524 265.664 364.057 266.217 364.468 266.857C364.879 267.497 365.16 268.211 365.294 268.96C365.429 269.708 365.415 270.476 365.253 271.219C365.091 271.962 364.784 272.666 364.35 273.29C363.916 273.914 363.363 274.447 362.723 274.858C362.083 275.269 361.369 275.55 360.62 275.684C359.872 275.819 359.104 275.805 358.361 275.643C357.618 275.481 356.914 275.174 356.29 274.74L285.21 222.3L279.4 217.3C279.133 217.115 278.906 216.879 278.73 216.606C278.554 216.333 278.434 216.028 278.377 215.709C278.319 215.389 278.325 215.061 278.394 214.744C278.464 214.427 278.595 214.127 278.78 213.86C278.843 213.746 278.916 213.639 279 213.54Z" fill="#8ED7C5" stroke="#263238" stroke-miterlimit="10" stroke-linecap="round"/>
<path d="M362.91 265.23L341.77 251.33C340.139 251.803 338.7 252.783 337.663 254.127C336.626 255.472 336.043 257.112 336 258.81C336.001 259.145 336.028 259.479 336.08 259.81L356.3 274.73C357.561 275.607 359.119 275.946 360.63 275.674C362.142 275.402 363.483 274.541 364.36 273.28C365.237 272.019 365.576 270.461 365.304 268.95C365.032 267.438 364.171 266.097 362.91 265.22V265.23Z" fill="#263238" stroke="#263238" stroke-miterlimit="10" stroke-linecap="round"/>
<path d="M339 329.77C332.6 320.46 324.45 296.59 321 291.93C317.55 287.27 308.14 276.93 304.65 266.49C301.16 256.05 298.87 247.69 298.87 238.95C298.87 230.21 306.38 228.71 312.2 238.03C318.02 247.35 325 261.66 325 261.66C325 261.66 329.66 267.48 339 265.73" fill="white"/>
<path d="M339 329.77C332.6 320.46 324.45 296.59 321 291.93C317.55 287.27 308.14 276.93 304.65 266.49C301.16 256.05 298.87 247.69 298.87 238.95C298.87 230.21 306.38 228.71 312.2 238.03C318.02 247.35 325 261.66 325 261.66C325 261.66 329.66 267.48 339 265.73" stroke="#263238" stroke-miterlimit="10" stroke-linecap="round"/>
<path d="M306.09 235.31L308.09 239.2C308.09 239.2 307.65 239.2 304.54 240.97C302.684 242.028 301.126 243.538 300.01 245.36C300.01 245.36 297.01 236.98 299.66 234.36C300.303 233.68 301.155 233.233 302.08 233.09C302.895 233.005 303.717 233.172 304.435 233.569C305.152 233.966 305.73 234.574 306.09 235.31Z" fill="white" stroke="#263238" stroke-miterlimit="10" stroke-linecap="round"/>
<path d="M387 321.36C387 321.36 371.59 325.92 363.59 333.92C358.292 339.319 353.333 345.04 348.74 351.05L363.02 367.61C363.02 367.61 375.02 353.9 383.02 347.61C388.469 343.425 394.192 339.61 400.15 336.19L387 321.36Z" fill="white" stroke="#263238" stroke-miterlimit="10" stroke-linecap="round"/>
<path d="M401.31 441.84L356.2 369.32C356.2 369.32 367.62 352.19 377.33 343.63C387.04 335.07 399.6 332.78 399.6 332.78L456 386.91" fill="#263238"/>
<path d="M401.31 441.84L356.2 369.32C356.2 369.32 367.62 352.19 377.33 343.63C387.04 335.07 399.6 332.78 399.6 332.78L456 386.91" stroke="#263238" stroke-miterlimit="10" stroke-linecap="round"/>
<path d="M314.4 256.49L315.4 256.39" stroke="#263238" stroke-miterlimit="10" stroke-linecap="round"/>
<path d="M305.69 261.33C305.69 261.33 306.22 258.14 312.63 256.8" stroke="#263238" stroke-miterlimit="10" stroke-linecap="round"/>
<path d="M312.65 259.08C312.65 259.08 312.2 260.43 307.71 262.23" stroke="#263238" stroke-miterlimit="10" stroke-linecap="round"/>
<path d="M312.47 254.81C310.223 255.163 308.088 256.028 306.23 257.34" stroke="#263238" stroke-miterlimit="10" stroke-linecap="round"/>
<path d="M171.76 155.35C171.76 155.35 181.2 156.12 187.18 158.11C193.16 160.1 199.04 160.11 197.95 154.89C197.3 151.74 193.2 149.73 193.2 149.73C193.2 149.73 198.51 153.73 203.82 151.06C209.13 148.39 199.43 139.73 199.43 139.73C199.43 139.73 210.21 143.15 210.26 139.42C210.31 135.69 205.36 132.17 203.57 129.87C201.78 127.57 185.5 121.8 183.35 119.05C181.2 116.3 182.89 106.13 187.49 102.55C192.09 98.97 185.91 92 171 102.14C156.09 112.28 147 125.27 147.91 134.14C148.82 143.01 171.76 155.35 171.76 155.35Z" fill="white" stroke="#263238" stroke-miterlimit="10" stroke-linecap="round"/>
<path d="M189.53 146L168.41 133C168.41 133 160.41 126.31 165.41 113.13" stroke="#263238" stroke-miterlimit="10" stroke-linecap="round"/>
<path d="M192.54 138.45L176.92 124.05C176.92 124.05 170.74 117.05 175.92 105.67" stroke="#263238" stroke-miterlimit="10" stroke-linecap="round"/>
<path d="M187.85 109.65L200.25 119.92L224 89.69C224 89.69 239.3 82.82 243.33 76.69C247.36 70.56 250.79 37.36 250.79 37.36L212.4 32C212.4 32 208.49 51.44 206.11 54.07C203.73 56.7 165.79 73.7 161.2 77.28C156.61 80.86 152.72 98.62 152.72 98.62C150.673 105.841 147.996 112.868 144.72 119.62C135.97 137.34 137.53 135.98 141.56 140.22C145.59 144.46 155.4 153.08 163.01 155.28C170.62 157.48 180.08 165.34 177.96 155.73C175.78 145.88 154.42 141.73 156.77 130.25C157.84 124.99 169.49 110.7 170.97 108.81C170.97 108.81 181.48 104.32 187.87 109.68" fill="white"/>
<path d="M187.85 109.65L200.25 119.92L224 89.69C224 89.69 239.3 82.82 243.33 76.69C247.36 70.56 250.79 37.36 250.79 37.36L212.4 32C212.4 32 208.49 51.44 206.11 54.07C203.73 56.7 165.79 73.7 161.2 77.28C156.61 80.86 152.72 98.62 152.72 98.62C150.673 105.841 147.996 112.868 144.72 119.62C135.97 137.34 137.53 135.98 141.56 140.22C145.59 144.46 155.4 153.08 163.01 155.28C170.62 157.48 180.08 165.34 177.96 155.73C175.78 145.88 154.42 141.73 156.77 130.25C157.84 124.99 169.49 110.7 170.97 108.81C170.97 108.81 181.48 104.32 187.87 109.68" stroke="#263238" stroke-miterlimit="10" stroke-linecap="round"/>
<path d="M181.12 189.15C180.861 189.131 180.617 189.02 180.434 188.836C180.25 188.653 180.139 188.409 180.12 188.15L179.97 185.25C179.95 185.102 179.961 184.952 180.002 184.809C180.043 184.666 180.113 184.532 180.208 184.418C180.302 184.303 180.42 184.209 180.553 184.142C180.686 184.074 180.831 184.035 180.98 184.027C181.129 184.019 181.278 184.041 181.417 184.093C181.557 184.145 181.684 184.226 181.791 184.329C181.898 184.433 181.983 184.557 182.039 184.695C182.096 184.833 182.123 184.981 182.12 185.13L182.28 188.03C182.297 188.313 182.201 188.592 182.014 188.805C181.827 189.018 181.563 189.149 181.28 189.17L181.12 189.15Z" fill="#263238" stroke="#263238" stroke-miterlimit="10" stroke-linecap="round"/>
<path d="M181 185.8C180.411 185.748 179.861 185.484 179.451 185.057C179.041 184.631 178.799 184.071 178.77 183.48L177.23 175.23L170.3 87.84C170.218 86.3057 170.748 84.8016 171.775 83.6586C172.802 82.5156 174.241 81.8272 175.775 81.745C177.309 81.6628 178.813 82.1934 179.956 83.2202C181.099 84.2469 181.788 85.6857 181.87 87.22L184.11 175.53L183.69 183.22C183.708 183.543 183.661 183.867 183.553 184.172C183.446 184.477 183.279 184.758 183.062 184.999C182.846 185.239 182.584 185.435 182.292 185.574C182 185.713 181.683 185.793 181.36 185.81C181.24 185.817 181.12 185.813 181 185.8Z" fill="#8ED7C5" stroke="#263238" stroke-miterlimit="10" stroke-linecap="round"/>
<path d="M170.25 87.84L172.25 113.06C173.621 114.064 175.276 114.604 176.975 114.604C178.674 114.604 180.329 114.064 181.7 113.06C181.966 112.852 182.217 112.625 182.45 112.38L181.82 87.26C181.738 85.7258 181.049 84.287 179.906 83.2602C178.763 82.2335 177.259 81.7028 175.725 81.785C174.191 81.8673 172.752 82.5556 171.725 83.6986C170.698 84.8417 170.168 86.3458 170.25 87.88V87.84Z" fill="#263238" stroke="#263238" stroke-miterlimit="10" stroke-linecap="round"/>
<path d="M243.28 76.65C240 87.46 225.52 102.32 223 107.56C217.349 119.432 210.811 130.862 203.44 141.75C200.95 145.48 198.26 146.01 196.62 147.35C194.22 149.35 192.99 151.4 188.89 154.58C182 159.94 176.2 154.95 179.98 144.64C183.76 134.33 190.7 120 190.7 120C190.7 120 192.44 112.75 185.35 106.47" fill="white"/>
<path d="M243.28 76.65C240 87.46 225.52 102.32 223 107.56C217.349 119.432 210.811 130.862 203.44 141.75C200.95 145.48 198.26 146.01 196.62 147.35C194.22 149.35 192.99 151.4 188.89 154.58C182 159.94 176.2 154.95 179.98 144.64C183.76 134.33 190.7 120 190.7 120C190.7 120 192.44 112.75 185.35 106.47" stroke="#263238" stroke-miterlimit="10" stroke-linecap="round"/>
<path d="M181.5 151.06L183.38 147.14C183.38 147.14 183.65 147.49 186.96 148.85C188.932 149.665 191.079 149.968 193.2 149.73C193.2 149.73 188.43 157.25 184.7 156.78C183.77 156.692 182.897 156.294 182.22 155.65C181.637 155.055 181.254 154.293 181.125 153.47C180.996 152.647 181.127 151.805 181.5 151.06Z" fill="white" stroke="#263238" stroke-miterlimit="10" stroke-linecap="round"/>
<path d="M209.16 0.670025L201.21 52.3C201.21 52.3 210.8 60.73 223.54 63C236.28 65.27 259.54 68.71 259.54 68.71L279.9 0.650024" fill="#263238"/>
<path d="M209.16 0.670025L201.21 52.3C201.21 52.3 210.8 60.73 223.54 63C236.28 65.27 259.54 68.71 259.54 68.71L279.9 0.650024" stroke="#263238" stroke-miterlimit="10" stroke-linecap="round"/>
<path d="M255.44 57.17C255.44 57.9473 255.209 58.7071 254.778 59.3534C254.346 59.9997 253.732 60.5034 253.014 60.8008C252.296 61.0983 251.506 61.1761 250.743 61.0245C249.981 60.8728 249.281 60.4985 248.731 59.9489C248.181 59.3993 247.807 58.699 247.656 57.9367C247.504 57.1744 247.582 56.3842 247.879 55.666C248.177 54.9479 248.68 54.3341 249.327 53.9023C249.973 53.4705 250.733 53.24 251.51 53.24C252.552 53.24 253.552 53.654 254.289 54.3911C255.026 55.1281 255.44 56.1277 255.44 57.17Z" fill="white" stroke="#263238" stroke-width="2" stroke-linecap="round" stroke-linejoin="round"/>
<path d="M190.21 138.31L189.54 137.63" stroke="#263238" stroke-miterlimit="10" stroke-linecap="round"/>
<path d="M199.37 142.22C199.37 142.22 196.53 143.76 191.54 139.53" stroke="#263238" stroke-miterlimit="10" stroke-linecap="round"/>
<path d="M193.32 138.1C193.32 138.1 194.66 137.63 198.84 140.1" stroke="#263238" stroke-miterlimit="10" stroke-linecap="round"/>
<path d="M190.07 140.88C191.727 142.431 193.718 143.58 195.89 144.24" stroke="#263238" stroke-miterlimit="10" stroke-linecap="round"/>
<path d="M192.94 309.17C192.94 309.17 193.85 318.6 195.94 324.55C198.03 330.5 198.15 336.38 192.88 335.37C189.72 334.76 187.65 330.7 187.65 330.7C187.65 330.7 191.72 335.95 189.14 341.29C186.56 346.63 177.74 337.07 177.74 337.07C177.74 337.07 181.32 347.79 177.6 347.9C173.88 348.01 170.27 343.11 167.95 341.36C165.63 339.61 159.61 323.36 156.82 321.3C154.03 319.24 143.9 321.03 140.4 325.68C136.9 330.33 129.8 324.26 139.74 309.15C149.68 294.04 162.51 284.75 171.35 285.59C180.19 286.43 192.94 309.17 192.94 309.17Z" fill="white" stroke="#263238" stroke-miterlimit="10" stroke-linecap="round"/>
<path d="M183.81 327.08L170.49 306.15C170.49 306.15 163.68 298.24 150.57 303.47" stroke="#263238" stroke-miterlimit="10" stroke-linecap="round"/>
<path d="M176.35 330.2L161.72 314.79C161.72 314.79 154.63 308.72 143.33 314.05" stroke="#263238" stroke-miterlimit="10" stroke-linecap="round"/>
<path d="M147.49 325.93L157.93 338.19L128.06 362.33C128.06 362.33 111.74 370.43 105.68 374.61C99.62 378.79 66.53 383 66.53 383L60.35 344.8C60.35 344.8 79.69 340.43 82.25 337.99C84.81 335.55 111.25 304.42 114.72 299.77C118.19 295.12 135.94 290.97 135.94 290.97C135.94 290.97 143.88 288.38 152.75 280.49C161.62 272.6 173.03 275.21 177.33 279.18C181.63 283.15 193.33 294.18 195.64 301.72C197.95 309.26 199.09 317.45 193.39 315.34C183.92 311.83 179.05 292.02 167.59 294.53C162.35 295.68 148.23 307.53 146.37 309.05C146.37 309.05 142.03 319.63 147.49 325.93Z" fill="white" stroke="#263238" stroke-miterlimit="10" stroke-linecap="round"/>
<path d="M226.87 318C226.851 317.741 226.74 317.497 226.556 317.313C226.373 317.13 226.129 317.018 225.87 317L222.97 316.89C222.828 316.885 222.687 316.907 222.554 316.957C222.421 317.006 222.299 317.081 222.195 317.178C222.091 317.274 222.007 317.391 221.948 317.52C221.888 317.649 221.855 317.788 221.85 317.93C221.845 318.072 221.867 318.213 221.917 318.346C221.966 318.479 222.041 318.601 222.138 318.705C222.235 318.809 222.351 318.893 222.48 318.952C222.609 319.011 222.748 319.045 222.89 319.05L225.79 319.16C226.069 319.169 226.341 319.07 226.55 318.883C226.758 318.697 226.887 318.438 226.91 318.16C226.903 318.105 226.889 318.052 226.87 318Z" fill="#263238" stroke="#263238" stroke-miterlimit="10" stroke-linecap="round"/>
<path d="M223.53 317.91C223.466 317.321 223.192 316.775 222.759 316.371C222.326 315.967 221.762 315.733 221.17 315.71L212.9 314.29L125.42 308.66C124.66 308.63 123.901 308.751 123.187 309.015C122.473 309.278 121.818 309.68 121.26 310.197C120.701 310.713 120.25 311.335 119.932 312.026C119.614 312.717 119.435 313.465 119.405 314.225C119.375 314.985 119.496 315.744 119.76 316.458C120.023 317.172 120.425 317.826 120.942 318.385C121.459 318.943 122.08 319.395 122.771 319.713C123.463 320.031 124.21 320.21 124.97 320.24L213.3 321.16L220.98 320.64C221.634 320.664 222.27 320.428 222.75 319.984C223.23 319.54 223.514 318.923 223.54 318.27C223.547 318.15 223.543 318.029 223.53 317.91Z" fill="#8ED7C5" stroke="#263238" stroke-miterlimit="10" stroke-linecap="round"/>
<path d="M125.42 308.66L150.66 310.29C151.68 311.649 152.24 313.298 152.26 314.997C152.279 316.696 151.758 318.357 150.77 319.74C150.56 320.005 150.336 320.258 150.1 320.5L125 320.24C124.24 320.21 123.493 320.031 122.801 319.713C122.11 319.395 121.489 318.943 120.972 318.385C120.455 317.826 120.053 317.172 119.79 316.458C119.526 315.744 119.405 314.985 119.435 314.225C119.465 313.465 119.644 312.717 119.962 312.026C120.28 311.335 120.731 310.713 121.29 310.197C121.848 309.68 122.503 309.278 123.217 309.015C123.931 308.751 124.69 308.63 125.45 308.66H125.42Z" fill="#263238" stroke="#263238" stroke-miterlimit="10" stroke-linecap="round"/>
<path d="M105.68 374.61C116.4 371.03 137.28 356.88 142.87 355.26C148.46 353.64 162.14 351.06 171.24 344.8C180.34 338.54 187.17 333.26 192.43 326.28C197.69 319.3 192.61 313.59 182.35 317.52C172.09 321.45 157.84 328.64 157.84 328.64C157.84 328.64 150.62 330.48 144.23 323.48" fill="white"/>
<path d="M105.68 374.61C116.4 371.03 137.28 356.88 142.87 355.26C148.46 353.64 162.14 351.06 171.24 344.8C180.34 338.54 187.17 333.26 192.43 326.28C197.69 319.3 192.61 313.59 182.35 317.52C172.09 321.45 157.84 328.64 157.84 328.64C157.84 328.64 150.62 330.48 144.23 323.48" stroke="#263238" stroke-miterlimit="10" stroke-linecap="round"/>
<path d="M188.8 319L184.9 320.93C184.9 320.93 185.26 321.2 186.67 324.48C187.525 326.442 187.869 328.589 187.67 330.72C187.67 330.72 195.12 325.84 194.59 322.11C194.488 321.181 194.08 320.312 193.43 319.64C192.823 319.061 192.049 318.688 191.218 318.573C190.387 318.458 189.541 318.608 188.8 319Z" fill="white" stroke="#263238" stroke-miterlimit="10" stroke-linecap="round"/>
<path d="M80.18 336.57C80.18 336.57 89.74 349.5 91.31 360.7C92.2898 368.198 92.8041 375.749 92.85 383.31L63.66 390.31C63.66 390.31 62.34 372.15 59.74 362.31C57.9092 355.689 55.6375 349.198 52.94 342.88L80.18 336.57Z" fill="white" stroke="#263238" stroke-miterlimit="10" stroke-linecap="round"/>
<path d="M81.51 359.13C78.91 346.45 70.26 337.06 70.26 337.06L1.19 348.06V426.06L82.91 392.35C82.91 392.35 84.1 371.81 81.51 359.13Z" fill="#263238" stroke="#263238" stroke-miterlimit="10" stroke-linecap="round"/>
<path d="M63 393C63.0118 393.61 62.841 394.21 62.5093 394.722C62.1777 395.235 61.7005 395.636 61.139 395.875C60.5774 396.114 59.9573 396.18 59.3582 396.063C58.759 395.947 58.2083 395.655 57.7768 395.223C57.3453 394.792 57.0526 394.241 56.9365 393.642C56.8203 393.043 56.886 392.423 57.125 391.861C57.364 391.299 57.7654 390.822 58.2778 390.491C58.7901 390.159 59.3898 389.988 60 390C60.7908 390.015 61.545 390.336 62.1043 390.896C62.6636 391.455 62.9846 392.209 63 393Z" fill="white"/>
<path d="M71.58 389.36C71.578 389.965 71.3969 390.555 71.0594 391.057C70.722 391.559 70.2434 391.95 69.6841 392.18C69.1248 392.41 68.5098 392.469 67.9169 392.35C67.324 392.231 66.7797 391.938 66.3527 391.51C65.9258 391.082 65.6354 390.537 65.5181 389.943C65.4008 389.35 65.462 388.735 65.6939 388.177C65.9258 387.618 66.318 387.141 66.821 386.805C67.324 386.469 67.9152 386.29 68.52 386.29C68.9227 386.29 69.3214 386.369 69.6933 386.524C70.0652 386.678 70.403 386.904 70.6873 387.19C70.9716 387.475 71.1968 387.813 71.3499 388.186C71.5031 388.558 71.5813 388.957 71.58 389.36Z" fill="white"/>
<path d="M169.4 330.89L168.72 330.23" stroke="#263238" stroke-miterlimit="10" stroke-linecap="round"/>
<path d="M173.45 340C173.45 340 174.95 337.13 170.64 332.2" stroke="#263238" stroke-miterlimit="10" stroke-linecap="round"/>
<path d="M169.25 334C169.25 334 168.79 335.35 171.3 339.49" stroke="#263238" stroke-miterlimit="10" stroke-linecap="round"/>
<path d="M172 330.71C173.58 332.345 174.761 334.323 175.45 336.49" stroke="#263238" stroke-miterlimit="10" stroke-linecap="round"/>
</g>
<defs>
<clipPath id="clip0_164_2">
<rect width="457" height="443" fill="white"/>
</clipPath>
</defs>
</svg>
