<svg width="579" height="407" viewBox="0 0 579 407" fill="none" xmlns="http://www.w3.org/2000/svg">
<g clip-path="url(#clip0_163_3)">
<path d="M566 405L566 287L565 287L565 405L566 405Z" fill="#EBEBEB"/>
<path d="M369 405L369 287L368 287L368 405L369 405Z" fill="#EBEBEB"/>
<path d="M314.321 267.762C313.764 265.076 312.7 262.578 311.244 260.36L313.894 257.159L308.228 251.493L305.027 254.143C302.809 252.688 300.312 251.623 297.626 251.066L297.237 246.94H289.224L288.835 251.066C286.149 251.623 283.652 252.688 281.434 254.143L278.233 251.493L272.567 257.159L275.217 260.36C273.761 262.578 272.697 265.076 272.14 267.762L268.014 268.151V276.163L272.14 276.552C272.697 279.238 273.761 281.735 275.217 283.953L272.567 287.154L278.233 292.821L281.434 290.17C283.652 291.626 286.149 292.69 288.835 293.247L289.224 297.373H297.237L297.626 293.248C300.312 292.691 302.809 291.626 305.027 290.17L308.228 292.821L313.894 287.154L311.244 283.954C312.7 281.735 313.764 279.238 314.321 276.552L318.447 276.163V268.151L314.321 267.762ZM304.078 272.157C304.078 278.148 299.222 283.004 293.23 283.004C287.239 283.004 282.383 278.148 282.383 272.157C282.383 266.166 287.239 261.309 293.23 261.309C299.222 261.309 304.078 266.166 304.078 272.157Z" fill="#F0F0F0"/>
<path d="M272.742 315.642C272.138 312.728 270.984 310.02 269.405 307.614L272.279 304.143L266.134 297.997L262.662 300.871C260.257 299.293 257.548 298.138 254.635 297.534L254.214 293.059H245.523L245.102 297.534C242.189 298.138 239.48 299.293 237.075 300.871L233.603 297.997L227.457 304.143L230.332 307.615C228.753 310.02 227.599 312.728 226.994 315.642L222.519 316.064V324.754L226.994 325.175C227.599 328.088 228.753 330.796 230.332 333.202L227.457 336.674L233.603 342.819L237.075 339.945C239.48 341.524 242.189 342.678 245.102 343.282L245.523 347.757H254.214L254.635 343.282C257.548 342.679 260.257 341.524 262.662 339.945L266.134 342.819L272.279 336.674L269.405 333.203C270.984 330.796 272.138 328.088 272.742 325.175L277.217 324.754V316.064L272.742 315.642ZM261.633 320.408C261.633 326.906 256.366 332.173 249.868 332.173C243.371 332.173 238.104 326.906 238.104 320.408C238.104 313.911 243.371 308.644 249.868 308.644C256.366 308.644 261.633 313.911 261.633 320.408Z" fill="#F0F0F0"/>
<path d="M388.565 157.331C388.012 154.659 386.953 152.176 385.506 149.971L388.141 146.787L382.507 141.153L379.323 143.788C377.118 142.341 374.634 141.282 371.964 140.728L371.577 136.625H363.609L363.222 140.728C360.552 141.282 358.068 142.341 355.863 143.788L352.679 141.153L347.045 146.787L349.68 149.971C348.233 152.176 347.174 154.659 346.62 157.331L342.517 157.717V165.685L346.62 166.072C347.174 168.743 348.233 171.226 349.68 173.431L347.045 176.615L352.679 182.249L355.863 179.613C358.068 181.061 360.552 182.12 363.222 182.673L363.609 186.776H371.577L371.964 182.674C374.634 182.12 377.118 181.061 379.323 179.613L382.507 182.249L388.141 176.615L385.506 173.432C386.953 171.226 388.012 168.743 388.565 166.072L392.668 165.685V157.717L388.565 157.331ZM378.38 161.701C378.38 167.658 373.551 172.488 367.593 172.488C361.635 172.488 356.806 167.658 356.806 161.701C356.806 155.744 361.636 150.914 367.593 150.914C373.55 150.914 378.38 155.744 378.38 161.701Z" fill="#F0F0F0"/>
<path d="M224.767 182.954C223.993 179.218 222.513 175.745 220.488 172.661L224.174 168.21L216.295 160.33L211.843 164.015C208.759 161.992 205.286 160.511 201.551 159.737L201.01 153.999H189.868L189.327 159.737C185.592 160.512 182.119 161.992 179.035 164.015L174.584 160.33L166.704 168.21L170.389 172.662C168.365 175.745 166.885 179.218 166.111 182.954L160.373 183.495V194.637L166.111 195.178C166.885 198.913 168.365 202.385 170.389 205.469L166.704 209.921L174.584 217.8L179.035 214.114C182.119 216.139 185.592 217.619 189.327 218.393L189.868 224.131H201.01L201.551 218.394C205.286 217.62 208.759 216.139 211.843 214.114L216.295 217.8L224.174 209.921L220.488 205.47C222.513 202.385 223.993 198.913 224.767 195.178L230.504 194.637V183.495L224.767 182.954ZM210.524 189.065C210.524 197.396 203.77 204.15 195.439 204.15C187.108 204.15 180.354 197.396 180.354 189.065C180.354 180.735 187.108 173.981 195.439 173.981C203.77 173.981 210.524 180.734 210.524 189.065Z" fill="#F0F0F0"/>
<path d="M326.943 226.17L331.96 250.404L342.517 250.308L340.582 224.113L326.943 226.17Z" fill="#263238"/>
<path d="M333.219 248.452C334.635 249.731 337.676 249.499 339.031 248.411L339.047 246.427C339.273 244.751 339.863 243.952 341.665 244.157C342.548 244.256 343.67 245.31 344.421 246.9C345.767 249.75 347.311 250.888 347.311 250.888C347.311 250.888 355.392 254.774 358.285 255.619C360.011 256.123 362.319 256.887 363.575 258.71C363.934 259.232 364.26 259.85 364.545 260.582C364.779 261.183 364.792 262.547 364.792 262.577L344.446 262.835C344.446 262.835 342.355 261.652 341.473 261.695C339.905 261.772 339.221 263.148 339.221 263.148L331.823 263.297C331.823 263.297 331.666 262.157 331.44 260.499L331.438 260.498C331.336 259.751 331.221 258.899 331.097 257.998C330.57 254.136 330.997 249.52 330.856 248.427C330.61 246.511 333.219 248.452 333.219 248.452Z" fill="#263238"/>
<path d="M351.664 252.796C351.571 252.715 351.43 252.709 351.325 252.777C350.845 253.087 350.445 253.52 350.178 254.059C350.038 254.342 350.484 254.604 350.626 254.318C350.863 253.84 351.213 253.457 351.632 253.184C351.773 253.093 351.792 252.908 351.668 252.8L351.664 252.796Z" fill="#8ED7C3"/>
<path d="M350.083 251.971C349.99 251.89 349.849 251.884 349.745 251.952C349.264 252.262 348.864 252.695 348.597 253.233C348.457 253.517 348.903 253.779 349.045 253.493C349.282 253.015 349.632 252.632 350.052 252.36C350.192 252.269 350.211 252.084 350.087 251.975L350.083 251.971Z" fill="#8ED7C3"/>
<path d="M348.454 251.204C348.361 251.123 348.221 251.117 348.116 251.185C347.635 251.495 347.235 251.929 346.968 252.467C346.828 252.751 347.274 253.013 347.416 252.726C347.653 252.248 348.003 251.865 348.423 251.593C348.563 251.502 348.582 251.317 348.458 251.208L348.454 251.204Z" fill="#8ED7C3"/>
<path d="M348.066 251.937L348.02 251.467L348.269 251.442L348.019 251.457C347.948 250.755 347.876 250.028 347.932 249.303C347.995 248.461 348.226 247.746 348.616 247.18C348.904 246.761 349.266 246.558 349.627 246.557C350.105 246.58 350.431 246.995 350.576 247.376C350.823 248.02 350.772 248.798 350.434 249.511C350.107 250.202 348.816 251.311 348.429 251.635L348.066 251.937ZM349.586 247.056C349.335 247.056 349.113 247.339 349.028 247.463C348.688 247.956 348.487 248.588 348.43 249.34C348.39 249.867 348.423 250.407 348.471 250.939C349.112 250.375 349.793 249.696 349.982 249.297C350.262 248.707 350.308 248.072 350.109 247.555C350.024 247.332 349.84 247.067 349.603 247.057L349.586 247.056Z" fill="#8ED7C3"/>
<path d="M348.595 251.756L348.139 251.69C347.642 251.6 345.974 251.274 345.346 250.832C344.7 250.378 344.27 249.727 344.168 249.044C344.107 248.64 344.187 248.118 344.591 247.864C344.899 247.67 345.31 247.682 345.775 247.908C346.394 248.207 346.947 248.715 347.419 249.416C347.823 250.018 348.118 250.682 348.403 251.325L348.595 251.756ZM345.085 248.229C345.003 248.229 344.925 248.244 344.857 248.287C344.657 248.413 344.627 248.734 344.662 248.97C344.745 249.518 345.099 250.047 345.633 250.424C345.996 250.679 346.923 250.933 347.758 251.107C347.537 250.619 347.299 250.133 347.005 249.695C346.583 249.068 346.096 248.618 345.558 248.358C345.441 248.302 345.257 248.229 345.085 248.229Z" fill="#8ED7C3"/>
<path d="M225.622 248.751L216.357 271.699L225.194 277.475L238.113 254.604L225.622 248.751Z" fill="#263238"/>
<path d="M218.194 271.485C219.609 272.763 222.65 272.532 224.006 271.444L224.021 269.459C224.247 267.784 224.838 266.985 226.639 267.19C227.522 267.289 228.644 268.343 229.395 269.933C230.741 272.783 232.286 273.921 232.286 273.921C232.286 273.921 240.367 277.807 243.259 278.652C244.985 279.156 247.293 279.92 248.55 281.743C248.908 282.264 249.234 282.883 249.519 283.615C249.753 284.216 249.766 285.58 249.766 285.61L229.42 285.868C229.42 285.868 227.329 284.685 226.448 284.728C224.88 284.805 224.195 286.181 224.195 286.181L216.797 286.33C216.797 286.33 216.64 285.19 216.414 283.531L216.412 283.531C216.311 282.783 216.196 281.931 216.072 281.031C215.545 277.169 215.971 272.553 215.831 271.46C215.585 269.544 218.194 271.485 218.194 271.485Z" fill="#263238"/>
<path d="M236.638 275.829C236.545 275.748 236.405 275.742 236.3 275.81C235.819 276.12 235.419 276.553 235.153 277.091C235.012 277.375 235.458 277.637 235.6 277.351C235.837 276.872 236.187 276.489 236.607 276.217C236.747 276.126 236.767 275.941 236.642 275.833L236.638 275.829Z" fill="#8ED7C3"/>
<path d="M235.057 275.004C234.964 274.923 234.824 274.917 234.719 274.984C234.239 275.295 233.838 275.728 233.572 276.266C233.431 276.55 233.877 276.812 234.019 276.526C234.257 276.047 234.606 275.665 235.026 275.392C235.166 275.301 235.186 275.116 235.061 275.008L235.057 275.004Z" fill="#8ED7C3"/>
<path d="M233.428 274.237C233.335 274.156 233.195 274.15 233.09 274.218C232.61 274.528 232.21 274.961 231.943 275.5C231.802 275.783 232.249 276.045 232.391 275.759C232.628 275.281 232.977 274.898 233.397 274.626C233.537 274.534 233.557 274.349 233.432 274.241L233.428 274.237Z" fill="#8ED7C3"/>
<path d="M233.041 274.968L232.995 274.5C232.924 273.795 232.851 273.067 232.906 272.336C232.97 271.493 233.201 270.778 233.591 270.212C233.879 269.794 234.223 269.586 234.601 269.589C235.079 269.613 235.405 270.027 235.55 270.407C235.797 271.052 235.746 271.83 235.409 272.542C235.081 273.237 233.79 274.344 233.403 274.667L233.041 274.968ZM234.56 270.088C234.32 270.088 234.108 270.342 234.003 270.495C233.663 270.988 233.462 271.62 233.405 272.373C233.364 272.901 233.397 273.441 233.445 273.973C234.086 273.409 234.767 272.73 234.956 272.329C235.236 271.738 235.282 271.104 235.083 270.587C234.998 270.364 234.814 270.101 234.577 270.089L234.56 270.088Z" fill="#8ED7C3"/>
<path d="M233.577 274.807L233.112 274.723C232.615 274.632 230.944 274.304 230.32 273.864C229.675 273.411 229.246 272.76 229.143 272.077C229.082 271.675 229.161 271.153 229.564 270.897C229.872 270.702 230.294 270.718 230.75 270.94C231.37 271.24 231.922 271.748 232.394 272.449C232.804 273.059 233.1 273.728 233.386 274.376L233.577 274.807ZM230.059 271.26C229.978 271.26 229.899 271.276 229.832 271.319C229.631 271.447 229.601 271.768 229.637 272.003C229.72 272.551 230.074 273.08 230.607 273.456C230.968 273.709 231.895 273.964 232.733 274.139C232.513 273.653 232.275 273.168 231.979 272.729C231.557 272.102 231.071 271.651 230.532 271.39C230.416 271.334 230.231 271.26 230.059 271.26Z" fill="#8ED7C3"/>
<path d="M245.363 123.377C245.322 124.727 237.082 201.442 237.082 201.442L216.818 267.038L232.87 271.135L263.36 201.442C265.538 186.289 271.651 150.452 274.152 134.244L282.918 116.677L250.91 108.636L245.363 123.377Z" fill="#263238"/>
<path opacity="0.2" d="M245.363 123.377C245.322 124.727 237.082 201.442 237.082 201.442L216.818 267.038L232.87 271.135L263.36 201.442C265.538 186.289 271.651 150.452 274.152 134.244L282.918 116.677L250.91 108.636L245.363 123.377Z" fill="white"/>
<path d="M287.884 124.279C288.946 125.477 328.328 163.356 333.284 171.145C338.24 178.933 345.941 245.132 345.941 245.132L327.179 250.412L312.311 180.988C312.311 180.988 263.103 138.576 264.165 137.868C265.227 137.16 281.751 117 281.751 117L287.884 124.279Z" fill="#263238"/>
<path opacity="0.2" d="M287.884 124.279C288.946 125.477 328.328 163.356 333.284 171.145C338.24 178.933 345.941 245.132 345.941 245.132L327.179 250.412L312.311 180.988C312.311 180.988 263.103 138.576 264.165 137.868C265.227 137.16 281.751 117 281.751 117L287.884 124.279Z" fill="white"/>
<path d="M327.517 18.2919C327.517 18.2919 328.047 17.8701 329.517 18.0113C330.988 18.1525 330.749 19.9525 330.948 19.8577C331.146 19.7628 332.11 19.8649 332.974 20.0145C333.838 20.1639 334.154 21.081 333.943 22.8115C333.732 24.542 331.738 31.2261 331.102 31.8106C331.102 31.8106 330.875 33.3801 330.891 33.5411C330.907 33.7021 323.957 36.0109 323.957 36.0109L322.916 30.3786L320.461 27.2791C320.461 27.2791 318.576 24.0478 318.715 22.2952C318.74 21.9889 318.898 21.6638 318.937 21.3993C319.082 20.4202 319.972 20.6908 320.836 21.1763L321.966 21.5821C321.966 21.5821 322.356 19.179 322.519 18.2741C322.625 17.6848 323.07 17.1663 323.675 16.9863C323.8 16.9492 323.925 16.9227 324.044 16.9147C324.829 16.8615 324.909 17.641 324.909 17.641C324.909 17.641 326.155 16.9324 327.132 17.9912C327.493 18.3817 327.517 18.2919 327.517 18.2919Z" fill="#E9B376"/>
<path d="M295.112 22.9543C295.112 24.4955 295.561 25.7406 296.132 25.7406H312.513C313.065 25.7406 313.534 24.4955 313.534 22.9543C313.534 21.4131 313.095 20.1577 312.513 20.1577H296.132C295.601 20.1577 295.112 21.4131 295.112 22.9543Z" fill="#8ED7C3"/>
<path d="M311.462 22.9543C311.462 24.9139 312.064 26.5061 312.799 26.5061H332.345C333.079 26.5061 333.671 24.9241 333.671 22.9543C333.671 20.9845 333.079 19.3923 332.345 19.3923H312.758C312.024 19.3923 311.462 20.9947 311.462 22.9543Z" fill="#8ED7C3"/>
<path d="M330.426 22.9542C330.426 25.3119 331.15 27.2205 332.028 27.2205H352.441C353.329 27.2205 354.043 25.3221 354.043 22.9542C354.043 20.5863 353.329 18.6777 352.441 18.6777H332.028C331.15 18.6777 330.426 20.5965 330.426 22.9542Z" fill="#8ED7C3"/>
<path opacity="0.2" d="M352.451 18.6777C353.339 18.6777 354.054 20.5965 354.054 22.9542C354.054 25.3119 353.339 27.2205 352.451 27.2205C351.563 27.2205 350.849 25.3119 350.849 22.9542C350.849 20.5863 351.563 18.6777 352.451 18.6777Z" fill="white"/>
<path d="M351.339 22.9543C351.339 20.5966 352.053 19.1575 352.451 19.1575C352.849 19.1575 353.574 20.6068 353.574 22.9543C353.574 25.3018 352.849 26.7409 352.451 26.7409C352.053 26.7409 351.339 25.312 351.339 22.9543Z" fill="black"/>
<path d="M322.936 23.9784C323.844 23.6289 324.541 22.7795 324.705 21.8209C324.726 21.6964 324.736 21.5576 324.663 21.4545C324.542 21.2822 324.282 21.3143 324.077 21.3651C322.729 21.7 321.38 22.0349 320.032 22.3698C319.468 22.5099 318.821 22.7217 318.625 23.2688C318.462 23.7233 318.688 24.2188 318.932 24.6353C319.458 25.5322 320.097 26.3629 320.829 27.1016L324.894 27.6259C325.052 26.1681 324.239 24.6527 322.936 23.9784Z" fill="#E9B376"/>
<path d="M199.662 127.164C197.469 126.066 195.497 124.573 193.845 122.761C192.372 121.016 191.9 119.41 192.517 118.219C193.692 115.887 198.654 116.24 203.94 119.011C209.226 121.782 212.305 125.625 211.075 127.954C210.461 129.135 208.863 129.664 206.593 129.44C205.909 129.37 205.231 129.249 204.566 129.079C202.86 128.639 201.214 127.996 199.662 127.164ZM198.708 118.326C196.081 117.673 194.128 117.903 193.656 118.822C193.301 119.495 193.741 120.652 194.825 121.925C196.364 123.618 198.204 125.011 200.252 126.032C202.26 127.133 204.454 127.855 206.724 128.161C208.39 128.333 209.591 128.026 209.943 127.363C210.707 125.977 208.148 122.661 203.339 120.141C201.871 119.358 200.317 118.749 198.708 118.326Z" fill="#263238"/>
<path d="M179.435 112.404C179.968 111.396 181.218 111.011 182.226 111.545L227.207 135.123C228.218 135.656 228.606 136.906 228.077 137.919L211.911 168.758L211.906 168.769C211.372 169.777 210.123 170.161 209.115 169.628L164.133 146.05L164.104 146.035C163.104 145.499 162.728 144.254 163.264 143.254L179.429 112.414L179.435 112.404Z" fill="#263238"/>
<path opacity="0.1" d="M179.435 112.404C179.968 111.396 181.218 111.011 182.226 111.545L227.207 135.123C228.218 135.656 228.606 136.906 228.077 137.919L211.911 168.758L211.906 168.769C211.372 169.777 210.123 170.161 209.115 169.628L164.133 146.05L164.104 146.035C163.104 145.499 162.728 144.254 163.264 143.254L179.429 112.414L179.435 112.404Z" fill="white"/>
<path d="M223.674 135.577C224.21 134.577 225.455 134.201 226.455 134.737L227.207 135.123C228.218 135.657 228.606 136.906 228.077 137.919L211.911 168.758L211.906 168.769C211.372 169.777 210.123 170.162 209.115 169.628L208.362 169.242C207.38 168.685 206.999 167.461 207.492 166.446L223.658 135.606L223.674 135.577Z" fill="#263238"/>
<path d="M226.836 134.931L181.836 111.338C180.832 110.811 179.59 111.198 179.063 112.202L171.548 126.539L171.542 126.549C171.122 127.349 171.429 128.339 172.23 128.759L213.553 150.423C214.358 150.845 215.353 150.536 215.776 149.731L223.271 135.433C223.772 134.456 224.952 134.046 225.951 134.501L226.836 134.931Z" fill="#263238"/>
<path opacity="0.2" d="M226.839 134.922L181.84 111.322C180.836 110.795 179.594 111.182 179.067 112.187L171.549 126.532L171.544 126.542C171.123 127.343 171.431 128.333 172.231 128.754L213.553 150.423C214.358 150.846 215.353 150.535 215.776 149.73L223.273 135.424C223.774 134.447 224.955 134.037 225.953 134.492L226.839 134.922Z" fill="white"/>
<path d="M195.439 138.418L191.097 146.7C190.94 146.998 190.572 147.113 190.273 146.957L186.928 145.203C186.63 145.047 186.515 144.678 186.671 144.38L191.013 136.098L195.439 138.418Z" fill="#263238"/>
<path d="M191.587 145.077L187.692 143.005C187.394 142.848 187.172 142.578 187.074 142.256C186.977 141.937 187.008 141.593 187.158 141.296L188.127 139.442C188.284 139.144 188.554 138.922 188.876 138.824C189.198 138.717 189.549 138.748 189.847 138.911L193.741 140.983C194.04 141.143 194.265 141.412 194.37 141.735C194.468 142.057 194.433 142.406 194.273 142.703L193.307 144.546C193.154 144.847 192.887 145.075 192.565 145.178C192.341 145.244 192.104 145.249 191.877 145.194C191.775 145.171 191.677 145.132 191.587 145.077ZM189.44 139.438C189.33 139.416 189.217 139.426 189.113 139.467C188.954 139.517 188.821 139.626 188.74 139.771L187.771 141.625C187.698 141.772 187.683 141.942 187.73 142.1C187.777 142.26 187.887 142.395 188.034 142.473L191.929 144.545C192.077 144.628 192.253 144.643 192.414 144.588C192.57 144.536 192.7 144.427 192.777 144.282L193.745 142.428C193.828 142.284 193.843 142.11 193.786 141.953C193.74 141.793 193.63 141.658 193.483 141.58L189.588 139.508L189.432 139.469L189.44 139.438Z" fill="white"/>
<path d="M206.936 106.19C206.095 106.411 201.066 111.714 200.029 113.248C198.993 114.781 198.816 115.817 199.495 116.412C200.174 117.008 200.963 117.61 201.182 117.624C201.402 117.638 200.307 119.223 201.518 120.128C202.728 121.033 203.398 120.911 203.398 120.911C203.398 120.911 202.913 123.306 204.519 124.072C206.125 124.837 206.888 124.113 207.156 124.241C207.423 124.368 209.087 121.662 209.087 121.662L210.819 124.747C210.819 124.747 211.754 123.93 212.739 122.338C213.724 120.747 213.969 116.074 213.969 116.074L213.358 111.842L215.226 105.946C215.226 105.946 208.038 104.495 207.973 104.657C207.907 104.818 206.936 106.19 206.936 106.19Z" fill="#E9B376"/>
<path d="M247.291 111.493C247.291 111.493 245.231 111.223 246.092 109.409C246.954 107.594 249.552 105.628 249.552 105.628L249.019 90.4321L249.957 49.5774L257.614 48.197L266.025 46.8158L269.767 43.8523L279.377 44.0175L283.906 46.9244L288.815 47.9224C288.767 47.9886 297.114 69.9794 293.552 87.4202C289.989 104.861 287.541 115.873 287.056 116.97C286.075 119.191 284.31 118.356 284.31 118.356L247.291 111.493Z" fill="#8ED7C3"/>
<path opacity="0.7" d="M247.291 111.493C247.291 111.493 245.231 111.223 246.092 109.409C246.954 107.594 249.297 106.021 249.297 106.021L249.019 90.4321L249.488 70.0121L249.957 49.5774L257.614 48.197L266.025 46.8158L269.767 43.8523L279.304 43.9187L283.906 46.9244L288.815 47.9224C288.767 47.9886 297.114 69.9794 293.552 87.4202C289.989 104.861 287.541 115.873 287.056 116.97C286.075 119.191 284.31 118.356 284.31 118.356L247.291 111.493Z" fill="white"/>
<path opacity="0.1" d="M275.226 116.829C275.212 116.829 275.198 116.828 275.184 116.826C275.048 116.803 274.956 116.674 274.979 116.538C277.644 100.74 277.496 81.6147 277.366 64.7407C277.336 60.6894 277.306 56.8633 277.312 53.1284C277.312 52.9907 277.425 52.8789 277.562 52.8789C277.701 52.8789 277.812 52.9912 277.812 53.1294C277.806 56.8618 277.836 60.687 277.866 64.7368C277.996 81.6313 278.144 100.78 275.472 116.621C275.451 116.743 275.346 116.829 275.226 116.829Z" fill="#263238"/>
<path opacity="0.2" d="M266.439 47.3137C266.776 48.058 272.407 56.2562 272.407 56.2562L277.562 53.1287C277.6 53.0856 272.97 57.5663 272.942 57.61L271.657 57.6461L266.439 47.3137Z" fill="black"/>
<path opacity="0.2" d="M278.035 53.0615L281.619 54.9077C281.619 54.9077 283.469 51.2821 283.619 50.2705C283.769 49.259 283.812 47.5376 283.812 47.5376L284.303 47.5692C284.303 47.5692 284.542 50.4179 283.677 52.4585C282.761 54.6194 281.699 56.6942 281.699 56.6942L278.035 53.0615Z" fill="black"/>
<path d="M267.737 27.1639C267.737 27.1639 259.724 20.0695 260.13 17.7706C260.537 15.4717 261.832 16.2137 261.832 16.2137C261.832 16.2137 259.133 10.5766 261.942 9.68501C264.75 8.79331 264.922 9.73431 264.922 9.73431C264.922 9.73431 263.924 5.16241 266.166 3.84681C267.871 2.83261 268.537 4.94211 268.537 4.94211C268.537 4.94211 271.862 0.0367087 275.702 0.199009C277.598 0.388309 278.504 1.63361 278.201 3.09041C278.188 3.15361 278.173 3.21611 278.155 3.27811C278.155 3.27811 285.987 0.0799084 289.54 2.28441C293.092 4.48881 288.341 6.70511 288.341 6.70511C288.341 6.70511 295.913 6.09241 297.323 9.16591C298.442 11.6067 295.043 13.1549 295.043 13.1549C295.043 13.1549 296.226 13.5876 297.224 14.5322C299.124 16.3315 297.861 19.6306 295.244 19.6639L295.183 19.6645C294.781 19.6667 294.058 19.7371 293.773 19.4541C293.773 19.4541 295.007 22.2201 292.191 23.0337C289.374 23.8475 288.121 20.5764 288.121 20.5764L267.737 27.1639Z" fill="#263238"/>
<path d="M269.896 45.0026C269.896 45.0026 270.444 41.0735 267.863 31.4328C267.864 31.4226 268.373 31.2091 268.373 31.1988C268.018 29.8507 267.636 28.6037 267.274 27.5222C267.266 27.4908 267.267 27.4805 267.267 27.4805L280.208 35.8529C279.837 38.9111 280.814 44.8556 281.419 47.3699L277.883 53.0478L269.896 45.0026Z" fill="#E9B376"/>
<path opacity="0.2" d="M280.344 40.1662L272.834 38.3096C273.471 40.67 275.489 43.4939 280.735 43.8293C280.735 43.8293 280.266 41.1927 280.344 40.1662Z" fill="black"/>
<path d="M289.736 13.3904C291.217 16.4549 291.626 23.1359 286.825 21.6459C282.023 20.1561 287.192 8.12273 289.736 13.3904Z" fill="#263238"/>
<path d="M267.297 21.1101C268.009 29.4391 268.243 34.1509 272.565 38.2923C279.068 44.5218 289.05 40.5544 290.845 32.1559C292.461 24.5965 291.025 12.2459 282.766 9.20069C274.629 6.20039 266.584 12.7812 267.297 21.1101Z" fill="#E9B376"/>
<path d="M279.294 23.2323C279.314 24.0859 279.783 24.7625 280.342 24.7437C280.901 24.7249 281.337 24.0175 281.317 23.1639C281.296 22.3103 280.827 21.6337 280.268 21.6525C279.71 21.6713 279.273 22.3786 279.294 23.2323Z" fill="#263238"/>
<path d="M287.669 23.1983C287.689 24.0518 288.159 24.7285 288.717 24.7097C289.276 24.6909 289.712 23.9836 289.692 23.1299C289.672 22.2763 289.202 21.5996 288.644 21.6186C288.085 21.6376 287.649 22.3446 287.669 23.1983Z" fill="#263238"/>
<path d="M284.934 22.7903C284.934 22.7903 287.738 26.9669 288.645 28.6732C287.483 29.7747 285.424 29.329 285.424 29.329L284.934 22.7903Z" fill="#D58745"/>
<path d="M277.335 18.6075C277.469 18.6458 277.62 18.613 277.728 18.5078C279.01 17.2599 280.452 17.556 280.467 17.559C280.682 17.6058 280.897 17.4695 280.946 17.2548C280.995 17.04 280.859 16.8276 280.645 16.7804C280.569 16.7635 278.762 16.3918 277.17 17.9406C277.011 18.0951 277.007 18.3475 277.161 18.5042C277.211 18.5551 277.271 18.5892 277.335 18.6075Z" fill="#263238"/>
<path d="M291.315 19.4295C291.388 19.4082 291.456 19.366 291.509 19.3033C291.652 19.1341 291.633 18.881 291.466 18.7384C289.791 17.306 288.03 17.8309 287.948 17.8442C287.737 17.9084 287.616 18.1318 287.677 18.3436C287.739 18.5548 287.958 18.6744 288.168 18.613C288.241 18.5881 289.603 18.2015 290.947 19.351C291.052 19.441 291.191 19.4657 291.315 19.4295Z" fill="#263238"/>
<path d="M282.871 34.8427C282.898 34.8535 282.795 34.8224 282.871 34.8427Z" fill="#263238"/>
<path d="M284.244 31.6477C282.914 31.1934 280.464 30.2406 279.296 28.9563C279.296 28.9563 279.072 29.3182 278.935 29.8697C278.811 30.3449 278.736 30.9513 278.88 31.5849C279.15 32.7424 280.129 34.0096 282.82 34.8244C282.857 34.8369 282.864 34.8397 282.871 34.8427L282.898 34.8497C282.898 34.8497 284.35 35.2568 285.157 31.9398C285.157 31.9398 284.799 31.8437 284.244 31.6477Z" fill="#263238"/>
<path d="M284.244 31.6476L283.707 32.5365C281.175 31.7628 279.495 30.8782 278.935 29.8695C279.072 29.3181 279.296 28.9563 279.296 28.9563C280.464 30.2405 282.914 31.1934 284.244 31.6476Z" fill="white"/>
<path d="M282.82 34.8244C280.129 34.0096 279.15 32.7424 278.88 31.585C279.787 31.8981 280.844 32.3763 281.689 33.082C282.337 33.619 282.657 34.2424 282.82 34.8244Z" fill="#DC5753"/>
<path d="M289.344 12.2769C288.094 11.1384 286.548 10.3803 284.987 9.73151C282.397 8.65471 279.678 7.83232 276.885 7.57862C274.091 7.32482 271.211 7.65841 268.651 8.80711C268.092 9.05831 267.535 9.35841 267.137 9.82531C266.759 10.2684 266.551 10.8289 266.368 11.382C265.256 14.746 264.779 18.3187 264.969 21.8568L269.643 27.6027C270.371 27.2277 271.139 26.816 271.547 26.105C271.926 25.4434 271.925 24.6364 271.875 23.8754C271.823 23.0859 271.728 22.2992 271.592 21.5198C272.324 21.9092 273.234 21.3372 273.656 20.6235C274.287 19.5564 274.28 18.241 274.22 17.0026C275.16 17.226 276.235 16.9702 276.873 16.2446C277.512 15.5189 277.598 14.321 276.968 13.5887C280.025 14.0721 283.176 13.9487 286.186 13.2278C285.971 13.6049 286.2 14.0763 286.457 14.4268C287.496 15.8473 289.075 16.8626 290.799 17.2189C291.052 17.2711 291.368 17.2863 291.514 17.0732C291.592 16.9597 291.595 16.8124 291.59 16.6749C291.528 14.9855 290.594 13.4154 289.344 12.2769Z" fill="#263238"/>
<path d="M264.169 28.1423C264.888 30.2739 266.527 31.8654 268.202 32.6475C270.721 33.8243 272.459 31.6722 272.16 29.0498C271.891 26.6896 270.256 23.2331 267.535 23.1561C264.854 23.0803 263.348 25.7051 264.169 28.1423Z" fill="#E9B376"/>
<path opacity="0.2" d="M269.888 28.4471C269.765 28.4471 269.657 28.3563 269.64 28.2313C269.547 27.5565 269.277 26.9154 268.861 26.3773C268.594 26.0301 268.149 25.5888 267.558 25.4584C267.033 25.3417 266.478 25.5399 266.231 25.9252C266.156 26.0419 266.003 26.0765 265.885 26.0008C265.769 25.9266 265.734 25.7718 265.809 25.6556C266.171 25.0907 266.937 24.8095 267.665 24.9701C268.404 25.1332 268.939 25.659 269.258 26.0716C269.727 26.6786 270.03 27.4017 270.136 28.163C270.154 28.2997 270.059 28.4261 269.922 28.4447C269.91 28.4462 269.898 28.4471 269.888 28.4471Z" fill="black"/>
<path d="M331.292 32.7288H322.071L321.416 57.8328C321.416 57.8328 304.805 52.1649 300.896 50.5036C296.987 48.8424 293.289 48.0886 293.289 48.0886L291.564 49.0476L295.112 64.6658C295.112 64.6658 323.05 78.1547 332.403 71.1454C341.756 64.1361 331.292 32.7288 331.292 32.7288Z" fill="#263238"/>
<path opacity="0.2" d="M298.196 66.0571C298.08 65.6635 299.499 57.3975 299.499 57.3975L301.689 67.5056L298.196 66.0571Z" fill="black"/>
<path opacity="0.2" d="M248.54 77.3154L248.42 82.9079C248.42 82.9079 269.941 70.6641 273.507 66.7719C278.113 61.7445 278.619 58.8464 278.619 58.8464L248.54 77.3154Z" fill="black"/>
<path opacity="0.2" d="M243.534 141.043L261.937 148.313C261.937 148.313 270.13 106.561 270.159 104.644C270.188 102.727 270.23 97.1809 270.23 97.1809L243.908 137.505L243.534 141.043Z" fill="black"/>
<path d="M249.143 49.2961C248.368 49.2864 224.512 65.0221 220.615 69.1732C216.717 73.3244 205.138 106.385 205.138 106.385L214.655 109.422L228.429 79.117L251.09 69.3192C251.09 69.3192 257.009 59.6013 257.189 59.159C257.369 58.7167 249.143 49.2961 249.143 49.2961Z" fill="#263238"/>
<path d="M249.143 49.2962L264.104 46.1842L267.913 45.3203C267.913 45.3203 272.592 88.1189 272.001 90.8348C271.409 93.5507 260.199 145.232 260.199 145.232L234.477 134.493L247.988 102.956L249.143 49.2962Z" fill="#263238"/>
<path opacity="0.2" d="M267.322 45.4529C267.322 45.4529 261.02 53.3221 262.667 56.0431C264.314 58.7642 266.986 64.6582 266.986 64.6582C266.986 64.6582 264.619 68.5587 264.683 71.5057C264.747 74.4527 271.551 81.8446 271.551 81.8446C270.946 71.4951 268.901 58.6079 267.906 45.3203L267.322 45.4529Z" fill="black"/>
<path opacity="0.2" d="M248.694 70.3543V62.6743L241.56 73.4389L248.694 70.3543Z" fill="black"/>
<path opacity="0.2" d="M249.968 111.146L261.473 115.98L258.799 121.046L246.734 115.471L249.968 111.146Z" fill="black"/>
<path d="M284.736 46.6755C284.736 46.6755 281.099 84.7578 280.683 87.8943C280.267 91.0308 282.014 141.551 282.014 141.551L301.689 135.898L292.48 103.522C292.48 103.522 298.865 65.0239 299.281 56.4454L299.881 52.4877C299.881 52.4877 297.473 49.1728 294.175 48.3042C290.789 47.412 285.163 46.7624 284.736 46.6755Z" fill="#263238"/>
<path opacity="0.2" d="M285.334 46.7623C285.334 46.7623 291.714 54.6773 290.067 57.3984C288.42 60.1194 285.747 66.0134 285.747 66.0134C285.747 66.0134 288.115 69.9139 288.051 72.8609C287.986 75.8079 281.321 81.8446 281.321 81.8446C282.042 71.7414 283.741 59.9632 284.736 46.6755L285.334 46.7623Z" fill="black"/>
<path opacity="0.2" d="M295.022 112.459L286.41 115.633L289.084 120.699L296.526 117.745L295.022 112.459Z" fill="black"/>
<path d="M13.6343 401.502L0.584473 386.346L63.3037 332.341L144.26 333.053L207.647 285.273L281.727 285.874L324.196 262.459L388.372 261.08L429.268 221.314L542.358 158.347L552.087 175.82L441.311 237.5L396.671 280.906L329.544 282.35L286.799 305.915L214.269 305.328L150.875 353.111L70.6519 352.405L13.6343 401.502Z" fill="#8ED7C3"/>
<path d="M528.154 146.456L555.139 192.903C555.708 192.112 566.29 153.41 566.29 153.41L528.154 146.456Z" fill="#8ED7C3"/>
<path opacity="0.3" d="M532.398 163.891L542.398 181.215L546.883 178.692L536.79 161.384L532.398 163.891Z" fill="black"/>
<path d="M274.818 55.8236L276.589 59.0357C276.589 59.0357 246.949 78.1195 220.432 78.1843L218.244 87.0815L227.228 89.3292C227.228 89.3292 268.348 76.4497 278.925 59.3804L282.014 55.3385L279.177 52.5256L278.206 53.0718L274.818 55.8236Z" fill="#8ED7C3"/>
<path opacity="0.1" d="M490.569 201.814H490.56C490.423 201.809 490.314 201.693 490.319 201.556C490.351 200.643 490.829 199.742 491.565 199.204C492.303 198.667 493.305 198.482 494.184 198.734C494.317 198.771 494.394 198.91 494.356 199.043C494.318 199.175 494.185 199.255 494.048 199.215C493.316 199.01 492.478 199.158 491.86 199.608C491.245 200.057 490.846 200.81 490.819 201.573C490.814 201.708 490.703 201.814 490.569 201.814Z" fill="black"/>
<path d="M531.323 403.525H534.775L528.394 328.941H524.942L531.323 403.525Z" fill="#8ED7C3"/>
<path opacity="0.6" d="M531.323 403.525H534.775L528.394 328.941H524.942L531.323 403.525Z" fill="white"/>
<path d="M496.014 403.525H492.562L498.943 328.941H502.394L496.014 403.525Z" fill="#8ED7C3"/>
<path opacity="0.6" d="M496.014 403.525H492.562L498.943 328.941H502.394L496.014 403.525Z" fill="white"/>
<path d="M517.215 328.95H446.61C449.58 321.597 454.981 317.091 460.818 317.091H512.463L517.215 328.95Z" fill="#8ED7C3"/>
<path d="M484.163 403.525H487.615L481.234 328.941H477.783L484.163 403.525Z" fill="#8ED7C3"/>
<path opacity="0.6" d="M484.163 403.525H487.615L481.234 328.941H477.783L484.163 403.525Z" fill="white"/>
<path d="M448.854 403.525H445.402L451.783 328.941H455.234L448.854 403.525Z" fill="#8ED7C3"/>
<path opacity="0.6" d="M448.854 403.525H445.402L451.783 328.941H455.234L448.854 403.525Z" fill="white"/>
<path d="M532.981 328.95H494.175C497.555 321.597 503.692 317.091 510.334 317.091H524.068C530.71 317.091 533.981 320.921 532.981 328.95Z" fill="#8ED7C3"/>
<path opacity="0.5" d="M532.981 328.95H494.175C497.555 321.597 503.692 317.091 510.334 317.091H524.068C530.71 317.091 533.981 320.921 532.981 328.95Z" fill="black"/>
<path d="M514.004 280.458C512.187 278.06 507.979 272.327 507.446 266.293L507.443 266.241C507.41 265.854 507.391 265.466 507.39 265.077C507.294 262.511 507.31 259.473 507.479 255.827C507.502 255.257 507.536 254.654 507.57 254.05C507.673 252.137 507.821 250.076 508.003 247.833C508.345 243.813 508.835 239.224 509.495 234.009C509.643 232.802 510.78 230.93 510.951 229.654C511.714 223.972 506.534 219.866 500.943 220.094C499.451 220.15 497.868 220.253 496.263 220.412C489.988 221.004 484.841 221.54 479.387 222.838C477.576 223.259 475.709 223.772 473.921 224.284C467.498 226.129 464.538 234.35 464.458 240.966C464.378 247.133 468.703 259.717 471.665 270.771C472.101 277.112 468.638 280.566 469.681 282.776C470.723 284.987 501.374 278.981 514.004 286.512C514.004 286.512 515.942 283.017 514.004 280.458Z" fill="#8ED7C3"/>
<path opacity="0.6" d="M514.004 280.458C512.187 278.06 507.979 272.327 507.446 266.293L507.443 266.241C507.41 265.854 507.391 265.466 507.39 265.077C507.294 262.511 507.31 259.473 507.479 255.827C507.502 255.257 507.536 254.654 507.57 254.05C507.673 252.137 507.821 250.076 508.003 247.833C508.345 243.813 508.835 239.224 509.495 234.009C509.643 232.802 510.78 230.93 510.951 229.654C511.714 223.972 506.534 219.866 500.943 220.094C499.451 220.15 497.868 220.253 496.263 220.412C489.988 221.004 484.841 221.54 479.387 222.838C477.576 223.259 475.709 223.772 473.921 224.284C467.498 226.129 464.538 234.35 464.458 240.966C464.378 247.133 468.703 259.717 471.665 270.771C472.101 277.112 468.638 280.566 469.681 282.776C470.723 284.987 501.374 278.981 514.004 286.512C514.004 286.512 515.942 283.017 514.004 280.458Z" fill="white"/>
<path opacity="0.2" d="M509.121 272.446C509.121 272.446 498.305 274.822 493.272 275.051C488.238 275.28 477.347 278.711 477.347 278.711L473.474 281.114L472.109 277.918L478.629 272.02L507.253 266.219C507.603 268.612 508.917 271.965 509.121 272.446Z" fill="black"/>
<path d="M474.375 282.504C483.767 281.567 495.985 280.817 511.886 280.458C511.886 280.458 523.741 308.381 509.682 316.723C505.434 319.243 498.423 320.24 490.707 320.405C481.754 320.595 474.375 313.42 474.375 304.465V282.504Z" fill="#263238"/>
<path d="M505.083 305.502V318.621C493.391 321.994 469.122 320.71 454.696 319.532C448.2 319.002 443.204 313.576 443.204 307.057V296.293C443.204 292.724 445.41 289.534 448.751 288.277C455.744 285.647 468.471 281.727 481.784 281.933C494.693 282.132 505.083 292.592 505.083 305.502Z" fill="#263238"/>
<path d="M450.482 405.636L464.836 399.304L469.376 394.235L470.781 396.144L472.497 395.396C473.297 389.025 470.201 386.045 468.576 384.691C468.46 384.588 468.292 384.472 468.099 384.317C468.035 384.266 467.97 384.214 467.906 384.175C467.88 384.163 467.854 384.137 467.828 384.124C467.764 384.072 467.686 384.021 467.609 383.956C467.596 383.943 467.583 383.943 467.557 383.93V383.918C467.519 383.892 467.48 383.866 467.428 383.84L459.548 387.322C459.548 387.322 459.419 387.735 459.174 388.406C458.387 390.624 456.44 395.68 454.286 398.375C454.196 398.491 454.106 398.607 454.015 398.711C453.757 399.02 453.487 399.291 453.216 399.51C447.18 404.359 450.482 405.636 450.482 405.636Z" fill="#263238"/>
<path d="M453.985 398.672C456.229 399.549 459.402 397.331 461.814 394.429C463.168 392.791 464.471 390.173 465.618 388.058C466.366 386.691 467.05 385.53 467.643 384.976C467.979 384.679 468.288 384.55 468.559 384.679C468.559 384.679 468.546 384.666 468.546 384.653C468.43 384.55 468.262 384.434 468.069 384.279C468.017 384.241 467.953 384.189 467.875 384.137C467.849 384.125 467.824 384.099 467.798 384.086C467.734 384.034 467.656 383.982 467.579 383.918C467.566 383.905 467.553 383.905 467.527 383.892V383.879C467.489 383.854 467.45 383.828 467.398 383.802C466.573 383.183 465.657 382.551 465.657 382.551L458.244 384.407L458.822 387.245C457.996 390.173 456.255 395.745 454.256 398.337C454.166 398.453 454.075 398.569 453.985 398.672Z" fill="#E9B376"/>
<path d="M441.918 343.473C446.494 354.839 453.599 369.322 458.844 387.482C458.946 387.813 459.038 388.143 459.129 388.474C459.231 388.827 459.334 389.169 459.436 389.523L464.851 388.2L465.089 387.258C465.089 387.258 466.96 385.805 466.641 385.476C466.434 385.261 466.573 384.86 466.539 384.518V384.507C465.08 371.841 459.459 325.351 453.885 315.695C453.885 315.695 460.2 316.869 464.989 316.06C468.443 315.478 472.627 291.595 472.627 291.595C472.627 291.595 463.826 289.064 454.797 289.064H454.671C454.671 289.064 436.923 294.314 432.41 298.289C428.169 302.026 427.534 308.149 429.886 315.426C432.043 322.099 436.248 329.39 441.918 343.473Z" fill="#E9B376"/>
<path opacity="0.1" d="M436.846 304.034C437.897 299.904 445.501 295.865 453.356 293.7C454.632 292.047 451.368 290.094 451.368 290.094L466.83 288.695L469.529 290.637L474.144 291.598L470.032 310.073L453.141 313.03L463.826 362.618L465.089 372.416C465.089 372.416 446.99 333.566 443.204 325.305C439.418 317.044 435.025 311.194 436.846 304.034Z" fill="black"/>
<path d="M472.629 291.598C472.629 291.598 448.499 296.71 443.785 300.433C439.771 303.604 439.663 307.743 440.964 311.651C444.56 322.456 457.462 340.472 472.232 392.181L480.695 389.523C479.884 389.522 477.757 362.526 477.128 340.841C476.832 330.613 471.587 321.793 469.535 318.231C469.535 318.231 478.159 319.395 482.946 318.593C489.097 317.562 492.985 297.04 472.629 291.598Z" fill="#E9B376"/>
<path opacity="0.2" d="M470.032 319.2C470.032 319.2 466.831 313.891 462.839 311.651C462.839 311.651 467.751 311.972 470.822 318.385L469.535 318.231L470.032 319.2Z" fill="black"/>
<path d="M483.567 400.656L481.804 401.04L480.338 398.602C480.16 398.305 479.754 398.248 479.5 398.483L474.488 403.126L460.799 406.13C460.799 406.13 457.752 402.908 464.557 400.855C464.881 400.757 465.163 400.502 465.47 400.254C468.838 397.67 472.875 390.553 472.875 390.553L480.986 388.773C480.986 388.773 481.358 389.117 481.907 389.797C483.185 391.387 485.537 394.797 483.567 400.656Z" fill="#263238"/>
<path d="M481.907 389.797L481.912 389.821C480.58 388.863 476.856 395.175 473.679 397.743C470.839 400.031 467.412 401.518 465.47 400.254C468.838 397.67 473.054 388.689 473.054 388.689L479.577 387.258C479.577 387.258 481.358 389.117 481.907 389.797Z" fill="#E9B376"/>
<path d="M437.386 185.427C437.386 185.427 436.839 185.098 435.478 185.493C434.117 185.887 434.554 187.639 434.357 187.579C434.159 187.519 433.269 187.787 432.476 188.085C431.684 188.383 431.497 189.351 431.9 191.038C432.303 192.725 434.947 197.759 435.612 198.232C435.612 198.232 435.426 202.298 435.43 202.461C435.434 202.624 443.755 202.273 443.755 202.273L443.131 196.671L445.063 193.16C445.063 193.16 446.391 188.98 446.052 187.258C445.993 186.957 445.928 186.678 445.859 186.421C445.607 185.471 444.442 185.117 443.689 185.75L442.625 186.645C442.625 186.645 442.327 185.42 442.067 184.546C441.898 183.978 441.419 183.538 440.83 183.463C440.709 183.448 440.589 183.443 440.477 183.456C439.734 183.538 439.752 184.328 439.752 184.328C439.752 184.328 438.5 183.838 437.71 185.061C437.419 185.512 437.386 185.427 437.386 185.427Z" fill="#E9B376"/>
<path opacity="0.1" d="M440.027 194.664C439.933 194.664 439.842 194.609 439.8 194.517C439.611 194.102 439.624 193.588 439.836 193.108C439.993 192.752 440.251 192.415 440.646 192.048C441.038 191.685 441.474 191.369 441.939 191.107C441.328 191.056 440.702 190.917 440.167 190.551C439.837 190.325 439.641 190.063 439.585 189.769C439.479 189.212 439.64 188.666 440.003 188.343C440.47 187.928 440.991 187.538 441.595 187.086C441.985 186.794 442.407 186.479 442.858 186.122C442.966 186.038 443.124 186.055 443.21 186.164C443.296 186.272 443.277 186.429 443.169 186.515C442.713 186.874 442.288 187.192 441.893 187.487C441.3 187.932 440.786 188.315 440.335 188.717C440.058 188.964 440.019 189.374 440.077 189.676C440.114 189.873 440.3 190.036 440.448 190.138C441.121 190.598 441.971 190.647 442.975 190.633C443.111 190.584 443.249 190.54 443.389 190.499C443.489 190.47 443.594 190.506 443.657 190.588C443.72 190.67 443.725 190.782 443.672 190.87C443.516 191.126 443.203 191.131 443.065 191.133C442.298 191.42 441.587 191.858 440.986 192.415C440.642 192.734 440.422 193.019 440.293 193.31C440.142 193.654 440.127 194.028 440.255 194.31C440.312 194.436 440.257 194.584 440.131 194.641C440.098 194.656 440.062 194.664 440.027 194.664Z" fill="#263238"/>
<path opacity="0.1" d="M434.643 193.168C434.254 193.168 433.866 192.951 433.46 192.505C433.106 192.117 432.794 191.688 432.531 191.23C432.451 191.089 432.239 190.718 432.401 190.368C432.459 190.243 432.608 190.187 432.732 190.246C432.858 190.304 432.913 190.452 432.854 190.578C432.818 190.656 432.854 190.788 432.965 190.982C433.209 191.408 433.5 191.807 433.829 192.168C434.156 192.527 434.439 192.695 434.695 192.666C434.954 192.642 435.151 192.425 435.251 192.23C435.383 191.969 435.414 191.65 435.427 191.373C435.463 190.639 435.393 189.91 435.22 189.198C435.156 189.022 435.105 188.842 435.069 188.659C435.043 188.528 435.124 188.401 435.252 188.368C435.387 188.334 435.512 188.408 435.553 188.534C435.607 188.706 435.656 188.878 435.699 189.052C435.878 189.534 436.172 189.973 436.554 190.32C436.836 190.579 437.237 190.767 437.488 190.596C437.674 190.474 437.75 190.203 437.735 189.717C437.693 188.372 437.505 187.028 437.176 185.725C437.142 185.591 437.223 185.455 437.356 185.421C437.486 185.384 437.626 185.468 437.66 185.603C437.998 186.941 438.191 188.32 438.235 189.702C438.249 190.159 438.207 190.721 437.765 191.013C437.257 191.351 436.612 191.05 436.216 190.689C436.108 190.592 436.008 190.487 435.912 190.377C435.938 190.716 435.943 191.056 435.927 191.396C435.911 191.727 435.871 192.11 435.697 192.456C435.493 192.856 435.128 193.127 434.742 193.164C434.709 193.167 434.676 193.168 434.643 193.168Z" fill="#263238"/>
<path opacity="0.1" d="M439.159 191.018C439 191.018 438.834 190.99 438.667 190.933C438.313 190.814 437.993 190.584 437.768 190.286C437.685 190.176 437.706 190.019 437.815 189.936C437.927 189.852 438.083 189.874 438.166 189.984C438.332 190.203 438.566 190.372 438.827 190.46C438.96 190.504 439.159 190.546 439.346 190.494C439.497 190.452 439.622 190.346 439.664 190.223C439.709 190.092 439.855 190.025 439.981 190.068C440.112 190.113 440.182 190.255 440.137 190.385C440.041 190.663 439.79 190.889 439.48 190.976C439.378 191.004 439.271 191.018 439.159 191.018Z" fill="#263238"/>
<path opacity="0.1" d="M440.609 188.315C440.485 188.315 440.378 188.224 440.361 188.098C440.178 186.683 439.986 185.836 439.543 184.478C439.5 184.346 439.571 184.205 439.703 184.162C439.834 184.12 439.976 184.191 440.018 184.322C440.473 185.715 440.669 186.583 440.857 188.033C440.875 188.17 440.778 188.295 440.642 188.313C440.631 188.315 440.62 188.315 440.609 188.315Z" fill="#263238"/>
<path d="M444.626 199.136C444.091 199.385 450.58 224.278 450.58 224.278H476.896C476.896 224.278 465.021 239.991 464.458 240.966C463.895 241.942 444.091 241.585 439.273 234.27C434.456 226.955 434.024 199.97 434.024 199.97L444.626 199.136Z" fill="#8ED7C3"/>
<path opacity="0.6" d="M444.626 199.136C444.091 199.385 450.58 224.278 450.58 224.278H476.896C476.896 224.278 465.021 239.991 464.458 240.966C463.895 241.942 444.091 241.585 439.273 234.27C434.456 226.955 434.024 199.97 434.024 199.97L444.626 199.136Z" fill="white"/>
<path opacity="0.2" d="M464.46 241.36C464.46 241.36 464.768 235.948 467.585 231.054C467.585 231.054 463.223 236.616 462.568 241.36H464.46Z" fill="black"/>
<path d="M495.87 185.635C499.172 190.849 500.384 194.005 500.899 199.128C501.501 205.116 501.474 210.427 500.206 212.027C498.543 214.127 479.633 216.903 468.968 216.964C468.581 216.967 468.105 213.602 468.105 213.602C468.105 213.602 466.749 216.973 466.248 216.974C463.337 216.976 461.47 216.955 461.47 216.955C461.47 216.955 463.648 211.887 465.771 193.87C466.808 185.07 475.43 181.176 480.574 180.28C489.149 178.785 495.87 185.635 495.87 185.635Z" fill="#263238"/>
<path d="M471.337 203.676C468.327 198.986 464.959 186.129 476.383 181.585C490.643 175.912 497.562 184.855 499.233 193.955C500.904 203.056 496.061 210.217 486.453 209.967C476.844 209.718 473.419 206.919 471.337 203.676Z" fill="#263238"/>
<path d="M495.182 220.967C495.182 220.967 491.974 223.434 487.843 226.993C486.983 227.735 486.036 228.376 485.032 228.909C482.326 230.347 479.858 231.169 479.19 229.864C479.041 229.577 478.927 229.267 478.842 228.941C478.275 226.755 478.508 223.683 480.274 222.277C482.266 220.692 483.226 219.336 482.867 217.19C482.679 215.973 482.238 214.718 481.724 213.498L483.291 211.665L491.488 203.393C491.283 208.917 490.865 217.968 495.182 220.967Z" fill="#E9B376"/>
<path opacity="0.2" d="M482.934 217.661C485.188 216.323 487.662 214.002 487.365 211.35C487.233 210.233 486.992 209.175 486.725 208.497L482.146 214.559C482.522 215.536 482.659 216.182 482.934 217.661Z" fill="black"/>
<path d="M493.808 194.518C493.037 202.94 492.888 206.512 488.542 210.928C482.005 217.57 471.947 215.336 470.216 206.988C468.657 199.474 470.181 186.963 478.449 183.424C486.595 179.937 494.58 186.096 493.808 194.518Z" fill="#E9B376"/>
<path d="M483.249 197.569C483.201 198.418 482.68 199.115 482.084 199.128C481.488 199.14 481.044 198.463 481.091 197.615C481.138 196.766 481.659 196.069 482.255 196.056C482.851 196.043 483.296 196.721 483.249 197.569Z" fill="#263238"/>
<path d="M474.493 197.416C474.446 198.225 473.934 198.892 473.349 198.904C472.764 198.916 472.327 198.27 472.374 197.46C472.421 196.651 472.933 195.984 473.518 195.972C474.103 195.959 474.54 196.606 474.493 197.416Z" fill="#263238"/>
<path d="M484.44 194.46C484.324 194.483 484.204 194.462 484.108 194.394C482.613 193.327 481.062 193.897 481.044 193.903C480.815 193.988 480.568 193.888 480.498 193.673C480.428 193.458 480.56 193.212 480.792 193.124C480.873 193.093 482.819 192.376 484.675 193.701C484.859 193.833 484.883 194.096 484.727 194.287C484.651 194.379 484.548 194.438 484.44 194.46Z" fill="#263238"/>
<path d="M471.514 193.326C471.421 193.282 471.347 193.206 471.312 193.106C471.24 192.899 471.363 192.67 471.586 192.595C473.82 191.837 475.354 192.921 475.419 192.969C475.6 193.101 475.628 193.35 475.48 193.526C475.333 193.702 475.066 193.738 474.884 193.607C474.825 193.564 473.622 192.74 471.846 193.343C471.731 193.382 471.612 193.373 471.514 193.326Z" fill="#263238"/>
<path d="M486.772 187.029C484.092 189.843 485.424 200.472 492.947 201.86C501.612 199.822 494.769 178.631 486.772 187.029Z" fill="#263238"/>
<path d="M476.713 205.282C477.399 206.337 478.223 208.382 478.223 208.382C478.422 208.341 478.621 208.3 478.816 208.248C481.498 207.621 482.535 206.444 482.87 205.329C483.052 204.719 483.016 204.122 482.925 203.649C482.825 203.102 482.63 202.734 482.63 202.734C481.407 203.916 478.952 204.693 477.624 205.054C477.069 205.21 476.713 205.282 476.713 205.282Z" fill="#263238"/>
<path d="M477.624 205.054L478.093 205.956C480.617 205.359 482.314 204.6 482.925 203.649C482.825 203.102 482.63 202.734 482.63 202.734C481.407 203.916 478.952 204.693 477.624 205.054Z" fill="white"/>
<path d="M478.816 208.248C481.498 207.621 482.535 206.444 482.87 205.329C481.965 205.578 480.901 205.979 480.031 206.616C479.364 207.1 479.012 207.689 478.816 208.248Z" fill="#DC5753"/>
<path d="M476.854 196.824C476.854 196.824 475.267 200.62 473.612 202.478C474.689 203.519 476.612 202.972 476.612 202.972L476.854 196.824Z" fill="#D58745"/>
<path d="M480.574 195.655L482.508 196.112C481.632 197.097 480.574 195.655 480.574 195.655Z" fill="#263238"/>
<path d="M471.936 195.571L473.869 196.028C472.993 197.013 471.936 195.571 471.936 195.571Z" fill="#263238"/>
<path d="M478.507 181.618C475.182 182.747 471.649 188.503 471.06 190.717C475.79 191.492 488.539 187.061 488.539 187.061C488.539 187.061 497.046 189.411 492.737 185.097C488.427 180.784 478.507 181.618 478.507 181.618Z" fill="#263238"/>
<path d="M496.357 201.382C495.362 203.109 493.745 204.194 492.263 204.566C490.034 205.125 488.883 201.54 489.644 199.307C490.329 197.296 492.519 195.965 494.689 196.404C496.826 196.836 497.494 199.407 496.357 201.382Z" fill="#E9B376"/>
<path d="M457.956 216.294L457.679 215.878C460.74 213.835 463.4 206.34 464.536 203.139C465.781 199.629 466.264 195.862 466.729 192.22L467.226 192.283C466.756 195.952 466.271 199.746 465.007 203.307C463.757 206.829 461.156 214.158 457.956 216.294Z" fill="#263238"/>
<path opacity="0.2" d="M496.734 236.821L495.368 255.314L474.375 267.805L493.527 264.661L499.363 261.139L502.382 250.741L496.734 236.821Z" fill="black"/>
<path d="M461.109 284.866C461.241 283.525 463.367 278.609 464.666 276.648C465.965 274.686 471.086 269.82 471.086 269.82L477.339 273.317C477.339 273.317 477.558 276.172 475.787 277.69C474.766 278.566 473.671 279.341 473.671 279.341C473.671 279.341 473.957 280.407 473.964 281.601C473.972 282.923 473.702 284.554 472.614 284.503C471.527 284.452 471.126 280.95 471.073 280.444C471.124 280.957 471.426 284.542 469.97 284.668C468.566 284.789 468.334 281.048 468.334 281.048C468.334 281.048 468.26 282.791 468.216 283.681C468.172 284.572 467.279 285.347 466.453 284.356C465.496 283.208 465.411 281.226 465.411 281.226C465.411 281.226 464.654 282.386 463.521 284.913C462.705 286.732 460.998 285.999 461.109 284.866Z" fill="#E9B376"/>
<path opacity="0.1" d="M470.869 281.126L471.119 281.114L470.869 281.113C470.837 280.441 470.804 279.747 470.898 279.061C471.009 278.258 471.281 277.594 471.707 277.087C471.796 276.982 471.955 276.969 472.06 277.056C472.165 277.145 472.179 277.304 472.09 277.409C471.726 277.842 471.491 278.421 471.395 279.13C471.305 279.769 471.337 280.44 471.368 281.09L470.869 281.126Z" fill="black"/>
<path opacity="0.1" d="M468.273 281.838C468.141 281.838 468.03 281.734 468.023 281.6C467.99 280.926 467.956 280.227 468.052 279.535C468.164 278.732 468.436 278.068 468.86 277.561C468.948 277.455 469.107 277.442 469.212 277.53C469.318 277.619 469.332 277.776 469.243 277.882C468.88 278.316 468.646 278.895 468.548 279.603C468.458 280.25 468.491 280.924 468.523 281.575C468.53 281.714 468.424 281.831 468.286 281.838H468.273Z" fill="black"/>
<path opacity="0.1" d="M465.438 281.59C465.306 281.59 465.195 281.486 465.188 281.352C465.155 280.678 465.121 279.979 465.217 279.287C465.329 278.484 465.601 277.82 466.025 277.313C466.113 277.207 466.272 277.194 466.377 277.282C466.483 277.371 466.497 277.528 466.408 277.634C466.045 278.068 465.811 278.647 465.713 279.355C465.623 280.002 465.656 280.676 465.688 281.327C465.695 281.466 465.589 281.583 465.451 281.59H465.438Z" fill="black"/>
<path d="M497.332 235.074C497.332 235.654 499.195 256.317 499.195 256.317C498.034 258.493 474.144 266.785 471.086 269.82L476.659 275.554C476.659 275.554 505.083 269.82 509.672 266.484C513.588 263.637 513.258 258.643 513.258 251.824C513.258 245.005 511.768 235.074 511.768 235.074H497.332Z" fill="#E9B376"/>
<path d="M499.742 222.325C493.873 224.776 498.353 256.197 498.353 256.197L475.436 266.825L479.788 275.554C479.788 275.554 503.24 270.67 510.349 269.22C517.864 267.688 514.119 251.27 513.265 236.821C512.408 222.303 506.607 219.457 499.742 222.325Z" fill="#8ED7C3"/>
<path opacity="0.6" d="M499.742 222.325C493.873 224.776 498.353 256.197 498.353 256.197L475.436 266.825L479.788 275.554C479.788 275.554 503.24 270.67 510.349 269.22C517.864 267.688 514.119 251.27 513.265 236.821C512.408 222.303 506.607 219.457 499.742 222.325Z" fill="white"/>
<path d="M415.376 283.681H445.968C446.496 283.678 446.92 283.332 446.916 282.908C446.915 282.828 446.899 282.749 446.868 282.674L433.259 251.474C432.915 250.582 431.891 249.974 430.728 249.969H400.118C399.6 249.969 399.18 250.306 399.181 250.722C399.181 250.809 399.2 250.895 399.237 250.977L412.845 282.177C413.194 283.065 414.216 283.673 415.376 283.681Z" fill="#263238"/>
<path opacity="0.7" d="M400.118 249.969H430.728C431.891 249.973 432.915 250.582 433.259 251.474L446.868 282.673C446.899 282.749 446.915 282.828 446.916 282.908C446.92 283.331 446.496 283.678 445.968 283.681H415.376C414.216 283.672 413.194 283.065 412.845 282.177L399.236 250.977C399.2 250.895 399.181 250.809 399.181 250.722C399.18 250.306 399.6 249.969 400.118 249.969Z" fill="white"/>
<path d="M419.076 267.52C419.737 269.017 421.078 270.046 422.077 269.836C423.076 269.627 423.342 268.263 422.7 266.761C422.059 265.26 420.703 264.255 419.704 264.465C418.705 264.674 418.407 265.983 419.076 267.52Z" fill="white"/>
<path opacity="0.3" d="M430.546 249.969H430.728C431.891 249.973 432.915 250.582 433.259 251.474L446.868 282.673C446.899 282.749 446.915 282.828 446.916 282.908C446.921 283.331 446.496 283.678 445.968 283.681H444.989L430.546 249.969Z" fill="black"/>
<path d="M475.916 283.681H444.069V281.534H473.768C474.954 281.534 475.916 282.495 475.916 283.681Z" fill="#263238"/>
<path opacity="0.7" d="M475.916 283.681H444.069V281.534H473.768C474.954 281.534 475.916 282.495 475.916 283.681Z" fill="white"/>
<path d="M578.817 283.681H355.138V289.105H578.817V283.681Z" fill="#8ED7C3"/>
<path opacity="0.2" d="M578.817 283.681H355.138V289.105H578.817V283.681Z" fill="black"/>
<path opacity="0.2" d="M578.817 283.681H512.093V289.105H578.817V283.681Z" fill="black"/>
<path d="M110.064 167.084C110.064 167.084 120.052 192.08 121.636 192.231C123.221 192.383 143.481 184.487 143.481 184.487L146.632 188.047C146.632 188.047 136.021 202.237 119.224 206.741C116.206 207.551 112.396 204.133 108.764 199.46C108.052 198.552 107.358 197.59 106.663 196.602C102.926 191.062 99.5737 185.271 96.631 179.27L110.064 167.084Z" fill="#8ED7C3"/>
<path d="M118.27 195.008C117.324 194.74 116.775 193.756 117.043 192.81L123.817 164.324C124.22 162.974 125.436 162.03 126.844 161.974L148.555 161.52C148.791 161.491 149.031 161.509 149.259 161.574C150.205 161.842 150.755 162.826 150.487 163.772L143.713 192.258C143.311 193.61 142.095 194.558 140.686 194.617L118.974 195.062C118.739 195.091 118.499 195.073 118.27 195.008Z" fill="#263238"/>
<path opacity="0.2" d="M118.27 195.008C117.324 194.74 116.775 193.756 117.043 192.81L123.817 164.324C124.22 162.974 125.436 162.03 126.844 161.974L148.555 161.52C148.791 161.491 149.031 161.509 149.259 161.574C150.205 161.842 150.755 162.826 150.487 163.772L143.713 192.258C143.311 193.61 142.095 194.558 140.686 194.617L118.974 195.062C118.739 195.091 118.499 195.073 118.27 195.008Z" fill="white"/>
<path d="M120.497 194.963C119.551 194.696 119.001 193.712 119.268 192.766L126.043 164.28C126.445 162.932 127.655 161.987 129.06 161.921L150.781 161.476C151.017 161.446 151.256 161.465 151.485 161.53C152.431 161.798 152.98 162.782 152.712 163.728L145.929 192.214C145.526 193.561 144.316 194.507 142.911 194.573L121.191 195.018C120.958 195.045 120.723 195.027 120.497 194.963Z" fill="#263238"/>
<path opacity="0.3" d="M120.497 194.963C119.551 194.696 119.001 193.712 119.268 192.766L126.043 164.28C126.445 162.932 127.655 161.987 129.06 161.921L150.781 161.476C151.017 161.446 151.256 161.465 151.485 161.53C152.431 161.798 152.98 162.782 152.712 163.728L145.929 192.214C145.526 193.561 144.316 194.507 142.911 194.573L121.191 195.018C120.958 195.045 120.723 195.027 120.497 194.963Z" fill="white"/>
<path opacity="0.2" d="M140.098 178.173C139.98 176.925 138.872 176.009 137.624 176.128C135.856 176.225 134.348 177.439 133.876 179.146C133.792 179.428 133.764 179.724 133.794 180.017C133.919 181.254 135.024 182.156 136.262 182.03C138.029 181.936 139.54 180.725 140.018 179.021C140.098 178.746 140.125 178.458 140.098 178.173Z" fill="white"/>
<path d="M147.434 179.529C147.006 179.493 145.19 180.392 144.336 179.796C143.481 179.199 144.282 178.71 144.282 178.71C145.849 178.327 147.567 176.368 148.52 176.929C149.472 177.49 151.048 178.193 150.816 179.084C150.555 179.907 150.24 180.713 149.873 181.496C150.121 181.893 150.154 182.387 149.962 182.813C149.766 183.306 149.333 183.664 148.813 183.766C149.112 184.067 149.267 184.482 149.241 184.905C149.17 185.582 147.389 186.472 147.389 186.472C147.389 186.472 147.736 187.531 147.327 187.941C146.632 188.513 145.708 188.724 144.834 188.511C143.793 188.261 143.081 187.905 143.152 186.855C143.223 185.804 145.101 185.804 145.101 185.804C145.101 185.804 141.576 184.736 142.324 184.069C143.072 183.401 145.885 183.481 145.885 183.481C145.885 183.481 141.113 182.537 141.87 181.558C142.627 180.579 147.38 180.846 147.38 180.846C147.38 180.846 147.861 179.564 147.434 179.529Z" fill="#B97964"/>
<path d="M75.2171 394.536L82.778 394.197L85.5818 374.529L74.0619 374.921L75.2171 394.536Z" fill="#B97964"/>
<path d="M83.6995 390.747H81.0104C80.4018 390.747 79.839 391.055 79.4794 391.546C77.9286 393.664 76.7631 392.864 75.0763 390.872C74.0039 390.747 73.7153 391.978 73.6278 392.309L71.6174 399.622C71.4427 400.232 71.7963 400.869 72.407 401.044C72.5155 401.075 72.6281 401.089 72.7411 401.088H94.0477C97.4363 401.088 98.1386 397.673 96.7427 397.357C90.4659 395.97 86.0212 394.122 84.0809 392.296C83.7211 391.977 84.0907 391.738 83.6995 390.747Z" fill="#263238"/>
<path d="M88.9626 393.192C89.2456 392.989 89.415 392.663 89.4191 392.314C89.4428 392.128 89.3576 391.943 89.1996 391.84C88.3569 391.243 84.9946 392.815 84.6169 392.999C84.575 393.014 84.542 393.047 84.527 393.089C84.4991 393.167 84.5394 393.252 84.6169 393.28C85.4433 393.476 86.2878 393.585 87.1365 393.605C87.7737 393.666 88.4135 393.521 88.9626 393.192ZM88.989 392.095C89.0574 392.137 89.0925 392.218 89.0768 392.297C89.0627 392.549 88.9413 392.782 88.7431 392.938C87.9794 393.509 86.1358 393.263 85.1438 393.078C86.5396 392.464 88.5236 391.77 88.989 392.095Z" fill="#8ED7C3"/>
<path d="M84.7312 393.315C85.7408 392.894 87.8565 391.235 87.7424 390.357C87.7247 390.172 87.5931 389.953 87.1366 389.891C85.293 389.681 84.5029 392.99 84.5029 393.131C84.4848 393.188 84.502 393.25 84.5468 393.289C84.5812 393.299 84.6177 393.299 84.6521 393.289L84.7312 393.315ZM87.0751 390.164C87.4176 390.199 87.4176 390.322 87.4176 390.365C87.5141 390.901 85.9777 392.279 84.8804 392.859C85.1086 392.086 85.7846 390.155 86.9523 390.155L87.0751 390.164Z" fill="#8ED7C3"/>
<path d="M82.7105 394.909C82.6646 394.909 82.6187 394.897 82.5772 394.871C82.4605 394.797 82.4253 394.643 82.499 394.527C83.0381 393.67 83.9585 393.077 84.9605 392.941C85.0928 392.928 85.2227 393.018 85.2417 393.155C85.2603 393.292 85.1646 393.418 85.0279 393.437C84.1704 393.553 83.3833 394.06 82.9219 394.792C82.8745 394.868 82.7935 394.909 82.7105 394.909Z" fill="#8ED7C3"/>
<path d="M84.3813 396.168C84.3354 396.168 84.2895 396.155 84.248 396.13C84.1313 396.056 84.0962 395.901 84.1699 395.785C84.7085 394.929 85.6289 394.336 86.6318 394.198C86.7627 394.183 86.894 394.275 86.9131 394.412C86.9321 394.549 86.8364 394.675 86.6992 394.694C85.8413 394.812 85.0537 395.319 84.5928 396.051C84.5454 396.127 84.4644 396.168 84.3813 396.168Z" fill="#8ED7C3"/>
<path d="M86.4609 397.226C86.415 397.226 86.3691 397.213 86.3276 397.188C86.2109 397.113 86.1758 396.959 86.2495 396.843C86.7881 395.986 87.7085 395.394 88.7105 395.256C88.8457 395.244 88.9732 395.333 88.9922 395.47C89.0112 395.607 88.9155 395.732 88.7788 395.752C87.9209 395.869 87.1338 396.377 86.6724 397.108C86.625 397.185 86.5439 397.226 86.4609 397.226Z" fill="#8ED7C3"/>
<path opacity="0.3" d="M84.0532 385.251L83.6925 387.781L74.8102 387.625L74.6703 385.251H84.0532Z" fill="black"/>
<path d="M106.722 392.591L114.929 391.552L116.737 373.011L105.479 372.697L106.722 392.591Z" fill="#B97964"/>
<path d="M115.346 390.003H112.656C112.048 390.003 111.485 390.311 111.125 390.802C109.575 392.92 108.409 392.119 106.722 390.128C105.65 390.003 105.361 391.234 105.274 391.564L103.263 398.877C103.089 399.488 103.442 400.125 104.053 400.299C104.162 400.33 104.274 400.345 104.387 400.343H125.694C129.082 400.343 129.785 396.928 128.389 396.612C122.112 395.225 117.667 393.378 115.727 391.552C115.367 391.232 115.737 390.993 115.346 390.003Z" fill="#263238"/>
<path d="M121.181 392.082C121.464 391.879 121.634 391.553 121.638 391.204C121.662 391.017 121.576 390.833 121.418 390.73C120.575 390.133 117.213 391.705 116.836 391.889C116.794 391.904 116.761 391.937 116.746 391.979C116.718 392.057 116.758 392.142 116.836 392.17C117.662 392.366 118.506 392.474 119.355 392.495C119.992 392.555 120.632 392.411 121.181 392.082ZM121.208 390.985C121.276 391.027 121.311 391.108 121.295 391.187C121.281 391.438 121.16 391.672 120.962 391.828C120.198 392.398 118.354 392.153 117.362 391.968C118.758 391.354 120.742 390.66 121.208 390.985Z" fill="#8ED7C3"/>
<path d="M116.95 392.205C117.959 391.784 120.075 390.124 119.961 389.247C119.943 389.062 119.812 388.843 119.355 388.781C117.512 388.571 116.722 391.88 116.722 392.021C116.703 392.077 116.721 392.139 116.765 392.179C116.8 392.189 116.836 392.189 116.871 392.179L116.95 392.205ZM119.294 389.053C119.636 389.088 119.636 389.211 119.636 389.255C119.733 389.791 118.196 391.169 117.099 391.749C117.327 390.976 118.003 389.045 119.171 389.045L119.294 389.053Z" fill="#8ED7C3"/>
<path d="M114.929 393.799C114.883 393.799 114.837 393.786 114.795 393.761C114.679 393.687 114.644 393.532 114.717 393.416C115.256 392.56 116.177 391.967 117.179 391.83C117.314 391.818 117.441 391.907 117.46 392.045C117.479 392.182 117.383 392.308 117.246 392.326C116.389 392.442 115.602 392.949 115.14 393.682C115.093 393.758 115.012 393.799 114.929 393.799Z" fill="#8ED7C3"/>
<path d="M116.6 395.057C116.554 395.057 116.508 395.044 116.467 395.019C116.35 394.944 116.315 394.79 116.389 394.674C116.928 393.817 117.848 393.225 118.85 393.088C118.983 393.073 119.113 393.165 119.131 393.303C119.15 393.44 119.054 393.566 118.917 393.584C118.06 393.7 117.273 394.207 116.812 394.94C116.764 395.016 116.683 395.057 116.6 395.057Z" fill="#8ED7C3"/>
<path d="M118.68 396.115C118.634 396.115 118.588 396.103 118.546 396.077C118.43 396.003 118.395 395.849 118.468 395.733C119.007 394.876 119.927 394.283 120.929 394.146C121.06 394.133 121.192 394.223 121.211 394.36C121.23 394.496 121.134 394.622 120.998 394.642C120.14 394.759 119.353 395.267 118.891 395.998C118.844 396.074 118.763 396.115 118.68 396.115Z" fill="#8ED7C3"/>
<path opacity="0.3" d="M115.651 384.141L115.404 386.679L106.349 386.62L106.194 384.141H115.651Z" fill="black"/>
<path d="M89.3174 220.958L110.398 221.054C110.398 221.054 117.763 262.553 117.331 309.082C118.191 336.397 117.501 386.625 117.501 386.625H103.792C103.792 386.625 95.0575 345.831 98.5545 313.511C97.2824 307.938 95.5828 298.287 94.5836 293.362C91.7853 280.085 89.6796 266.636 88.2773 253.085C85.8694 227.686 89.3174 220.958 89.3174 220.958Z" fill="#263238"/>
<path opacity="0.2" d="M91.1848 237.255C91.1848 237.255 98.7851 275.46 94.5836 293.362C91.7853 280.085 89.6796 266.637 88.2773 253.085L91.1848 237.255Z" fill="black"/>
<path d="M71.5977 210.09C69.7579 219.309 62.5482 230.57 61.0897 242.363C58.5984 262.505 69.4174 287.558 72.2494 311.19C67.9742 346.141 74.5284 388.524 73.6602 387.608L87.4231 387.622C87.8409 384.497 90.6631 337.14 92.0636 309.082C93.2511 284.525 95.1487 222.763 95.1487 222.763L71.5977 210.09Z" fill="#263238"/>
<path opacity="0.2" d="M110.064 170.395C110.847 173.856 112.68 179.051 114.127 182.737C114.596 183.93 114.802 185.223 114.585 186.486C113.959 190.125 110.816 191.289 109.77 194.19C109.185 195.889 108.846 197.664 108.764 199.46C108.052 198.552 107.358 197.59 106.663 196.602L105.114 190.478L110.064 170.395Z" fill="black"/>
<path d="M108.8 191.902C116.98 186.178 110.58 181.006 111.301 172.523C111.797 166.044 107.274 160.255 100.868 159.17C99.3905 158.921 97.8594 158.672 96.3551 158.476L95.4648 158.36C91.4493 157.903 87.4079 157.713 83.3672 157.79C81.8896 157.79 80.3584 157.79 78.7561 157.835C77.1538 157.879 75.6049 157.933 74.1272 158.04C69.0022 158.398 65.1381 162.843 65.4967 167.969C65.5195 168.296 65.5598 168.621 65.6171 168.944L71.0847 205.108L64.0081 225.954C85.184 235.537 113.448 229.239 112.364 225.429C109.314 214.713 107.74 199.175 108.8 191.902Z" fill="#8ED7C3"/>
<path d="M108.598 122.804L81.2051 117.955C79.0379 118.524 77.3255 120.484 76.3341 122.718C75.3427 124.953 74.9699 127.459 74.6474 129.928C73.7815 136.56 73.2188 143.509 75.2485 149.813C88.8902 152.315 102.9 152.278 116.531 149.703C110.562 143.64 112.088 130.685 108.598 122.804Z" fill="#263238"/>
<path d="M81.4158 157.67C81.4158 157.67 84.7673 160.402 89.0707 164.33C89.9672 165.148 90.9595 165.862 92.0148 166.461C94.8621 168.079 97.4723 169.033 98.2256 167.659C98.3931 167.357 98.5246 167.029 98.6249 166.683C99.2974 164.367 99.1422 161.078 97.2983 159.523C95.2194 157.769 94.235 156.292 94.6838 154.011C94.9222 152.717 95.4306 151.389 96.0174 150.102L93.6029 148.557L85.0999 139.472C85.947 144.918 86.1184 154.599 81.4158 157.67Z" fill="#B97964"/>
<path opacity="0.2" d="M94.5983 154.512C92.2311 153.014 89.6599 150.459 90.0573 147.636C90.2325 146.447 90.5217 145.324 90.8281 144.608L95.5344 151.222C95.1032 152.255 94.9368 152.94 94.5983 154.512Z" fill="black"/>
<path d="M83.6876 129.463C84.2554 138.481 84.3056 142.301 88.8132 147.149C95.5932 154.443 106.403 152.363 108.506 143.499C110.4 135.521 109.153 122.113 100.43 118.081C91.8355 114.109 83.1198 120.444 83.6876 129.463Z" fill="#B97964"/>
<path d="M95.7268 132.757C95.744 133.71 96.2371 134.506 96.8285 134.535C97.4197 134.564 97.8848 133.815 97.8676 132.862C97.8506 131.909 97.3575 131.113 96.7662 131.084C96.1751 131.055 95.7099 131.804 95.7268 132.757Z" fill="#263238"/>
<path d="M104.866 132.97C104.884 133.893 105.377 134.666 105.966 134.695C106.556 134.724 107.019 133.999 107 133.075C106.982 132.152 106.489 131.379 105.899 131.35C105.31 131.321 104.847 132.046 104.866 132.97Z" fill="#263238"/>
<path d="M93.4727 129.354C93.5869 129.371 93.7042 129.34 93.7954 129.261C95.2177 128.017 96.7652 128.512 96.7832 128.518C97.0125 128.592 97.2502 128.468 97.3099 128.233C97.369 127.999 97.2291 127.747 96.997 127.67C96.9161 127.643 94.974 127.02 93.2091 128.564C93.0332 128.718 93.0217 128.999 93.1833 129.192C93.2616 129.284 93.3657 129.34 93.4727 129.354Z" fill="#263238"/>
<path d="M107.239 128.52C107.33 128.492 107.408 128.426 107.45 128.329C107.538 128.127 107.445 127.866 107.244 127.745C105.221 126.531 103.671 127.366 103.606 127.403C103.422 127.505 103.371 127.759 103.493 127.971C103.614 128.182 103.86 128.27 104.044 128.169C104.105 128.135 105.317 127.508 106.925 128.474C107.029 128.536 107.142 128.549 107.239 128.52Z" fill="#263238"/>
<path d="M101.726 132.441C101.726 132.441 103.038 135.849 104.565 137.993C104.832 138.367 104.645 138.898 104.209 139.045C103.087 139.422 101.797 139.015 101.797 139.015L101.726 132.441Z" fill="#A24E3F"/>
<path d="M96.4264 131.114L98.5048 130.685C98.5048 130.685 97.3319 132.192 96.4264 131.114Z" fill="#263238"/>
<path d="M105.588 131.375L107.666 130.946C107.666 130.946 106.493 132.453 105.588 131.375Z" fill="#263238"/>
<path d="M85.189 141.603C59.5276 117.802 94.5736 111.905 94.5736 111.905C109.489 105.289 107.209 119.346 107.209 119.346C112.437 127.491 101.961 131.67 101.961 131.67C106.983 126.8 101.579 122.247 101.579 122.247C101.044 129.923 93.1563 131.431 93.1563 131.431C97.3411 125.229 96.2009 121.377 96.2009 121.377C91.7449 133.016 85.2487 134.252 85.2487 134.252L85.189 141.603Z" fill="#263238"/>
<path d="M80.7573 136.716C81.7672 138.591 83.4607 139.799 85.0324 140.241C87.3964 140.906 88.735 137.113 87.9902 134.704C87.3197 132.536 85.0205 131.048 82.6899 131.45C80.3939 131.846 79.6024 134.572 80.7573 136.716Z" fill="#B97964"/>
<path opacity="0.2" d="M85.8029 136.63C85.6691 136.63 85.5583 136.524 85.5529 136.39C85.5226 135.598 85.172 134.833 84.591 134.293C84.0104 133.753 83.215 133.455 82.4298 133.488C82.2858 133.481 82.1759 133.385 82.1711 133.247C82.1662 133.109 82.2741 132.993 82.4123 132.988C83.3356 132.959 84.255 133.298 84.9318 133.927C85.6086 134.557 86.0173 135.447 86.0529 136.371C86.0578 136.509 85.9503 136.625 85.8127 136.63H85.8029Z" fill="black"/>
<path d="M98.943 141.901C96.6486 141.901 95.9054 139.77 95.8976 139.746C95.8537 139.615 95.924 139.474 96.0544 139.43C96.1872 139.384 96.3273 139.456 96.3712 139.586C96.402 139.676 97.1476 141.771 99.5788 141.343C99.7096 141.315 99.8439 141.41 99.8683 141.546C99.8922 141.682 99.8019 141.812 99.6657 141.835C99.4093 141.881 99.1686 141.901 98.943 141.901Z" fill="#263238"/>
<path opacity="0.2" d="M69.0015 211.244L67.5237 215.598C67.5237 215.598 88.4598 211.959 98.926 202.6C106.378 195.936 105.213 193.13 105.213 193.13L96.7717 193.945L69.0015 211.244Z" fill="black"/>
<path opacity="0.2" d="M77.0833 180.059L75.9481 198.936C72.7959 200.941 70.7088 198.161 70.229 195.289V189.854L77.0833 180.059Z" fill="black"/>
<path d="M78.2128 177.199C78.2128 177.199 70.3064 196.783 71.7325 197.687C73.1584 198.59 95.9184 192.363 95.9184 192.363L99.5056 197.509C98.735 200.893 59.4632 222.208 56.2569 204.379C54.3083 193.546 66.2322 163.658 66.2322 163.658C75.9131 159.867 78.2128 177.199 78.2128 177.199Z" fill="#8ED7C3"/>
<path d="M99.847 198.01C102.538 198.223 102.632 194.17 104.032 194.011C104.846 193.933 105.644 193.73 106.397 193.409C106.397 193.409 105.511 195.844 106.397 195.649C107.282 195.455 110.125 195.313 110.825 192.992C111.525 190.672 108.992 185.712 108.416 185.021C107.84 184.33 104.811 184.543 104.811 184.543C104.811 184.543 108.071 183.701 109.86 183.453C111.649 183.205 111.989 181.161 109.492 181.613C108.467 181.798 100.374 181.859 99.4968 182.691C98.6199 183.524 95.369 191.706 95.369 191.706C94.1644 192.397 97.2253 199.259 99.847 198.01Z" fill="#B97964"/>
<g opacity="0.3">
<path d="M104.78 184.286C103.95 184.228 103.116 184.281 102.3 184.445C102.177 184.478 102.105 184.605 102.138 184.728C102.167 184.835 102.269 184.906 102.38 184.897C103.152 184.742 103.941 184.688 104.727 184.737C105.019 184.737 105.073 184.303 104.78 184.286Z" fill="black"/>
<path d="M108.952 186.739C109.209 186.872 109.475 186.5 109.218 186.367C107.703 185.561 106.109 186.013 104.577 186.527C104.302 186.615 104.497 187.031 104.771 186.943C106.118 186.491 107.606 186.057 108.952 186.739Z" fill="black"/>
<path d="M110.139 188.741C108.832 187.961 107.221 187.891 105.852 188.555C105.744 188.623 105.712 188.765 105.78 188.872C105.834 188.959 105.94 188.999 106.038 188.971C107.263 188.374 108.705 188.427 109.882 189.113C110.13 189.263 110.396 188.891 110.139 188.741Z" fill="black"/>
<path d="M107.963 192.138C108.08 191.9 108.175 191.651 108.239 191.389C108.301 191.106 107.876 190.946 107.805 191.23C107.616 192.101 107.074 192.855 106.308 193.311C106.051 193.453 106.246 193.869 106.494 193.727H106.467C106.949 193.456 107.349 193.078 107.661 192.635C107.691 192.637 107.718 192.651 107.752 192.638C108.228 192.471 108.758 192.611 109.089 192.992C109.284 193.214 109.629 192.921 109.435 192.7C109.062 192.272 108.51 192.077 107.963 192.138Z" fill="black"/>
</g>
</g>
<defs>
<clipPath id="clip0_163_3">
<rect width="579" height="407" fill="white"/>
</clipPath>
</defs>
</svg>
