<?xml version="1.0" standalone="no"?>
<!DOCTYPE svg PUBLIC "-//W3C//DTD SVG 20010904//EN"
 "http://www.w3.org/TR/2001/REC-SVG-20010904/DTD/svg10.dtd">
<svg version="1.0" xmlns="http://www.w3.org/2000/svg"
 width="1080.000000pt" height="1080.000000pt" viewBox="0 0 1080.000000 1080.000000"
 preserveAspectRatio="xMidYMid meet">
<metadata>
Created by potrace 1.14, written by Peter Selinger 2001-2017
</metadata>
<g transform="translate(0.000000,1080.000000) scale(0.100000,-0.100000)"
fill="#000000" stroke="none">
<path d="M2884 9552 c5 -9 -2 -11 -30 -6 -25 4 -39 1 -45 -8 -5 -7 -9 -8 -9
-2 0 14 -91 15 -109 1 -10 -8 -13 -8 -8 -1 4 7 -13 11 -54 12 -43 0 -57 -3
-52 -11 5 -9 3 -9 -8 -1 -16 13 -97 13 -118 0 -9 -6 -12 -5 -8 1 4 6 -4 11
-18 11 -16 0 -22 -5 -18 -12 5 -8 3 -8 -8 0 -8 5 -25 9 -39 7 -14 -2 -44 -5
-67 -6 -24 -1 -43 -5 -43 -9 0 -4 -7 -5 -15 -2 -8 4 -15 2 -15 -3 0 -13 -50
-11 -50 2 0 5 -5 3 -10 -7 -6 -10 -20 -15 -35 -14 -14 2 -22 -1 -18 -7 4 -6
-2 -8 -15 -5 -12 4 -22 2 -22 -4 0 -5 -4 -7 -9 -3 -6 3 -14 -3 -20 -12 -6 -11
-11 -13 -11 -5 0 10 -4 9 -16 -3 -13 -13 -19 -13 -32 -3 -12 10 -14 10 -8 1 4
-7 2 -14 -3 -14 -6 -1 -17 -2 -23 -3 -7 -1 -12 -7 -11 -14 2 -6 -3 -9 -10 -6
-7 2 -27 -2 -43 -11 -16 -8 -36 -15 -44 -15 -13 0 -13 -1 0 -11 12 -9 11 -10
-6 -6 -13 3 -25 -3 -33 -15 -7 -11 -18 -17 -25 -15 -7 3 -20 -2 -29 -11 -26
-28 -45 -41 -50 -35 -3 3 -12 -4 -19 -16 -7 -12 -16 -21 -21 -21 -4 0 -5 5 -1
12 4 7 3 8 -4 4 -7 -4 -12 -14 -12 -23 0 -10 -6 -13 -16 -9 -8 3 -13 2 -10 -3
3 -5 -4 -11 -15 -14 -14 -4 -20 -11 -16 -21 4 -10 1 -13 -9 -9 -7 3 -14 0 -14
-7 0 -6 -5 -8 -10 -5 -6 4 -9 2 -8 -2 2 -5 -18 -30 -44 -55 -27 -25 -48 -51
-48 -57 0 -7 -3 -10 -7 -8 -5 3 -14 -1 -21 -9 -7 -8 -10 -14 -7 -14 3 0 -3 -8
-12 -18 -38 -40 -53 -63 -48 -72 3 -6 -1 -7 -10 -4 -9 4 -15 3 -14 -2 4 -22
-2 -35 -13 -28 -7 5 -9 2 -5 -9 3 -9 0 -18 -9 -21 -9 -3 -12 -10 -9 -16 3 -5
2 -10 -4 -10 -6 0 -13 -11 -17 -25 -3 -14 -10 -22 -15 -19 -5 3 -9 -4 -9 -15
0 -11 -5 -23 -10 -26 -6 -4 -8 -11 -5 -16 4 -5 1 -9 -5 -9 -7 0 -10 -6 -8 -12
3 -7 -3 -21 -13 -31 -15 -16 -32 -70 -26 -82 1 -2 -7 -11 -18 -19 -16 -13 -17
-17 -6 -25 8 -5 9 -10 2 -12 -9 -3 -17 -28 -20 -61 -1 -5 -9 -8 -18 -8 -17 -1
-17 -1 0 -11 14 -8 15 -14 6 -31 -6 -11 -8 -29 -6 -40 4 -14 2 -16 -6 -9 -9 7
-12 -3 -12 -37 1 -26 -2 -51 -5 -57 -3 -5 -6 -39 -7 -75 0 -36 -2 -67 -3 -70
-1 -3 -1 -22 0 -44 1 -29 -1 -36 -12 -30 -10 6 -10 5 1 -9 8 -10 12 -31 9 -52
-2 -19 0 -35 4 -35 5 0 5 -8 0 -17 -5 -10 -7 -23 -5 -30 2 -7 -1 -22 -8 -35
-12 -22 -11 -22 6 -8 12 9 16 10 11 2 -10 -17 -16 -83 -7 -78 12 8 -1 -58 -13
-66 -8 -5 -7 -8 2 -8 6 0 12 -6 12 -14 0 -8 -6 -17 -12 -19 -8 -3 -6 -6 4 -6
10 -1 15 -7 13 -13 -9 -24 -11 -123 -4 -150 4 -16 4 -28 -1 -28 -4 0 -6 -16
-3 -36 3 -24 0 -39 -9 -45 -8 -5 -9 -9 -1 -9 9 0 15 -32 13 -82 0 -7 0 -33 -1
-58 -1 -25 -1 -56 0 -70 2 -55 0 -74 -11 -94 -11 -20 -10 -20 7 -6 11 9 16 10
11 2 -10 -17 -12 -224 -3 -239 5 -8 3 -13 -3 -13 -6 0 -8 -4 -5 -10 3 -5 0
-10 -7 -10 -8 0 -7 -4 4 -10 12 -8 15 -17 9 -38 -4 -15 -5 -39 -1 -53 4 -15 4
-32 0 -39 -5 -7 -6 -19 -3 -26 2 -7 -1 -23 -8 -36 -12 -22 -11 -22 6 -8 11 9
16 10 11 2 -10 -17 -12 -224 -3 -239 5 -8 3 -13 -4 -13 -7 0 -9 -3 -6 -7 4 -3
2 -12 -4 -19 -7 -8 -7 -14 1 -19 8 -5 7 -11 -2 -23 -8 -10 -9 -13 -1 -9 18 11
24 -8 9 -29 -10 -13 -11 -23 -4 -31 7 -9 7 -17 -1 -27 -7 -8 -8 -17 -3 -20 13
-7 14 -84 1 -91 -7 -5 -6 -11 2 -21 9 -11 9 -17 0 -28 -7 -8 -8 -17 -3 -20 5
-3 9 -29 8 -58 -1 -29 2 -58 7 -65 4 -6 3 -14 -3 -18 -8 -5 -7 -11 2 -23 11
-14 10 -15 -6 -9 -16 6 -17 5 -6 -8 7 -8 9 -15 5 -15 -4 0 -1 -8 6 -17 12 -14
12 -15 0 -9 -10 7 -12 4 -7 -12 4 -11 2 -23 -4 -27 -7 -4 -7 -11 -2 -18 14
-18 13 -189 0 -181 -7 5 -8 2 -2 -7 13 -22 14 -43 1 -51 -9 -6 -8 -8 2 -8 8 0
11 -6 7 -16 -4 -9 -2 -22 4 -29 8 -10 8 -15 -1 -21 -8 -5 -9 -3 -4 6 5 9 4 11
-4 6 -9 -6 -9 -11 -1 -21 7 -8 9 -19 5 -25 -4 -6 -2 -17 5 -25 7 -9 8 -15 0
-20 -5 -3 -10 -11 -10 -16 0 -6 4 -7 10 -4 7 4 7 -2 0 -19 -6 -17 -6 -26 3
-30 9 -3 8 -5 -1 -5 -7 -1 -10 -6 -6 -12 3 -6 0 -15 -7 -20 -8 -5 -9 -9 -3 -9
6 0 11 -14 12 -30 0 -20 -3 -28 -11 -24 -7 3 -3 -2 7 -10 11 -9 15 -16 10 -16
-6 0 -9 -13 -6 -30 3 -19 0 -30 -8 -30 -7 0 -5 -6 5 -16 15 -15 15 -18 -1 -41
-9 -14 -11 -23 -6 -19 7 4 10 -8 9 -36 0 -24 2 -48 6 -55 4 -7 0 -16 -9 -21
-14 -8 -15 -10 -1 -15 12 -5 14 -13 8 -34 -4 -15 -5 -40 -1 -54 4 -15 4 -32 0
-38 -4 -7 -5 -24 -2 -38 3 -15 -1 -29 -9 -34 -8 -5 -9 -9 -2 -9 15 0 15 -150
0 -151 -7 0 -3 -4 8 -9 11 -5 16 -9 10 -9 -11 -1 -12 -51 -1 -69 3 -6 1 -14
-5 -18 -8 -5 -9 -3 -4 6 6 9 4 11 -4 6 -9 -6 -8 -13 5 -27 9 -10 13 -19 8 -19
-5 0 -8 -39 -6 -91 2 -67 0 -89 -8 -84 -7 4 -5 -3 4 -17 14 -22 14 -26 -1 -48
-9 -13 -11 -20 -5 -16 7 4 10 -4 10 -22 -1 -16 3 -35 7 -42 6 -10 4 -12 -10
-6 -14 5 -16 4 -6 -8 14 -16 11 -78 -4 -88 -6 -5 -4 -8 5 -8 12 0 15 -8 12
-35 -2 -19 -9 -35 -15 -35 -6 0 -2 -7 9 -15 10 -8 14 -15 7 -15 -7 0 -10 -7
-7 -15 4 -9 0 -15 -7 -16 -8 0 -5 -4 6 -9 11 -5 15 -9 10 -9 -7 -1 -10 -43 -8
-121 3 -89 0 -120 -9 -120 -6 0 -3 -7 8 -15 10 -8 14 -15 9 -15 -14 0 -13 -53
0 -62 7 -5 7 -8 0 -8 -6 0 -9 -21 -8 -47 5 -119 4 -143 -9 -167 -11 -20 -10
-20 7 -6 12 9 16 10 11 2 -10 -16 -12 -234 -3 -249 4 -7 0 -16 -9 -21 -14 -8
-15 -10 -1 -15 12 -5 14 -13 8 -34 -5 -16 -4 -39 0 -52 7 -19 6 -22 -6 -17
-12 4 -13 2 -2 -14 9 -16 9 -24 0 -40 -7 -11 -9 -21 -3 -25 5 -3 8 -32 7 -65
-1 -34 2 -60 8 -61 6 0 1 -4 -10 -9 -11 -5 -14 -9 -7 -9 8 -1 12 -14 12 -33
-1 -89 5 -168 13 -168 5 0 4 -6 -2 -14 -9 -11 -9 -16 -1 -21 7 -4 10 -18 7
-31 -2 -14 1 -24 7 -24 6 0 4 -5 -4 -10 -14 -9 -7 -15 14 -11 5 1 4 -5 -4 -13
-7 -9 -8 -16 -3 -16 5 0 10 -6 10 -12 0 -7 4 -22 9 -32 5 -14 4 -17 -4 -12 -8
5 -10 2 -6 -8 3 -9 10 -16 14 -16 13 0 18 -49 6 -54 -6 -2 -4 -5 5 -5 9 -1 16
-8 17 -16 1 -8 3 -22 4 -30 1 -8 6 -15 11 -15 6 0 7 -3 4 -7 -4 -3 1 -15 10
-26 10 -11 13 -18 7 -14 -6 3 -11 0 -11 -8 0 -8 3 -13 6 -11 3 2 12 -2 19 -10
10 -11 10 -14 0 -14 -9 0 -9 -3 -2 -8 12 -8 28 -43 26 -54 -1 -5 5 -8 13 -8 8
0 15 -5 15 -11 0 -5 -6 -7 -12 -4 -7 4 -4 -1 6 -9 11 -9 16 -16 10 -16 -5 0
-1 -5 9 -11 9 -5 17 -18 17 -28 0 -21 45 -73 54 -63 4 3 4 -1 0 -11 -3 -10 -1
-17 5 -17 6 0 11 -6 11 -14 0 -7 8 -20 18 -27 16 -13 16 -13 2 6 -14 19 -14
19 3 6 10 -8 16 -20 13 -28 -3 -8 -2 -11 3 -8 5 3 12 -4 16 -15 4 -11 11 -18
16 -15 5 4 9 0 9 -8 0 -8 7 -18 16 -21 8 -3 12 -10 9 -16 -3 -5 0 -10 7 -10
16 0 54 -41 50 -53 -1 -5 2 -6 8 -2 5 3 13 -1 16 -9 3 -9 10 -16 15 -16 16 0
48 -33 42 -43 -3 -6 -1 -7 5 -3 6 4 20 -1 30 -11 33 -33 57 -50 47 -34 -5 10
-4 12 3 7 7 -4 12 -14 12 -22 0 -8 6 -14 14 -14 21 0 67 -26 59 -33 -3 -4 3
-7 15 -7 12 0 22 -4 22 -10 0 -5 8 -10 18 -10 10 0 28 -9 39 -19 16 -15 23
-17 33 -8 10 9 11 9 6 -1 -5 -8 0 -12 13 -12 10 0 21 -5 23 -10 2 -6 12 -12
23 -14 11 -2 32 -9 46 -14 15 -6 30 -8 33 -5 3 4 6 1 6 -5 0 -7 9 -12 21 -12
13 0 18 -4 13 -12 -5 -8 0 -7 11 2 14 11 19 12 22 3 3 -7 15 -13 28 -13 13 0
26 -6 28 -12 4 -10 6 -9 6 1 1 11 4 11 16 1 12 -10 15 -10 15 1 0 9 3 10 8 4
4 -5 13 -11 19 -12 7 -2 19 -4 25 -5 7 -2 16 -7 20 -13 5 -6 8 -5 8 3 0 6 7
12 15 12 8 0 15 -4 15 -9 0 -10 19 -9 37 2 6 4 15 3 18 -3 5 -8 12 -7 23 2 13
11 14 11 7 -1 -6 -11 -3 -13 12 -9 11 3 28 1 38 -5 13 -7 16 -6 11 2 -4 6 0
11 9 11 9 0 14 -4 10 -9 -3 -6 6 -7 23 -2 17 5 36 5 47 -1 13 -8 16 -7 11 1
-4 6 -3 11 3 11 5 0 12 -6 14 -12 4 -10 6 -10 6 -1 1 9 8 10 27 3 22 -9 25 -8
20 5 -4 12 -1 12 21 -2 26 -17 27 -17 20 1 -8 19 -7 19 13 1 15 -14 20 -15 20
-4 0 11 2 11 10 -1 5 -8 10 -10 10 -4 0 10 60 10 87 0 7 -3 13 0 13 7 0 8 4 6
10 -3 5 -8 10 -10 10 -5 0 14 103 13 112 0 5 -6 8 -5 8 3 0 6 5 12 11 12 5 0
7 -5 3 -12 -5 -7 -3 -8 5 -4 15 10 125 11 139 2 6 -3 12 0 15 6 3 10 7 10 20
-1 10 -7 17 -9 17 -4 0 11 29 11 47 0 6 -4 14 -1 16 5 4 10 8 9 16 -2 9 -12
11 -12 11 -1 0 11 5 9 21 -5 22 -19 22 -19 10 4 -12 22 -11 22 8 10 16 -10 26
-10 39 -2 13 9 22 8 40 -4 18 -12 22 -12 22 -1 0 9 3 10 8 4 7 -10 62 -15 62
-5 0 7 54 5 67 -3 6 -4 14 -1 16 5 4 10 8 9 16 -2 9 -12 11 -12 11 -1 0 11 5
9 21 -5 22 -19 22 -19 10 4 -11 22 -11 22 8 10 17 -10 25 -10 41 -1 13 9 21 9
26 2 3 -6 23 -9 43 -8 20 2 42 0 48 -4 6 -4 14 -1 16 5 4 10 8 9 16 -2 10 -13
11 -13 11 0 0 13 1 13 10 0 5 -8 10 -10 10 -4 0 10 60 10 87 0 7 -3 13 0 13 7
0 8 4 6 10 -3 5 -8 10 -10 10 -5 0 14 103 13 112 0 5 -6 8 -5 8 3 0 6 5 12 11
12 5 0 7 -5 3 -12 -5 -7 -3 -8 5 -3 16 10 136 10 152 0 8 -5 10 -4 5 3 -9 15
-1 15 26 1 11 -6 18 -7 14 -1 -8 14 50 8 68 -7 12 -10 14 -8 9 11 -3 17 -2 19
5 9 6 -9 24 -12 51 -9 22 2 43 -1 45 -7 3 -6 5 -6 5 1 1 10 61 10 88 0 7 -3
13 0 13 7 0 8 4 6 10 -3 5 -8 10 -10 10 -5 0 14 103 13 112 0 5 -6 8 -5 8 3 0
6 5 12 11 12 5 0 7 -5 3 -12 -5 -7 -3 -8 5 -4 15 10 125 11 139 2 6 -3 12 -1
14 5 3 9 10 9 27 -1 13 -6 21 -8 17 -2 -8 14 50 8 68 -7 12 -10 16 -9 25 6 9
16 12 16 21 3 5 -8 10 -10 10 -5 0 8 67 12 78 5 2 -2 36 -3 53 -1 5 1 7 7 3
14 -4 6 2 4 13 -6 16 -14 22 -15 26 -5 4 10 8 10 16 -2 8 -12 11 -12 11 -1 0
11 3 11 17 0 15 -12 16 -12 9 6 -6 17 -4 16 21 -5 15 -14 21 -17 14 -7 -12 15
-11 17 5 14 11 -1 25 -7 33 -11 11 -7 13 -5 7 9 -6 18 -6 18 15 -1 12 -10 20
-14 17 -9 -4 7 19 9 65 8 40 -1 72 -3 72 -3 0 -1 10 -3 22 -4 12 -1 20 1 17 6
-8 12 10 10 24 -4 9 -9 12 -8 12 8 0 14 2 16 9 6 5 -8 21 -12 37 -11 16 2 35
0 42 -4 7 -5 12 -3 12 4 0 10 3 10 12 1 15 -15 28 -15 28 -1 0 5 -5 7 -12 3
-7 -4 -8 -3 -4 4 5 9 15 7 34 -6 25 -16 26 -16 19 2 -8 19 -7 19 13 1 15 -14
20 -15 20 -4 0 11 2 11 10 -1 5 -8 10 -10 10 -5 0 12 39 13 57 2 6 -4 14 -1
16 5 4 10 8 9 16 -2 6 -8 11 -10 11 -4 0 7 11 9 25 6 17 -3 25 0 25 9 0 11 2
11 9 -1 6 -8 7 -19 5 -25 -3 -5 3 0 14 12 18 20 21 21 27 6 5 -14 8 -15 14 -4
7 11 9 11 14 0 3 -8 6 -9 6 -3 1 11 52 11 70 -1 6 -3 11 0 11 7 0 9 3 9 10 -2
5 -8 10 -10 10 -5 0 6 28 10 62 10 35 0 66 -4 70 -10 5 -6 8 -5 8 3 0 6 5 12
11 12 5 0 7 -5 3 -12 -5 -7 -3 -8 5 -3 19 11 91 11 91 0 0 -7 3 -6 8 0 9 13
105 13 114 0 5 -6 8 -5 8 3 0 6 5 12 11 12 5 0 7 -5 3 -12 -5 -7 -3 -8 5 -3
19 11 91 11 91 0 0 -6 3 -5 8 1 9 14 104 13 114 -1 5 -6 8 -5 8 3 0 6 5 12 11
12 5 0 7 -5 3 -12 -5 -7 -3 -8 5 -4 15 10 125 11 139 2 6 -3 12 0 15 6 3 10 7
10 20 -1 10 -7 17 -9 17 -4 0 11 42 9 61 -3 8 -4 9 -3 5 4 -4 7 -2 12 3 12 6
0 11 -4 11 -8 0 -4 9 -8 20 -8 14 0 19 5 15 16 -3 9 1 8 10 -4 8 -11 15 -15
15 -9 0 8 9 9 31 3 27 -8 30 -7 25 8 -5 13 -3 13 9 -2 8 -11 15 -15 15 -10 0
12 29 12 48 0 8 -5 12 -1 12 11 0 13 2 15 9 5 4 -7 23 -12 42 -11 19 2 41 -1
48 -6 10 -5 12 -4 7 3 -4 7 -2 12 3 12 6 0 11 -3 11 -7 0 -5 27 -6 60 -5 33 2
60 8 60 13 0 5 5 9 11 9 5 0 7 -5 3 -11 -8 -14 45 -9 65 6 11 7 13 7 8 -2 -5
-8 1 -11 18 -9 14 1 28 6 31 9 4 3 16 2 27 -4 15 -9 18 -8 12 1 -6 10 -1 12
19 8 14 -3 29 -1 32 4 4 6 10 5 15 -3 5 -8 9 -9 9 -3 0 6 11 10 25 9 14 -2 25
1 25 7 0 6 7 4 17 -3 14 -12 16 -12 8 0 -6 11 -4 13 7 8 9 -3 27 1 42 8 14 8
26 10 26 4 0 -5 5 -9 11 -9 5 0 8 4 5 8 -3 5 8 8 24 7 17 -1 30 2 30 7 0 5 5
6 10 3 6 -3 10 0 10 7 0 10 2 10 9 -1 6 -9 10 -9 12 -2 2 6 18 12 34 13 17 1
38 7 49 14 10 7 24 10 31 8 7 -3 16 0 20 5 3 6 11 9 16 6 5 -4 9 -1 9 6 0 7 3
9 7 6 3 -4 13 -1 21 6 13 10 14 9 7 -3 -7 -12 -6 -13 7 -3 8 7 19 9 23 5 5 -4
5 -1 1 6 -5 8 0 12 13 12 12 0 24 -1 27 -2 3 -2 10 5 15 15 6 9 15 15 20 11 5
-3 16 0 24 6 8 6 20 8 26 4 9 -5 10 -2 6 10 -4 9 -3 15 2 12 10 -7 61 16 61
28 0 5 7 3 15 -4 13 -10 15 -9 15 10 0 20 2 21 17 9 11 -10 14 -10 9 -1 -6 11
4 16 20 10 3 -2 10 5 15 14 6 10 19 18 29 18 11 0 20 5 20 10 0 6 5 10 11 10
7 0 18 8 26 18 8 9 11 11 8 4 -6 -11 -3 -11 14 0 12 7 21 16 21 19 0 4 14 12
30 19 17 7 30 17 30 23 0 6 3 7 7 4 3 -4 17 5 30 19 12 14 28 22 33 19 6 -3
10 1 10 9 0 9 7 16 15 16 8 0 15 5 15 11 0 5 4 8 9 4 5 -3 12 4 16 15 4 11 10
18 15 15 5 -3 14 4 20 15 6 11 17 20 25 20 14 0 20 12 16 33 -1 5 3 6 8 2 13
-7 51 25 51 43 0 7 4 11 9 8 5 -3 16 6 25 19 9 14 21 23 26 20 10 -6 15 9 10
30 -1 6 2 7 6 3 10 -11 45 32 37 46 -4 6 2 4 13 -4 10 -8 16 -10 12 -6 -4 5 0
15 10 23 10 9 11 11 2 7 -8 -4 6 14 33 41 26 26 47 51 47 55 0 6 11 20 49 66
5 7 7 15 4 18 -4 3 -1 6 6 6 7 0 10 4 6 9 -3 5 4 12 15 16 11 4 18 11 15 16
-4 5 1 12 10 15 13 5 13 9 3 22 -7 9 -8 13 -3 10 12 -7 37 17 28 26 -4 3 -1 6
6 6 8 0 11 7 7 15 -3 8 -2 14 2 14 19 -3 25 2 12 11 -13 8 -12 10 4 10 12 0
16 5 12 15 -3 9 0 15 10 15 8 0 13 4 9 9 -3 5 2 17 11 25 9 9 13 23 10 32 -3
8 -2 12 4 9 6 -3 10 3 10 15 0 11 7 23 15 26 13 5 13 9 3 22 -10 12 -10 14 0
8 7 -4 12 -1 12 9 0 9 4 14 9 11 4 -3 8 4 7 17 0 12 4 21 10 20 7 -1 9 8 6 24
-4 19 -2 24 8 18 10 -6 12 0 8 23 -2 17 -1 29 3 27 4 -3 13 3 20 12 10 12 10
14 2 9 -7 -4 -13 -2 -13 3 0 6 5 11 11 11 6 0 9 7 5 15 -3 8 0 15 6 15 6 0 8
3 5 7 -4 3 -2 12 4 20 6 7 8 13 4 13 -4 0 -1 8 6 17 12 15 12 16 -1 8 -12 -6
-13 -5 -2 6 6 7 12 21 12 32 0 10 5 15 10 12 6 -3 10 -1 10 4 0 6 -4 11 -10
11 -5 0 -7 7 -4 15 4 8 10 12 15 9 12 -7 11 3 -2 28 -6 12 -7 18 -1 14 5 -3
13 1 16 10 9 23 8 26 -7 18 -8 -6 -8 -3 1 9 8 9 11 21 7 27 -3 5 -1 10 5 10 6
0 9 4 5 9 -3 5 -2 12 3 15 5 3 8 25 7 50 0 26 3 46 8 46 4 0 5 5 2 10 -4 6 -1
18 7 27 7 9 8 14 3 11 -7 -4 -11 8 -10 33 0 26 4 38 12 35 13 -5 7 20 -10 42
-7 9 -6 11 7 6 14 -5 15 -3 6 20 -7 19 -6 26 3 26 8 0 8 3 -2 9 -11 7 -11 9 0
14 12 5 12 6 0 6 -10 1 -10 7 4 27 9 15 13 24 7 20 -6 -4 -11 14 -14 44 -2 35
1 51 10 55 10 4 8 12 -8 35 -13 18 -18 35 -13 42 11 18 10 51 -2 60 -6 5 -6 8
1 8 7 0 9 10 6 25 -2 15 -9 22 -16 18 -6 -4 -5 1 3 10 9 12 10 17 2 17 -8 0
-9 5 -1 19 7 14 7 22 0 26 -6 4 -8 11 -5 16 4 5 0 9 -7 9 -9 0 -9 3 2 10 12 8
12 10 1 10 -11 0 -11 3 0 17 10 11 10 14 2 9 -9 -5 -13 -1 -13 11 0 11 -6 25
-12 32 -10 11 -10 13 0 7 6 -4 12 -2 12 3 0 6 -5 11 -11 11 -6 0 -8 8 -4 19 3
11 -1 25 -9 34 -11 10 -12 17 -4 25 8 8 7 13 -6 18 -14 5 -15 9 -4 15 9 6 10
9 1 9 -7 0 -10 6 -7 14 3 8 1 17 -5 21 -6 3 -11 16 -11 29 0 13 -7 37 -16 55
-14 29 -21 50 -23 74 -1 5 -7 5 -13 1 -8 -5 -7 0 2 11 12 15 12 17 1 10 -11
-6 -13 -4 -8 8 3 9 -1 18 -10 21 -8 4 -13 13 -9 21 3 8 1 15 -5 15 -6 0 -7 5
-4 10 3 6 1 10 -6 10 -7 0 -9 3 -6 7 4 3 -1 15 -10 26 -10 11 -13 17 -6 14 8
-5 8 -1 0 17 -7 13 -15 22 -19 20 -5 -3 -8 4 -8 15 0 12 -5 21 -11 21 -5 0 -8
4 -4 9 3 5 -1 15 -8 23 -13 12 -27 42 -26 54 0 3 -9 14 -20 23 -23 20 -28 36
-8 25 6 -4 -3 7 -20 24 -21 20 -31 36 -27 47 4 10 2 15 -7 13 -8 -2 -13 3 -11
10 1 6 -5 12 -13 12 -8 0 -15 7 -15 15 0 8 -9 24 -20 35 -11 11 -17 20 -12 20
4 0 -1 5 -11 11 -9 6 -14 15 -11 21 4 6 3 9 -2 6 -11 -7 -35 17 -27 26 3 3 -2
8 -11 12 -9 3 -16 10 -16 16 0 5 -7 16 -15 24 -8 9 -15 13 -15 9 0 -3 -6 0
-14 7 -8 7 -14 15 -14 18 1 20 -4 30 -14 28 -7 -2 -12 5 -10 14 2 12 -2 16
-12 12 -9 -4 -20 5 -31 25 -8 17 -18 31 -21 31 -3 0 -2 -6 1 -12 4 -7 -1 -4
-9 6 -9 11 -16 24 -16 29 0 4 -4 6 -9 3 -12 -8 -34 21 -26 34 4 6 3 9 -2 8
-12 -4 -54 28 -46 35 3 4 -1 7 -11 7 -9 0 -14 5 -11 10 3 6 -1 10 -9 10 -9 0
-16 5 -16 11 0 5 -5 7 -12 3 -6 -4 -8 -3 -4 4 6 11 -6 26 -43 52 -11 8 -21 20
-21 28 0 7 -4 10 -10 7 -5 -3 -10 1 -10 10 0 11 -5 15 -15 11 -8 -3 -14 -2
-14 2 3 20 -3 32 -16 32 -8 0 -15 7 -15 15 0 13 -12 19 -32 16 -4 0 -5 6 -2
14 4 9 0 15 -10 15 -9 0 -16 6 -16 14 0 8 -9 18 -20 21 -11 3 -20 13 -20 21 0
8 -3 13 -7 11 -10 -6 -34 19 -26 27 4 3 -1 6 -11 6 -9 0 -14 5 -11 10 3 6 -1
10 -9 10 -9 0 -16 5 -16 11 0 5 -4 7 -10 4 -6 -3 -7 1 -4 9 4 11 0 16 -11 16
-9 0 -13 4 -10 10 3 6 2 10 -4 10 -16 0 -61 49 -61 68 0 15 -2 15 -10 2 -8
-13 -10 -12 -10 3 0 10 -4 16 -9 13 -5 -3 -12 1 -15 10 -3 8 -11 12 -17 8 -8
-4 -9 -3 -5 4 4 7 2 12 -3 12 -6 0 -11 7 -11 16 0 8 -5 12 -10 9 -5 -3 -10 2
-10 11 0 10 -3 15 -6 11 -4 -3 -13 0 -21 8 -16 17 -26 75 -12 75 6 0 27 16 47
37 20 20 30 33 22 29 -8 -4 -6 0 4 8 11 9 24 16 29 16 4 0 6 3 4 8 -5 9 30 42
37 34 3 -3 6 0 6 7 0 7 5 9 12 5 7 -4 8 -3 4 5 -4 6 0 18 8 27 12 12 16 12 16
2 1 -7 6 0 13 15 7 16 17 30 22 30 6 1 9 5 8 9 -2 5 2 8 8 8 15 0 39 26 32 34
-4 3 -1 6 6 6 6 0 24 12 39 27 15 15 18 20 7 12 -18 -13 -19 -13 -6 4 7 9 20
17 28 17 8 0 11 5 8 10 -3 6 -1 10 4 10 16 0 61 42 61 56 0 7 9 19 20 27 11 8
17 17 13 21 -4 4 0 4 10 0 12 -4 17 -1 17 11 0 9 5 13 10 10 6 -3 10 1 10 9 0
14 12 20 32 17 5 0 7 2 7 7 -3 19 2 33 11 27 6 -3 10 1 10 9 0 9 5 16 11 16 5
0 7 4 4 10 -3 6 1 7 10 4 10 -4 15 -2 13 7 -2 8 3 13 9 12 7 -2 12 0 12 5 -3
20 3 32 17 32 8 0 13 4 9 9 -3 6 4 15 15 21 11 6 20 17 20 25 0 8 9 20 20 28
11 8 17 17 13 20 -3 4 -1 7 6 7 6 0 16 11 21 25 5 14 15 25 21 25 7 0 9 3 6 7
-4 3 3 18 15 31 13 14 16 22 8 17 -9 -5 -7 2 5 16 12 13 27 33 35 43 13 18 13
19 0 12 -8 -4 -5 1 8 12 12 11 22 27 22 36 0 9 5 16 11 16 6 0 9 7 5 15 -3 8
-1 15 5 15 6 0 7 5 4 10 -3 6 -1 10 6 10 7 0 9 8 6 21 -4 16 -3 18 8 9 11 -9
13 -6 11 14 -2 15 1 26 5 26 5 0 9 7 9 15 0 8 5 15 11 15 5 0 8 4 5 9 -3 5 2
26 11 47 16 35 21 54 25 92 1 7 7 11 14 8 8 -3 10 2 6 16 -3 11 1 24 9 29 8 5
9 9 3 9 -6 0 -11 7 -11 15 0 8 5 11 10 8 6 -4 8 0 4 10 -3 9 -2 19 3 22 4 3 7
16 6 30 -2 13 1 22 5 19 5 -3 9 1 9 10 0 8 -6 17 -12 19 -8 3 -6 6 5 6 15 1
16 4 6 22 -7 13 -7 19 -1 15 6 -3 13 -2 17 4 3 5 2 10 -3 10 -13 0 -7 43 6 48
7 2 12 8 12 13 0 6 -5 7 -12 3 -8 -5 -9 -2 -3 12 4 10 9 34 10 51 1 18 5 36 8
40 4 3 2 13 -5 20 -9 11 -9 17 3 25 11 7 11 11 2 15 -7 2 -13 9 -13 14 0 6 5
7 11 3 7 -4 7 1 -1 16 -7 13 -8 20 -2 16 6 -4 10 2 9 14 -1 11 -5 20 -10 20
-5 0 -4 7 3 15 9 11 9 15 1 15 -9 0 -9 5 -1 20 6 11 7 20 2 20 -4 0 -8 9 -9
20 -1 12 3 18 9 14 6 -4 6 2 -1 15 -7 11 -9 21 -5 21 3 0 0 8 -7 17 -10 12
-10 14 -1 9 9 -5 11 2 6 31 -3 21 -8 41 -11 46 -2 4 2 7 9 7 8 0 6 5 -5 11
-13 7 -15 14 -8 23 6 7 6 17 1 26 -6 8 -10 27 -10 43 0 15 -5 27 -11 27 -8 0
-9 4 0 13 6 8 8 17 4 21 -4 4 -9 19 -11 34 -2 15 -9 30 -15 34 -7 4 -8 8 -3 8
5 0 3 7 -4 15 -10 12 -10 15 0 15 10 0 9 4 -1 16 -13 15 -17 29 -21 67 -1 9
-6 17 -10 17 -4 0 -8 10 -8 22 0 12 -8 30 -17 41 -13 15 -14 18 -3 12 11 -6
10 -3 -3 12 -9 11 -14 23 -10 26 3 4 1 7 -6 7 -8 0 -11 7 -7 15 3 9 -1 18 -9
21 -8 3 -11 12 -8 21 4 10 2 14 -4 10 -6 -4 -14 0 -17 9 -9 23 -8 26 7 18 6
-4 -1 8 -18 26 -16 18 -23 30 -15 26 8 -4 6 1 -6 11 -11 10 -19 24 -16 31 2 6
-1 12 -8 12 -6 0 -8 5 -5 10 3 6 1 10 -4 10 -6 0 -11 7 -11 16 0 8 -4 12 -10
9 -5 -3 -10 3 -10 14 0 12 -4 21 -10 21 -5 0 -10 5 -10 11 0 6 -11 25 -25 41
-14 16 -23 34 -19 39 3 5 0 8 -8 7 -7 -2 -12 2 -11 9 2 6 -6 15 -17 18 -11 4
-18 10 -15 15 7 12 -24 42 -36 34 -5 -3 -9 -2 -8 3 3 19 -2 43 -9 40 -4 -1 -8
2 -9 8 -1 5 -11 12 -22 17 -12 4 -21 14 -21 23 0 8 -7 15 -16 15 -8 0 -12 5
-9 10 3 6 -2 10 -11 10 -10 0 -15 3 -11 6 8 8 -18 34 -33 34 -6 0 -8 5 -5 10
3 6 -3 10 -15 10 -12 0 -19 4 -15 9 7 12 -24 43 -35 36 -5 -3 -11 4 -15 15 -4
11 -11 17 -17 14 -7 -5 -9 -2 -5 8 4 12 1 14 -15 10 -17 -4 -20 -2 -15 11 3 9
3 16 -1 15 -13 -4 -72 32 -72 43 0 6 -7 9 -15 5 -10 -3 -15 1 -15 11 0 9 -3
13 -6 10 -4 -4 -15 3 -25 15 -11 12 -19 16 -19 8 0 -8 -8 -4 -19 8 -10 12 -24
22 -30 22 -7 0 -10 4 -7 8 4 7 -9 11 -51 14 -7 1 -10 4 -8 8 5 7 -23 23 -68
40 -18 6 -26 14 -21 22 4 7 4 10 -1 6 -4 -4 -15 -2 -23 5 -13 10 -14 9 -7 -2
6 -11 4 -13 -9 -8 -10 4 -20 7 -22 7 -3 0 -2 5 2 12 4 6 3 8 -3 5 -5 -3 -21 0
-36 8 -14 7 -28 11 -31 7 -3 -3 -6 1 -6 9 0 12 -2 12 -10 -1 -8 -12 -10 -12
-16 3 -3 9 -17 17 -29 17 -13 0 -27 5 -30 10 -9 15 -27 12 -20 -2 4 -7 1 -6
-7 3 -7 9 -19 14 -25 12 -7 -3 -13 -1 -13 4 0 4 -15 9 -32 10 -18 2 -34 7 -36
13 -2 6 -10 7 -22 0 -11 -6 -20 -6 -22 -1 -2 5 -16 10 -33 12 -16 2 -36 8 -44
14 -11 8 -13 7 -7 -3 7 -11 4 -12 -12 -3 -12 6 -46 12 -77 13 -30 1 -55 5 -55
9 0 8 -45 3 -61 -7 -7 -4 -10 -3 -6 3 4 5 -6 10 -23 10 -18 0 -27 -4 -23 -11
4 -6 -1 -5 -11 3 -15 13 -19 13 -27 0 -5 -8 -9 -9 -9 -4 0 6 -30 11 -70 12
-50 1 -68 -2 -63 -11 5 -8 3 -8 -8 0 -19 14 -119 17 -119 3 0 -6 -5 -7 -10 -4
-6 4 -7 12 -3 18 4 7 0 6 -10 -2 -9 -7 -17 -10 -17 -6 0 4 -8 1 -17 -6 -11
-10 -14 -10 -9 -1 4 7 1 12 -8 12 -9 0 -16 -6 -16 -12 0 -9 -3 -9 -8 -2 -8 12
-121 13 -141 0 -10 -6 -12 -5 -7 2 4 7 1 12 -8 12 -9 0 -16 -6 -17 -12 0 -7
-4 -4 -9 7 -5 11 -9 15 -9 9 -1 -8 -14 -10 -37 -7 -27 4 -34 2 -29 -8 6 -8 4
-10 -6 -3 -8 5 -25 10 -37 12 -17 2 -22 -1 -16 -10 6 -10 4 -10 -9 1 -13 10
-20 11 -31 2 -10 -9 -16 -9 -21 -1 -4 6 -13 9 -20 6 -7 -2 -18 1 -25 7 -10 9
-11 9 -6 -1 6 -9 -2 -11 -30 -6 -25 4 -39 1 -45 -8 -5 -7 -9 -8 -9 -2 0 15
-110 16 -110 1 0 -8 -3 -8 -8 -2 -11 16 -112 18 -112 2 0 -7 -3 -8 -8 -2 -11
15 -115 17 -105 2 5 -9 3 -9 -8 -1 -21 15 -119 17 -119 1 0 -7 -3 -8 -8 -2
-10 14 -115 17 -106 3 5 -7 2 -8 -7 -2 -23 14 -121 15 -112 1 5 -9 3 -9 -8 -1
-8 6 -27 10 -44 9 -16 -1 -38 3 -49 8 -12 6 -16 5 -12 -1 3 -6 -25 -9 -77 -7
-45 2 -87 -1 -94 -7 -7 -6 -14 -5 -18 2 -9 15 -58 13 -49 -2 6 -10 4 -10 -7 0
-15 14 -63 17 -54 2 3 -6 -1 -7 -9 -4 -9 3 -13 11 -10 16 4 6 0 7 -12 1 -11
-5 -50 -8 -87 -6 -52 2 -66 0 -61 -10 5 -9 4 -9 -7 1 -16 15 -63 16 -54 1 4
-6 -2 -5 -14 3 -15 9 -23 10 -32 1 -9 -9 -16 -9 -29 0 -14 8 -22 8 -33 -2 -11
-9 -17 -9 -22 -1 -4 7 -15 10 -25 7 -9 -2 -25 0 -35 6 -13 7 -16 6 -11 -2 5
-7 -1 -11 -14 -11 -14 0 -19 4 -14 13 4 6 -3 3 -16 -8 -13 -11 -20 -14 -16 -7
4 7 2 12 -6 12 -8 0 -20 -6 -27 -12 -11 -11 -12 -10 -6 1 6 11 3 13 -12 9 -11
-3 -28 -1 -38 5 -13 7 -16 6 -11 -2 5 -7 -1 -11 -14 -11 -14 0 -19 4 -14 13 4
6 -3 3 -16 -8 -13 -11 -20 -14 -16 -7 4 7 2 12 -6 12 -8 0 -20 -6 -27 -12 -11
-10 -13 -10 -7 0 4 7 2 12 -6 12 -8 0 -20 -6 -27 -12 -11 -10 -13 -10 -7 0 4
7 2 12 -6 12 -8 0 -20 -6 -27 -12 -11 -11 -12 -10 -6 1 6 11 3 13 -12 9 -11
-3 -28 -1 -38 5 -13 7 -16 6 -11 -2 10 -15 -17 -14 -33 2 -11 10 -13 10 -7 0
4 -8 1 -13 -8 -13 -8 0 -17 6 -19 13 -4 10 -6 10 -6 0 -1 -7 -10 -13 -22 -13
-13 0 -18 4 -13 13 4 6 -3 3 -16 -8 -13 -11 -20 -14 -16 -7 4 7 2 12 -6 12 -8
0 -20 -6 -27 -12 -11 -10 -13 -10 -7 0 4 7 2 12 -6 12 -8 0 -20 -6 -27 -12
-11 -10 -13 -10 -7 0 4 7 2 12 -6 12 -8 0 -20 -6 -27 -12 -11 -11 -12 -10 -6
1 6 11 3 13 -12 9 -11 -3 -28 -1 -38 5 -13 7 -16 6 -11 -2 4 -6 1 -11 -8 -11
-8 0 -17 6 -19 13 -4 10 -6 10 -6 0 -1 -7 -10 -13 -22 -13 -13 0 -18 4 -13 13
6 10 4 10 -7 0 -7 -7 -19 -13 -27 -13 -8 0 -10 5 -6 13 4 6 -3 3 -16 -8 -13
-11 -20 -15 -16 -8 5 9 -14 11 -76 9 -52 -2 -88 1 -97 8 -11 8 -13 8 -7 -1 4
-8 2 -13 -8 -13 -8 0 -17 6 -19 13 -4 10 -6 10 -6 0 -1 -7 -10 -13 -22 -13
-11 0 -17 4 -14 10 3 6 -1 7 -9 4 -9 -3 -13 -11 -9 -18 4 -6 -1 -5 -10 3 -14
11 -20 11 -34 0 -10 -9 -14 -9 -10 -2 6 9 -3 12 -30 10 -21 -2 -50 0 -66 4
-15 4 -25 4 -22 -1 3 -5 -23 -7 -57 -4 -34 2 -67 -1 -74 -7 -8 -7 -14 -6 -20
2 -5 8 -3 9 6 4 9 -5 11 -4 6 4 -4 6 -13 8 -19 4 -7 -4 -20 -6 -31 -4 -12 2
-16 -1 -11 -9 5 -8 1 -7 -13 1 -17 11 -24 10 -38 -2 -10 -8 -15 -9 -11 -3 8
14 -92 16 -110 2 -7 -6 -14 -5 -19 3 -5 8 -3 9 6 4 9 -6 11 -4 5 4 -5 9 -11 9
-17 3 -6 -6 -17 -8 -24 -5 -8 3 -14 -1 -14 -8 0 -11 -2 -11 -9 0 -8 12 -12 12
-24 2 -9 -7 -18 -8 -21 -3 -3 5 -17 12 -31 14 -22 5 -23 3 -13 -10 11 -13 10
-14 -10 -3 -13 7 -26 10 -29 7 -4 -3 -13 0 -21 7 -11 8 -14 8 -9 0 6 -9 -9
-11 -55 -8 -39 2 -68 -1 -77 -8 -10 -8 -13 -8 -8 -1 5 8 -7 12 -39 11 -25 0
-47 -4 -50 -9 -3 -5 -12 -4 -20 3 -8 6 -17 9 -21 6 -3 -4 -13 -1 -21 6 -13 9
-14 9 -8 -1z m2154 -8307 c-3 -3 -9 2 -12 12 -6 14 -5 15 5 6 7 -7 10 -15 7
-18z"/>
<path d="M1070 7359 c0 -5 5 -7 10 -4 6 3 10 8 10 11 0 2 -4 4 -10 4 -5 0 -10
-5 -10 -11z"/>
<path d="M8745 6250 c-3 -6 1 -7 9 -4 18 7 21 14 7 14 -6 0 -13 -4 -16 -10z"/>
<path d="M9700 3600 c0 -5 5 -10 10 -10 6 0 10 5 10 10 0 6 -4 10 -10 10 -5 0
-10 -4 -10 -10z"/>
</g>
</svg>
